<?xml version="1.0" encoding="utf-8"?>
<!-- Generator: Adobe Illustrator 23.0.4, SVG Export Plug-In . SVG Version: 6.00 Build 0)  -->
<svg version="1.1" id="Layer_1" xmlns="http://www.w3.org/2000/svg" xmlns:xlink="http://www.w3.org/1999/xlink" x="0px" y="0px"
	 width="243.4px" height="111.4px" viewBox="0 0 243.4 111.4" style="enable-background:new 0 0 243.4 111.4;" xml:space="preserve"
	>
<style type="text/css">
	.st0{fill:#666666;}
	.st1{fill:#FFFFFF;}
	.st2{fill:#231F20;}
	.st3{fill:#760D17;}
	.st4{fill-rule:evenodd;clip-rule:evenodd;fill:#FFCA38;}
	.st5{fill:#FFCA38;}
	.st6{fill:#FFFFFC;}
	.st7{fill-rule:evenodd;clip-rule:evenodd;fill:#231F20;}
</style>
<g>
	<path class="st7" d="M71.9,69.3c3,0.1,4.2,2.2,4.2,4.5c0,3.2-2.2,5-5.1,5h-3.9v-9.5H71.9L71.9,69.3z M69.2,78h1.2
		c1.9,0,3.4-1,3.4-4.2c0-2.6-1.2-3.7-3.2-3.7h-1.4V78L69.2,78z"/>
	<path class="st7" d="M79.4,75.5c0,1.4,0.5,2.6,1.9,2.6c0.6,0,1.2-0.3,1.6-0.6l0.2,0.1l-0.3,0.8c-0.6,0.4-1.3,0.6-2,0.6
		c-2.3,0-3.5-1.4-3.5-3.7c0-2,1.2-3.4,3.2-3.4c2.2,0,3,1.5,2.9,3.5H79.4L79.4,75.5z M81.4,74.8c0-0.7-0.1-2.2-0.9-2.2
		c-1,0-1.1,1.5-1.1,2.2H81.4L81.4,74.8z"/>
	<path class="st7" d="M83.9,73c0-0.3,0-0.6,0-0.9h1c0.1-0.8,0.3-1.6,0.7-2.3c0.7-1.2,1.5-1.7,2.9-1.5c-0.1,0.6-0.1,1.3-0.1,1.8
		l-0.2,0.1c-0.3-0.2-0.8-0.4-1.2-0.4c-0.2,0-0.6,0-0.8,0.2c-0.1,0.1-0.2,0.2-0.2,0.3c0,0.4,0.4,1.4,0.6,1.8h1.4c0,0.3,0,0.6,0,0.9
		h-1.3v5.9c-0.3,0-0.6-0.1-1-0.1c-0.3,0-0.6,0-1,0.1V73H83.9L83.9,73z"/>
	<path class="st7" d="M90.8,75.5c0,1.4,0.5,2.6,1.9,2.6c0.6,0,1.2-0.3,1.6-0.6l0.2,0.1l-0.3,0.8c-0.6,0.4-1.3,0.6-2,0.6
		c-2.3,0-3.5-1.4-3.5-3.7c0-2,1.2-3.4,3.2-3.4c2.2,0,3,1.5,2.9,3.5H90.8L90.8,75.5z M92.9,74.8c0-0.7-0.1-2.2-0.9-2.2
		c-1,0-1.1,1.5-1.1,2.2H92.9L92.9,74.8z"/>
	<path class="st7" d="M96,72.1c0.3,0,0.6,0.1,0.9,0.1c0.3,0,0.6,0,0.9-0.1v1c0.6-0.7,1.3-1.2,2.2-1.2c1.8,0,2.2,1.1,2.2,2.8v4.1
		c-0.3,0-0.6-0.1-1-0.1c-0.3,0-0.6,0-1,0.1v-3.5c0-1.3-0.2-2.3-1.1-2.3c-1.2,0-1.2,1.6-1.2,2.5v3.2c-0.3,0-0.6-0.1-1-0.1
		c-0.3,0-0.6,0-1,0.1V72.1L96,72.1z"/>
	<path class="st7" d="M110,78.9c-0.3,0-0.6-0.1-0.9-0.1c-0.3,0-0.6,0-0.9,0.1v-1.2c-0.3,0.8-1,1.4-1.9,1.4c-2.1,0-2.8-1.7-2.8-3.5
		c0-1.8,0.9-3.5,2.7-3.5c0.8,0,1.5,0.3,1.9,1v-4.7c0.3,0,0.6,0.1,1,0.1c0.3,0,0.6,0,1-0.1V78.9L110,78.9z M105.5,75.5
		c0,0.8,0.1,2.6,1.2,2.6c1.2,0,1.4-1.8,1.4-2.7c0-0.8-0.1-2.5-1.2-2.5C105.6,72.8,105.5,74.6,105.5,75.5L105.5,75.5z"/>
	<path class="st7" d="M111.8,72.1c0.3,0,0.6,0.1,1,0.1c0.3,0,0.6,0,1-0.1v6.8c-0.3,0-0.6-0.1-1-0.1c-0.3,0-0.6,0-1,0.1V72.1
		L111.8,72.1z M112.7,68.4c0.6,0,1.1,0.5,1.1,1.1c0,0.6-0.5,1.1-1.1,1.1c-0.6,0-1.1-0.5-1.1-1.1C111.6,68.9,112.1,68.4,112.7,68.4
		L112.7,68.4z"/>
	<path class="st7" d="M115.4,72.1c0.3,0,0.6,0.1,0.9,0.1c0.3,0,0.6,0,0.9-0.1v1c0.6-0.7,1.3-1.2,2.2-1.2c1.8,0,2.2,1.1,2.2,2.8v4.1
		c-0.3,0-0.6-0.1-1-0.1c-0.3,0-0.6,0-1,0.1v-3.5c0-1.3-0.2-2.3-1.1-2.3c-1.2,0-1.2,1.6-1.2,2.5v3.2c-0.3,0-0.6-0.1-1-0.1
		c-0.3,0-0.6,0-1,0.1V72.1L115.4,72.1z"/>
	<path class="st7" d="M129.2,72.6l-1.3,0c0.5,0.4,0.7,0.9,0.7,1.6c0,1.6-1.3,2.3-3,2.3c-0.2,0-0.5,0-0.6,0.1
		c-0.1,0.1-0.2,0.2-0.2,0.4c0,0.6,0.5,0.7,1.1,0.7l1.2,0c1.5,0.1,2,0.8,2,1.8c0,2.1-1.8,3-3.7,3c-1.2,0-2.8-0.4-2.8-1.9
		c0-0.7,0.5-1.3,1.1-1.6l0.2-0.1l-0.1-0.1c-0.4-0.2-0.7-0.6-0.7-1c0-0.6,0.6-1.3,1.1-1.4l0.2-0.1c-1.2-0.3-1.8-1-1.8-2.2
		c0-1.6,1.3-2.1,3.1-2.1c0.5,0,1,0,1.4,0h1.7L129.2,72.6L129.2,72.6z M124.1,80.3c0,1.1,0.9,1.6,1.9,1.6c1,0,1.7-0.8,1.7-1.6
		c0-1.3-1-1.4-2.1-1.4c-0.7,0-1.3,0.1-1.5,0.8C124.1,80,124.1,80.2,124.1,80.3L124.1,80.3z M125.8,75.9c0.9,0,0.9-1.2,0.9-1.9
		c0-0.6-0.1-1.6-0.9-1.6c-0.9,0-1,1.2-1,1.9C124.9,74.9,125,75.9,125.8,75.9L125.8,75.9z"/>
	<path class="st7" d="M136.8,77.8c1.2,0,2.3-0.1,3.2-0.2c0,0.2-0.1,0.4-0.1,0.6c0,0.2,0,0.4,0.1,0.6h-5.3v-9.5
		c0.3,0,0.7,0.1,1.1,0.1c0.3,0,0.7,0,1-0.1V77.8L136.8,77.8z"/>
	<path class="st7" d="M141.6,72.1c0.3,0,0.6,0.1,1,0.1c0.3,0,0.6,0,1-0.1v6.8c-0.3,0-0.6-0.1-1-0.1c-0.3,0-0.6,0-1,0.1V72.1
		L141.6,72.1z M142.5,68.4c0.6,0,1.1,0.5,1.1,1.1c0,0.6-0.5,1.1-1.1,1.1c-0.6,0-1.1-0.5-1.1-1.1C141.5,68.9,141.9,68.4,142.5,68.4
		L142.5,68.4z"/>
	<path class="st7" d="M145.3,68.2c0.3,0,0.6,0.1,1,0.1c0.3,0,0.6,0,1-0.1V73c0.4-0.7,1.1-1.1,1.9-1.1c1.8,0,2.8,1.6,2.8,3.3
		c0,0.9-0.2,2-0.8,2.7c-0.6,0.7-1.4,1.1-2.4,1.1c-0.7,0-1.5-0.3-1.9-1c-0.4,0.2-0.8,0.5-1.2,0.8h-0.3V68.2L145.3,68.2z M148.4,78.3
		c0.9,0,1.3-1.1,1.3-2.9c0-0.9,0-2.6-1.2-2.6s-1.3,1.8-1.3,2.7C147.2,76.4,147.2,78.3,148.4,78.3L148.4,78.3z"/>
	<path class="st7" d="M154.8,75.5c0,1.4,0.5,2.6,1.9,2.6c0.6,0,1.2-0.3,1.6-0.6l0.2,0.1l-0.3,0.8c-0.6,0.4-1.3,0.6-2,0.6
		c-2.3,0-3.5-1.4-3.5-3.7c0-2,1.2-3.4,3.2-3.4c2.2,0,3,1.5,2.9,3.5H154.8L154.8,75.5z M156.9,74.8c0-0.7-0.1-2.2-0.9-2.2
		c-1,0-1.1,1.5-1.1,2.2H156.9L156.9,74.8z"/>
	<path class="st7" d="M160.2,72.1c0.3,0,0.6,0.1,1,0.1c0.3,0,0.6,0,1-0.1v1.7c0.3-1,0.9-1.9,2.3-1.9c-0.1,0.7-0.1,1.3-0.1,1.9
		l-0.1,0.1c-0.2-0.1-0.5-0.2-0.7-0.2c-0.6,0-1.1,0.3-1.3,0.9c-0.1,0.4-0.1,1.2-0.1,1.6v2.5c-0.3,0-0.6-0.1-1-0.1c-0.3,0-0.6,0-1,0.1
		V72.1L160.2,72.1z"/>
	<path class="st7" d="M167.8,76.9c0,1,0.1,1.5,1.3,1.2v0.5c-0.5,0.2-1,0.3-1.5,0.3c-1.5,0-1.8-1-1.8-2.3V73h-1c0-0.3,0-0.6,0-0.9h1
		v-1.6c0.6-0.3,1.3-0.5,1.9-0.9v2.5h1.2c0,0.3,0,0.6,0,0.9h-1.2V76.9L167.8,76.9z"/>
	<path class="st7" d="M172.5,78.8l-2.8-6.7c0.3,0,0.7,0.1,1.1,0.1c0.4,0,0.7,0,1.1-0.1c0.5,1.5,1.1,2.9,1.7,4.4L174,75
		c0.4-1,0.7-1.9,1.1-2.9c0.2,0,0.4,0,0.6,0c0.2,0,0.4,0,0.6,0l-1.4,3.2c-1,2.4-2,4.7-2.9,7.1c-0.2,0-0.4,0-0.6,0c-0.2,0-0.4,0-0.6,0
		L172.5,78.8L172.5,78.8z"/>
	<path class="st7" d="M75.5,94.1c-0.3,0-0.7-0.1-1-0.1c-0.3,0-0.7,0-1.1,0.1v-9.6h3.4c1.9,0,3,0.8,3,2.4c0,2.5-1.8,3-4.3,3V94.1
		L75.5,94.1z M75.5,89.1c0.3,0,0.6,0,0.9-0.1c0.9-0.3,1.2-1,1.2-1.9c0-1.1-0.6-1.9-1.3-1.9h-0.9V89.1L75.5,89.1z"/>
	<path class="st7" d="M87.1,94.1c-0.3,0-0.6-0.1-0.9-0.1c-0.3,0-0.6,0-0.9,0.1v-1c-0.7,0.7-1.1,1.1-2.1,1.1c-0.7,0-1.5-0.3-1.9-0.9
		c-0.4-0.6-0.4-1.5-0.4-2.2v-3.9c0.3,0,0.6,0.1,1,0.1c0.3,0,0.6,0,1-0.1v3.9c0,0.3,0,0.9,0.2,1.2c0.2,0.4,0.5,0.7,1,0.7
		c1.2,0,1.2-1.2,1.2-2.1v-3.7c0.3,0,0.6,0.1,1,0.1c0.3,0,0.6,0,1-0.1V94.1L87.1,94.1z"/>
	<path class="st7" d="M88.9,87.3c0.3,0,0.6,0.1,1,0.1c0.3,0,0.6,0,1-0.1V89c0.3-1,0.9-1.9,2.3-1.9C93,87.8,93,88.5,93,89.1l-0.1,0.1
		C92.7,89,92.4,89,92.2,89c-0.6,0-1.1,0.3-1.3,0.9c-0.1,0.4-0.1,1.2-0.1,1.6v2.5c-0.3,0-0.6-0.1-1-0.1c-0.3,0-0.6,0-1,0.1V87.3
		L88.9,87.3z"/>
	<path class="st7" d="M94.4,92.3c0.3,0.7,0.8,1.2,1.6,1.2c0.5,0,1.1-0.4,1.1-0.9c0-1.3-3.2-0.8-3.2-3.2c0-1.4,1.1-2.2,2.4-2.2
		c0.7,0,1.5,0.2,2,0.7c-0.1,0.4-0.2,0.8-0.3,1.2h-0.4c-0.1-0.6-0.7-1.2-1.3-1.2c-0.5,0-1,0.2-1,0.8c0,1.4,3.3,0.7,3.3,3.3
		c0,1.3-1,2.2-2.7,2.2c-0.7,0-1.4-0.2-1.9-0.6c0.1-0.4,0.2-0.9,0.2-1.3H94.4L94.4,92.3z"/>
	<path class="st7" d="M105.8,94.1c-0.3,0-0.6-0.1-0.9-0.1c-0.3,0-0.6,0-0.9,0.1v-1c-0.7,0.7-1.1,1.1-2.1,1.1c-0.7,0-1.5-0.3-1.9-0.9
		c-0.4-0.6-0.4-1.5-0.4-2.2v-3.9c0.3,0,0.6,0.1,1,0.1c0.3,0,0.6,0,1-0.1v3.9c0,0.3,0,0.9,0.2,1.2c0.2,0.4,0.5,0.7,1,0.7
		c1.2,0,1.2-1.2,1.2-2.1v-3.7c0.3,0,0.6,0.1,1,0.1c0.3,0,0.6,0,1-0.1V94.1L105.8,94.1z"/>
	<path class="st7" d="M107.6,87.3c0.3,0,0.6,0.1,1,0.1c0.3,0,0.6,0,1-0.1v6.8c-0.3,0-0.6-0.1-1-0.1c-0.3,0-0.6,0-1,0.1V87.3
		L107.6,87.3z M108.6,83.6c0.6,0,1.1,0.5,1.1,1.1c0,0.6-0.5,1.1-1.1,1.1c-0.6,0-1.1-0.5-1.1-1.1C107.5,84.1,108,83.6,108.6,83.6
		L108.6,83.6z"/>
	<path class="st7" d="M111.3,87.3c0.3,0,0.6,0.1,0.9,0.1c0.3,0,0.6,0,0.9-0.1v1c0.6-0.7,1.3-1.2,2.2-1.2c1.8,0,2.2,1.1,2.2,2.8v4.1
		c-0.3,0-0.6-0.1-1-0.1c-0.3,0-0.6,0-1,0.1v-3.5c0-1.3-0.2-2.3-1.1-2.3c-1.2,0-1.2,1.6-1.2,2.5v3.2c-0.3,0-0.6-0.1-1-0.1
		c-0.3,0-0.6,0-1,0.1V87.3L111.3,87.3z"/>
	<path class="st7" d="M125,87.8l-1.3,0c0.5,0.4,0.7,0.9,0.7,1.6c0,1.6-1.3,2.3-3,2.3c-0.2,0-0.5,0-0.6,0.1c-0.1,0.1-0.2,0.2-0.2,0.4
		c0,0.6,0.5,0.7,1.1,0.7l1.2,0c1.5,0.1,2,0.8,2,1.8c0,2.1-1.8,3-3.7,3c-1.2,0-2.8-0.4-2.8-1.9c0-0.7,0.5-1.3,1.1-1.6l0.2-0.1
		l-0.1-0.1c-0.4-0.2-0.7-0.6-0.7-1c0-0.6,0.6-1.3,1.1-1.4l0.2-0.1c-1.2-0.3-1.8-1-1.8-2.2c0-1.6,1.3-2.1,3.1-2.1c0.5,0,1,0,1.4,0
		h1.7L125,87.8L125,87.8z M120,95.5c0,1.1,0.9,1.6,1.9,1.6c1,0,1.7-0.8,1.7-1.6c0-1.3-1-1.4-2.1-1.4c-0.7,0-1.3,0.1-1.5,0.8
		C120,95.2,120,95.4,120,95.5L120,95.5z M121.6,91.1c0.9,0,0.9-1.2,0.9-1.9c0-0.6-0.1-1.6-0.9-1.6c-0.9,0-1,1.2-1,1.9
		C120.7,90.1,120.9,91.1,121.6,91.1L121.6,91.1z"/>
	<path class="st7" d="M133,91.7c0,1,0,2.2-0.4,3c-0.6,1-1.5,1.5-2.7,1.6l-0.2-0.7c1.3-0.4,1.2-1.8,1.2-3.6v-7.5
		c0.4,0,0.7,0.1,1.1,0.1c0.3,0,0.7,0,1-0.1V91.7L133,91.7z"/>
	<path class="st7" d="M141.1,94.1c-0.3,0-0.6-0.1-0.9-0.1c-0.3,0-0.6,0-0.9,0.1v-1c-0.7,0.7-1.1,1.1-2.1,1.1c-0.7,0-1.5-0.3-1.9-0.9
		c-0.4-0.6-0.4-1.5-0.4-2.2v-3.9c0.3,0,0.6,0.1,1,0.1c0.3,0,0.6,0,1-0.1v3.9c0,0.3,0,0.9,0.2,1.2c0.2,0.4,0.5,0.7,1,0.7
		c1.2,0,1.2-1.2,1.2-2.1v-3.7c0.3,0,0.6,0.1,1,0.1c0.3,0,0.6,0,1-0.1V94.1L141.1,94.1z"/>
	<path class="st7" d="M142.9,92.3c0.3,0.7,0.8,1.2,1.6,1.2c0.5,0,1.1-0.4,1.1-0.9c0-1.3-3.2-0.8-3.2-3.2c0-1.4,1.1-2.2,2.4-2.2
		c0.7,0,1.5,0.2,2,0.7c-0.1,0.4-0.2,0.8-0.3,1.2h-0.4c-0.1-0.6-0.7-1.2-1.3-1.2c-0.5,0-1,0.2-1,0.8c0,1.4,3.3,0.7,3.3,3.3
		c0,1.3-1,2.2-2.7,2.2c-0.7,0-1.4-0.2-1.9-0.6c0.1-0.4,0.2-0.9,0.2-1.3H142.9L142.9,92.3z"/>
	<path class="st7" d="M150.5,92.2c0,1,0.1,1.5,1.3,1.2v0.5c-0.5,0.2-1,0.3-1.5,0.3c-1.5,0-1.8-1-1.8-2.3v-3.8h-1c0-0.3,0-0.6,0-0.9
		h1v-1.6c0.6-0.3,1.3-0.5,1.9-0.9v2.5h1.2c0,0.3,0,0.6,0,0.9h-1.2V92.2L150.5,92.2z"/>
	<path class="st7" d="M153,87.3c0.3,0,0.6,0.1,1,0.1c0.3,0,0.6,0,1-0.1v6.8c-0.3,0-0.6-0.1-1-0.1c-0.3,0-0.6,0-1,0.1V87.3L153,87.3z
		 M153.9,83.6c0.6,0,1.1,0.5,1.1,1.1c0,0.6-0.5,1.1-1.1,1.1c-0.6,0-1.1-0.5-1.1-1.1C152.8,84.1,153.3,83.6,153.9,83.6L153.9,83.6z"
		/>
	<path class="st7" d="M162.1,89.2h-0.3c-0.1-0.8-0.6-1.5-1.4-1.5c-1.3,0-1.7,1.7-1.7,2.7c0,1.7,0.6,2.8,2.1,2.8
		c0.5,0,1.1-0.3,1.5-0.7l0.2,0.2l-0.3,0.8c-0.4,0.3-1.4,0.5-1.9,0.5c-2.2,0-3.7-1.2-3.7-3.4c0-2.2,1.5-3.6,3.7-3.6
		c0.8,0,1.7,0.2,2.4,0.6L162.1,89.2L162.1,89.2z"/>
	<path class="st7" d="M165.5,90.7c0,1.4,0.5,2.6,1.9,2.6c0.6,0,1.2-0.3,1.6-0.6l0.2,0.1l-0.3,0.8c-0.6,0.4-1.3,0.6-2,0.6
		c-2.3,0-3.5-1.4-3.5-3.7c0-2,1.2-3.4,3.2-3.4c2.2,0,3,1.5,2.9,3.5H165.5L165.5,90.7z M167.5,90c0-0.7-0.1-2.2-0.9-2.2
		c-1,0-1.1,1.5-1.1,2.2H167.5L167.5,90z"/>
	<path class="st7" d="M148.8,13.7H95l-28.7,50h13.2l16.7-28.4h11.4v28.4h24.3c20.3-7.1,11.2-24.6,5.1-28.4c10.6,0,10.1,0.3,10.1,0.3
		l16.5,28.1h13.3L148.8,13.7L148.8,13.7z M107.1,32.4h-8.9l9.1-16.4L107.1,32.4L107.1,32.4z M119.4,15.3h7.5
		c8.9,5.1,4.8,16.4,0,17.3h-7.5V15.3L119.4,15.3z M126.4,62.2c-0.8,0-6.9,0-6.9,0v-27c0,0,5.1,0,7.7,0
		C140.3,43.1,135.9,58.6,126.4,62.2L126.4,62.2z M137.8,32.5c3-2.5,3.1-4.5,3.4-7.5c1.4,2.5,4.7,7.5,4.7,7.5H137.8L137.8,32.5z"/>
</g>
</svg>
