<svg version="1.1" id="Layer_1" xmlns="http://www.w3.org/2000/svg" xmlns:xlink="http://www.w3.org/1999/xlink" x="0px" y="0px"
	 width="243.4px" height="111.4px" viewBox="0 0 243.4 111.4" style="enable-background:new 0 0 243.4 111.4;" xml:space="preserve"
	>
<style type="text/css">
	.st0{fill:#666666;}
	.st1{fill:#FFFFFF;}
	.st2{fill:#231F20;}
	.st3{fill:#760D17;}
	.st4{fill-rule:evenodd;clip-rule:evenodd;fill:#FFCA38;}
	.st5{fill:#FFCA38;}
	.st6{fill:#FFFFFC;}
	.st7{fill-rule:evenodd;clip-rule:evenodd;fill:#231F20;}
</style>
<g>
	<g>
		
			<ellipse transform="matrix(0.9303 -0.3667 0.3667 0.9303 -11.9526 48.5168)" class="st1" cx="121.7" cy="55.7" rx="51.6" ry="51.6"/>
		<path class="st2" d="M121.7,107.4c-7,0-13.7-1.4-20.1-4.1c-6.2-2.6-11.7-6.3-16.4-11.1c-4.7-4.7-8.5-10.3-11.1-16.4
			C71.4,69.5,70,62.7,70,55.7s1.4-13.7,4.1-20.1c2.6-6.2,6.3-11.7,11.1-16.4c4.7-4.7,10.3-8.5,16.4-11.1C108,5.4,114.7,4,121.7,4
			c7,0,13.7,1.4,20.1,4.1c6.2,2.6,11.7,6.3,16.4,11.1c4.7,4.7,8.5,10.3,11.1,16.4c2.7,6.4,4.1,13.1,4.1,20.1s-1.4,13.7-4.1,20.1
			c-2.6,6.2-6.3,11.7-11.1,16.4c-4.7,4.7-10.3,8.5-16.4,11.1C135.5,106,128.7,107.4,121.7,107.4z M121.7,4.2
			C108,4.2,95,9.5,85.3,19.3C75.5,29,70.2,41.9,70.2,55.7c0,13.8,5.4,26.7,15.1,36.5c9.7,9.7,22.7,15.1,36.5,15.1
			c13.8,0,26.7-5.4,36.5-15.1s15.1-22.7,15.1-36.5c0-13.8-5.4-26.7-15.1-36.5C148.4,9.5,135.5,4.2,121.7,4.2z"/>
	</g>
	<g>
		
			<ellipse transform="matrix(0.9301 -0.3672 0.3672 0.9301 -11.9568 48.5955)" class="st2" cx="121.7" cy="55.7" rx="49.8" ry="49.8"/>
		<path class="st2" d="M121.7,105.6c-13.3,0-25.8-5.2-35.3-14.6C77,81.6,71.9,69,71.9,55.7S77,29.9,86.5,20.5
			c9.4-9.4,21.9-14.6,35.3-14.6S147.6,11,157,20.5c9.4,9.4,14.6,21.9,14.6,35.3S166.4,81.6,157,91
			C147.6,100.4,135,105.6,121.7,105.6z M121.7,6C108.4,6,96,11.2,86.6,20.6S72,42.4,72,55.7c0,13.3,5.2,25.8,14.6,35.2
			c9.4,9.4,21.9,14.6,35.2,14.6c13.3,0,25.8-5.2,35.2-14.6c9.4-9.4,14.6-21.9,14.6-35.2c0-13.3-5.2-25.8-14.6-35.2
			C147.5,11.2,135,6,121.7,6z"/>
	</g>
	<g>
		
			<ellipse transform="matrix(0.2392 -0.971 0.971 0.2392 38.5011 160.5749)" class="st3" cx="121.7" cy="55.7" rx="33.6" ry="33.6"/>
		<path class="st1" d="M121.7,89.8c-9.1,0-17.7-3.5-24.1-10c-6.4-6.4-10-15-10-24.1c0-9.1,3.5-17.7,10-24.1c6.4-6.4,15-10,24.1-10
			c9.1,0,17.7,3.5,24.1,10c6.4,6.4,10,15,10,24.1c0,9.1-3.5,17.7-10,24.1C139.4,86.3,130.8,89.8,121.7,89.8z M121.7,22.6
			c-8.8,0-17.1,3.4-23.4,9.7c-6.2,6.2-9.7,14.6-9.7,23.4s3.4,17.1,9.7,23.4c6.2,6.2,14.6,9.7,23.4,9.7s17.1-3.4,23.4-9.7
			c6.2-6.2,9.7-14.6,9.7-23.4s-3.4-17.1-9.7-23.4C138.9,26.1,130.6,22.6,121.7,22.6z"/>
	</g>
	<path class="st4" d="M138.2,76.3c0,0.1-0.1,0.3-0.3,0.3h-32c-0.1,0-0.3-0.1-0.3-0.3v-4.6c0-0.1,0.1-0.3,0.3-0.3h32
		c0.1,0,0.3,0.1,0.3,0.3V76.3z"/>
	<path class="st4" d="M130.1,70.5c0,0.1-0.1,0.3-0.3,0.3H114c-0.1,0-0.3-0.1-0.3-0.3v-1.8c0-0.1,0.1-0.3,0.3-0.3h15.9
		c0.1,0,0.3,0.1,0.3,0.3V70.5z"/>
	<path class="st5" d="M124.6,65.2c-0.5-1.2-0.6-3.7-0.6-3.7c0-0.1-0.1-0.3-0.3-0.3h-3.6c-0.1,0-0.3,0.1-0.3,0.3c0,0-0.1,2.4-0.7,3.7
		c-0.6,1.2-1.5,1.4-1.5,1.7v0.5c0,0.1,0.1,0.3,0.3,0.3h8.1c0.1,0,0.3-0.1,0.3-0.3v-0.5C126.2,66.6,125.1,66.3,124.6,65.2z"/>
	<path class="st4" d="M125.7,60.4c0,0.2-0.1,0.3-0.3,0.3h-7.1c-0.1,0-0.3-0.1-0.3-0.3v-3.5c0-0.2,0.1-0.3,0.3-0.3h7.1
		c0.1,0,0.3,0.1,0.3,0.3V60.4z"/>
	<path class="st4" d="M124.4,55.7c0,0.1-0.1,0.3-0.3,0.3h-4.3c-0.1,0-0.3-0.1-0.3-0.3V43.5c0-0.1,0.1-0.3,0.3-0.3h4.3
		c0.1,0,0.3,0.1,0.3,0.3V55.7z"/>
	<g>
		<g>
			<path class="st5" d="M153.4,60H150l-6.9-19.8c-0.5-1.2-1.1-1.3-1.1-1.6c0-0.3,0.9-0.5,0.9-1.8c0-1.1-0.5-2.1-2.4-2.1
				c-1.3,0-1.5,1.1-2.3,1.2c-0.8,0.1-13.5-2.7-13.5-2.7l-0.3-1.8c0-0.1-0.1-0.3-0.3-0.3H123c0-0.1,0-0.1,0-0.2v-1
				c0-0.2-0.1-0.3-0.2-0.4c0.6-0.5,0.9-1.5,0.9-2.2c0-1-0.8-1.8-1.8-1.8c-1,0-1.8,0.8-1.8,1.8c0,0.7,0.4,1.6,0.9,2.2
				c-0.1,0.1-0.1,0.2-0.1,0.4v1c0,0.1,0,0.2,0,0.2h-1.2c-0.1,0-0.3,0.1-0.3,0.3l-0.3,1.8c0,0-12.7,2.8-13.5,2.7
				c-0.8-0.1-1.1-1.2-2.3-1.2c-1.9,0-2.4,1-2.4,2.1c0,1.3,0.9,1.6,0.9,1.8c0,0.3-0.5,0.3-1.1,1.6L93.9,60h-3.5
				c-0.1,0-0.3,0.1-0.3,0.3c0,0.2,2.4,4.9,12.3,4.9s13-4.7,13-4.9s-0.1-0.3-0.3-0.3h-3.5l-7.3-19.8c-0.5-1.5,0.7-1.7,1.3-1.8
				c0.9-0.1,13.4,2.4,13.4,2.4l0.4,1.5c0,0.1,0.1,0.3,0.3,0.3h4.2c0.1,0,0.3-0.1,0.3-0.3l0.4-1.5c0,0,12.5-2.5,13.4-2.4
				c0.6,0.1,1.8,0.3,1.3,1.8L132.1,60h-3.5c-0.1,0-0.3,0.1-0.3,0.3s3.1,4.9,13,4.9c9.9,0,12.3-4.7,12.3-4.9
				C153.7,60,153.6,60,153.4,60z M101.8,60h-6.3l6.3-18.1V60z M110,60h-6.9V41.1L110,60z M117.5,38.4c0,0-6.5-0.7-6.5-1.2
				s6.5-1.2,6.5-1.2V38.4z M121.8,39.1c-1.9,0-3.1-2.5-2.3-3.6c1-1.4,1,2,2.3,2c1.3,0,1.1-3.3,2.3-2C125,36.5,123.7,39.1,121.8,39.1
				z M125.8,38.4v-2.4c0,0,6.5,0.7,6.5,1.2S125.8,38.4,125.8,38.4z M140.7,60h-6.9l6.9-18.9V60z M142,60V41.9l6.3,18.1H142z"/>
		</g>
	</g>
	<g>
		<path class="st6" d="M83.8,50.2L83.3,50c0.1-0.6,0.1-1,0-1.3c-0.1-0.1-0.4-0.3-0.8-0.5l-2.5-1l-2.6-1c-0.2-0.1-0.2-0.1-0.3-0.1
			c-0.7-0.2-1.1-0.3-1.2-0.3c-0.1,0-0.3,0.3-0.6,0.8c-0.1,0.1-0.1,0.2-0.2,0.3c-0.1,0-0.2-0.1-0.3-0.1l-0.2-0.1
			c0-0.2,0.1-0.4,0.2-0.6l0.8-2.1c0,0,0-0.1,0.1-0.2l0.1-0.3c0.1,0,0.3-0.1,0.5-0.1c0.4-0.1,1-0.1,1.8-0.2l0.2,0L81,43
			c0.1,0,0.2,0,0.3,0c0.2,0,0.4,0,0.6-0.1c0.2,0,0.4,0,0.6-0.1c0.2,0,0.4,0,0.6-0.1c-0.1-0.1-0.2-0.2-0.3-0.3c-0.4-0.3-0.7-0.7-1-1
			c-0.5-0.5-1.4-1.3-2.6-2.3c-0.2-0.2-0.5-0.4-0.8-0.8c-0.4-0.3-0.6-0.5-0.6-0.6c0-0.1,0-0.1,0-0.3c0,0,0-0.1,0.1-0.2
			c0.1-0.3,0.2-0.6,0.3-0.9c0.2-0.5,0.3-0.9,0.4-1.2c0.1-0.3,0.1-0.5,0.1-0.5c0,0,0-0.1,0.1-0.2c0.1,0,0.1,0,0.2,0l0.2,0.1
			c0,0,0.1,0,0.2,0.1c-0.1,0.5-0.1,0.9-0.1,1.2c0,0.2,0.1,0.4,0.3,0.4l0.1,0l2.2,0.6c0.2,0.1,1.2,0.4,3,0.9c0.4,0.1,0.9,0.3,1.6,0.4
			c0.1,0,0.1,0,0.2,0c0.1,0,0.2,0,0.2,0c0,0,0.3-0.4,0.9-1.2c0.1,0,0.1,0,0.2,0.1c0.1,0,0.2,0.1,0.3,0.1c0,0.1-0.2,0.4-0.4,1
			c-0.2,0.5-0.4,1-0.6,1.4c-0.2,0.7-0.4,1.4-0.6,2.1c0,0.1,0,0.2-0.1,0.3L86,41.9c0-0.2,0-0.5,0.1-0.9c0-0.2,0-0.4,0-0.5
			c-0.1-0.1-0.3-0.2-0.7-0.4c-0.2-0.1-0.3-0.1-0.4-0.1c-0.5-0.1-1.2-0.4-2.1-0.7l-2.6-0.7c-0.4-0.1-0.6-0.2-0.8-0.2l3.5,3.2
			c0.1,0.1,0.2,0.2,0.4,0.3c0.2,0.2,0.3,0.3,0.4,0.4c0.8,0.7,1.4,1.2,1.8,1.5c0.1,0.1,0.2,0.2,0.4,0.3l-0.2,0.6l-1.2,0
			c-0.3,0-0.8,0.1-1.5,0.2c-0.4,0-0.7,0.1-1,0.1c-0.1,0-0.2,0-0.2,0l-0.2,0c0,0-0.1,0-0.1,0l-2.7,0.3l-1.6,0.2l3.4,1.2l2.2,0.8
			c0.4,0.1,0.6,0.1,0.9,0.1c0.2-0.1,0.4-0.3,0.7-0.7l0.2-0.3l0.5,0.2c-0.1,0.3-0.2,0.6-0.4,0.9c-0.1,0.3-0.3,0.7-0.5,1.3
			C84.2,48.9,84,49.4,83.8,50.2z"/>
		<path class="st6" d="M88,37.7l-0.4-0.2c0-0.1,0.1-0.2,0.1-0.4c0.1-0.3,0.1-0.5,0.1-0.6c-0.1-0.1-0.2-0.3-0.4-0.4l-0.6-0.4
			l-1.2-0.7l-0.3-0.2c-0.7-0.5-1-0.7-1-0.7l-0.7-0.4l-0.3-0.2l-0.6-0.3L82.5,33c0,0-0.1,0-0.2-0.1c-0.2,0.1-0.3,0.3-0.6,0.6
			c-0.1,0.1-0.1,0.1-0.1,0.2l-0.5-0.3l1-1.5c0.1-0.2,0.2-0.3,0.2-0.3c0.1-0.2,0.3-0.5,0.6-1c0.1-0.3,0.2-0.4,0.3-0.5
			c0.1,0,0.1,0.1,0.2,0.1c0.1,0,0.1,0.1,0.2,0.2c0,0.2-0.1,0.4-0.2,0.6c-0.1,0.2-0.1,0.4-0.1,0.5c0.1,0.1,0.2,0.2,0.4,0.3
			c0.2,0.1,0.3,0.2,0.4,0.2c0.6,0.4,1,0.7,1.4,0.9l1.4,0.8l0.7,0.5l1.1,0.6l0.2,0.1c0,0,0.1,0,0.1,0c0.2-0.2,0.3-0.4,0.5-0.5
			c0,0,0.1-0.1,0.2-0.3c0.1,0.1,0.2,0.1,0.3,0.1c0,0,0.1,0.1,0.2,0.1c0,0,0,0.1-0.1,0.1c-0.1,0.1-0.1,0.2-0.1,0.2c0,0,0,0.1-0.1,0.1
			c0,0-0.2,0.3-0.5,0.7l-0.6,0.9c-0.1,0.2-0.3,0.5-0.4,0.8C88.2,37.5,88.1,37.6,88,37.7z"/>
		<path class="st6" d="M89.6,34.1c0.1-0.1,0.1-0.3,0.3-0.5c0.1-0.2,0.2-0.3,0.2-0.3c0.1-0.1,0.1-0.2,0.1-0.3
			c-0.1-0.1-0.1-0.1-0.2-0.2l-0.6-0.5l-0.6-0.5l-0.4-0.3L88,31l-0.5-0.4l-1-0.9l-0.5-0.4l-0.1-0.1c-0.4-0.3-0.6-0.4-0.6-0.4
			c-0.1,0-0.2,0-0.4,0.2c0,0-0.1,0.1-0.2,0.1c-0.1,0.1-0.2,0.1-0.2,0.2c-0.1,0.1-0.2,0.1-0.3,0.2c-0.1-0.1-0.2-0.1-0.2-0.1
			c0,0-0.1-0.1-0.1-0.1c0,0,0-0.1,0.1-0.1c0.1-0.1,0.3-0.3,0.7-0.8l0.6-0.7l0.4-0.5c0.2-0.2,0.4-0.5,0.7-0.9
			c0.1-0.1,0.1-0.2,0.1-0.2c0,0,0.1-0.1,0.1-0.1c0.1,0,0.1,0,0.2,0.1c0.1,0.1,0.1,0.1,0.1,0.2c0,0,0,0.1-0.1,0.3l-0.3,0.7
			c0,0,0,0.1,0,0.1c0,0,0,0.1,0,0.1l0.1,0.1l0.3,0.3l0.1,0.1l0.1,0c0,0,0.1,0.1,0.3,0.2c0,0,0.1,0.1,0.1,0.1c0.1,0,0.1,0.1,0.3,0.2
			c0.2,0.1,0.4,0.3,0.5,0.4c0.2,0.1,0.4,0.3,0.6,0.5c0.1,0.1,0.2,0.2,0.3,0.3l2.2,1.9c0.1,0.1,0.2,0.1,0.2,0.1l0.4-0.4l0.2-0.3
			l0.3-0.3c0.4-0.5,0.7-1,0.8-1.4c0.1-0.3,0.1-0.5,0.1-0.6c0-0.2,0-0.4-0.1-0.5c-0.1-0.2-0.2-0.4-0.4-0.7l0.1-0.2
			c0.1-0.1,0.1-0.2,0.2-0.2l0.1,0.1c0.2,0.2,0.6,0.5,1.1,1.1c0.2,0.2,0.3,0.3,0.4,0.4c0,0.1-0.1,0.1-0.1,0.2l-0.1,0.2l-0.2,0.3
			c0,0-0.2,0.2-0.5,0.5c-0.1,0.1-0.3,0.4-0.8,0.9c-0.5,0.5-0.9,1.1-1.3,1.6l-0.8,1c-0.3,0.4-0.6,0.7-0.8,1.1L90,34.4
			c0,0,0,0-0.1,0.1c0,0-0.1,0-0.1-0.1C89.7,34.3,89.6,34.2,89.6,34.1z"/>
		<path class="st6" d="M94,28.6c0.1-0.1,0.2-0.3,0.3-0.4c0.2-0.2,0.3-0.3,0.3-0.3c0.1-0.1,0.2-0.2,0.2-0.3c0-0.1-0.1-0.2-0.1-0.2
			l-0.5-0.6l-0.5-0.6l-0.3-0.4L93,25.3l-0.4-0.5l-0.9-1.1l-0.4-0.5l-0.1-0.1c-0.3-0.3-0.5-0.5-0.5-0.5c0,0-0.2,0-0.4,0.1
			c0,0-0.1,0-0.2,0.1c-0.1,0-0.2,0.1-0.3,0.1c-0.1,0.1-0.2,0.1-0.3,0.1c-0.1-0.1-0.1-0.1-0.2-0.2c0,0-0.1-0.1-0.1-0.1
			c0,0,0-0.1,0.1-0.1c0.1-0.1,0.4-0.3,0.9-0.6l0.7-0.6l0.5-0.4c0.2-0.2,0.5-0.4,0.8-0.7c0.1-0.1,0.1-0.1,0.2-0.2c0,0,0.1-0.1,0.1,0
			c0.1,0,0.1,0.1,0.2,0.2c0.1,0.1,0.1,0.1,0.1,0.2c0,0-0.1,0.1-0.2,0.2l-0.5,0.6c0,0,0,0.1,0,0.1c0,0,0,0.1,0,0.1l0.1,0.1l0.2,0.3
			l0.1,0.1l0,0.1c0,0,0.1,0.1,0.2,0.3c0,0,0.1,0.1,0.1,0.1c0,0.1,0.1,0.1,0.2,0.2c0.2,0.2,0.3,0.3,0.4,0.5c0.1,0.2,0.3,0.4,0.5,0.6
			c0.1,0.1,0.1,0.2,0.3,0.3l1.9,2.3c0.1,0.1,0.1,0.1,0.2,0.1l0.5-0.4L97,26l0.3-0.2c0.5-0.4,0.9-0.8,1.1-1.2
			c0.1-0.3,0.2-0.5,0.2-0.6c0-0.2,0-0.4,0-0.5c0-0.2-0.1-0.4-0.2-0.7l0.2-0.1c0.1-0.1,0.2-0.1,0.3-0.2l0.1,0.1
			c0.2,0.2,0.5,0.6,0.9,1.3c0.2,0.2,0.3,0.4,0.3,0.5c-0.1,0.1-0.1,0.1-0.1,0.1l-0.2,0.1l-0.2,0.2c0,0-0.2,0.2-0.6,0.4
			c-0.1,0-0.4,0.3-0.9,0.7c-0.6,0.4-1.1,0.9-1.6,1.3L95.4,28c-0.4,0.3-0.7,0.6-1,0.9L94.4,29c0,0-0.1,0-0.1,0.1c0,0-0.1-0.1-0.1-0.1
			C94.1,28.8,94,28.7,94,28.6z"/>
		<path class="st6" d="M99.8,24.5l-0.2-0.4c0.1-0.1,0.2-0.2,0.3-0.3c0.2-0.2,0.3-0.4,0.4-0.5c0-0.1-0.1-0.3-0.2-0.5l-0.4-0.6
			L98.9,21l-0.2-0.3c-0.4-0.7-0.6-1.1-0.6-1.1L97.7,19l-0.2-0.3l-0.4-0.6L97,17.9c0,0-0.1-0.1-0.1-0.1c-0.2,0-0.4,0.1-0.8,0.3
			c-0.1,0-0.1,0.1-0.2,0.1l-0.3-0.5l1.5-0.9c0.2-0.1,0.3-0.2,0.4-0.2c0.2-0.1,0.5-0.3,1-0.7c0.2-0.2,0.4-0.3,0.5-0.3
			c0,0.1,0.1,0.1,0.1,0.2c0,0.1,0.1,0.1,0.1,0.2c-0.1,0.1-0.2,0.3-0.4,0.4c-0.2,0.2-0.3,0.3-0.4,0.4c0,0.1,0.1,0.2,0.2,0.4
			c0.1,0.2,0.2,0.3,0.2,0.4c0.4,0.6,0.6,1.1,0.8,1.4l0.9,1.4l0.4,0.7l0.7,1l0.1,0.2c0,0,0.1,0.1,0.1,0.1c0.2-0.1,0.5-0.2,0.6-0.3
			c0,0,0.1-0.1,0.3-0.2c0.1,0.1,0.1,0.2,0.2,0.2c0,0,0.1,0.1,0.1,0.2c0,0-0.1,0.1-0.1,0.1c-0.1,0.1-0.2,0.1-0.2,0.1
			c0,0-0.1,0-0.1,0.1c-0.1,0-0.3,0.1-0.7,0.4l-0.9,0.6c-0.2,0.1-0.4,0.3-0.8,0.6C100,24.4,99.8,24.5,99.8,24.5z"/>
		<path class="st6" d="M101.6,18.5c-0.2-0.5-0.3-1-0.3-1.5c0-0.4,0.1-0.8,0.2-1.2c0.1-0.4,0.3-0.8,0.6-1.1c0.3-0.4,0.6-0.7,0.9-0.9
			c0.3-0.3,0.7-0.5,1.2-0.7c0.8-0.3,1.5-0.5,2.2-0.4c0.7,0.1,1.3,0.3,1.9,0.6c0.7,0.5,1.2,1.1,1.5,1.8c0.4,1.1,0.4,2.2,0,3.2
			c-0.4,1.1-1.3,1.9-2.6,2.4c-0.3,0.1-0.6,0.2-0.9,0.3c-0.2,0.1-0.4,0.1-0.6,0.1c-0.3,0-0.5,0-0.6,0c-0.5-0.1-0.9-0.2-1.3-0.3
			c-0.4-0.1-0.7-0.3-1-0.6c-0.2-0.1-0.4-0.4-0.7-0.8C101.9,19.2,101.7,18.9,101.6,18.5z M104.2,13.7c-0.3,0.1-0.6,0.3-0.8,0.6
			c-0.2,0.3-0.3,0.5-0.4,0.7c-0.1,0.4-0.1,0.8,0,1.2c0.1,0.4,0.2,0.9,0.4,1.4c0.1,0.3,0.2,0.6,0.3,0.7c0,0,0.1,0.1,0.1,0.2
			c0.1,0.3,0.3,0.5,0.4,0.6c0.4,0.4,0.6,0.7,0.7,0.8c0.2,0.1,0.4,0.3,0.7,0.4c0.2,0.1,0.4,0.1,0.6,0.1c0.3,0,0.5-0.1,0.7-0.1
			c0.4-0.2,0.8-0.4,1-0.8c0.3-0.3,0.4-0.8,0.4-1.3c0-0.5-0.1-1.2-0.4-1.9c-0.1-0.3-0.3-0.7-0.6-1.2l-0.1-0.1c0,0-0.1-0.1-0.2-0.2
			c-0.4-0.6-0.9-0.9-1.4-1.1C105.3,13.4,104.8,13.5,104.2,13.7z"/>
		<path class="st6" d="M110.4,11.4l-0.1-0.4l0.5-0.1l0.2,0c0.2,0,0.4-0.1,0.5-0.1c0,0,0.2,0,0.4,0c0.1,0,0.1,0,0.1,0
			c0,0,0.2,0,0.4-0.1c0.2,0,0.3-0.1,0.4-0.1c0,0,0.1,0,0.2,0c0.7,0.5,1.3,0.9,1.7,1.3c0.5,0.4,2.1,1.6,4.9,3.8l0-0.2l-0.1-0.7
			c-0.1-0.4-0.1-0.7-0.2-1c-0.1-0.2-0.1-0.5-0.2-0.9c0-0.3-0.1-0.6-0.2-0.9c-0.1-0.5-0.2-0.8-0.2-0.9c0-0.3-0.1-0.4-0.2-0.5
			c-0.1-0.1-0.3-0.1-0.6-0.1c-0.2,0-0.4,0-0.5-0.1l0-0.4l0.2,0l1.2-0.2l1.3-0.2c0.1,0,0.2,0,0.3,0l0.1,0.4c-0.1,0.1-0.2,0.1-0.3,0.1
			c-0.3,0.1-0.4,0.2-0.4,0.2c-0.2,0.1-0.3,0.2-0.3,0.3c0,0.1,0,0.1,0,0.2c0,0,0,0.1,0,0.3c0,0.1,0,0.2,0.1,0.5
			c0.1,0.6,0.2,1.1,0.2,1.4c0,0.1,0,0.2,0.1,0.4l0.4,2.1c0,0.2,0,0.3,0,0.3l0.1,0.8l0.1,0.3l0,0.3c0,0.2,0.1,0.3,0.1,0.3l0,0.3
			l-0.7,0.1l-0.8-0.7l-1.7-1.3l-1.2-0.9l-0.9-0.7c-0.6-0.4-1.1-0.8-1.5-1.1l-1.1-0.8l0.4,2.3c0,0.1,0,0.3,0.1,0.4l0.1,0.4l0.1,0.8
			c0.1,0.3,0.1,0.7,0.2,1.1c0,0.1,0,0.2,0.1,0.2c0,0,0.1,0.1,0.1,0.2c0.2,0,0.5,0,1.1,0c0,0,0.1,0,0.2,0l0.1,0.5l-0.2,0
			c-0.1,0-0.5,0-1.2,0.1c-0.6,0.1-1.1,0.2-1.3,0.2c-0.2,0-0.3,0.1-0.4,0.1c0,0-0.1,0-0.2,0c0-0.1,0-0.2,0-0.2c0,0,0-0.1,0-0.2
			c0.1,0,0.2-0.1,0.3-0.1c0,0,0.1,0,0.2,0c0.3,0,0.5-0.1,0.6-0.2c0.1-0.1,0.1-0.2,0.1-0.4c-0.1-0.7-0.1-1.1-0.1-1.2l0-0.3l-0.3-2
			l-0.2-1.2c-0.1-0.5-0.1-0.8-0.2-1c0-0.1-0.1-0.2-0.2-0.2c-0.2-0.1-0.3-0.2-0.5-0.3C111.1,11.4,110.8,11.4,110.4,11.4z"/>
		<path class="st6" d="M125.7,16.9c0.1,0,0.2,0,0.5,0c0.5,0,0.8,0,1-0.1c0.1-0.1,0.2-0.2,0.3-0.4c0-0.1,0.2-0.8,0.6-2.2l0.2-0.8
			l0.3-1l0.6-2.5l0.1-0.3c0-0.1,0-0.2,0-0.3c0,0-0.1-0.1-0.3-0.1c-0.1,0-0.3-0.1-0.5-0.1c-0.2,0-0.4-0.1-0.6-0.1c0,0-0.1,0-0.1,0
			l0.2-0.7c0.3,0,0.8,0,1.3,0c0.9,0.1,2.1,0.3,3.4,0.6c1.1,0.3,1.9,0.5,2.3,0.8c0.7,0.4,1.3,0.8,1.7,1.3c0.5,0.7,0.8,1.4,1,2.1
			c0.2,0.7,0.1,1.5-0.1,2.3c-0.3,1-0.7,1.8-1.3,2.4c-0.6,0.6-1.4,1-2.3,1.2c-0.6,0.2-1.5,0.1-2.4-0.1l-1.5-0.4l-0.4-0.1l-0.6-0.1
			l-0.2-0.1l-0.6-0.1l-0.8-0.2c0,0-0.3-0.1-0.8-0.1c-0.2,0-0.4-0.1-0.6-0.1c-0.2,0-0.3-0.1-0.4-0.1
			C125.6,17.4,125.6,17.2,125.7,16.9z M131.4,9.7c0,0.1-0.1,0.3-0.1,0.3l-0.3,1.3l-0.3,1.1c-0.1,0.4-0.2,0.7-0.2,0.9l-0.2,0.7
			l-0.3,1.2l-0.2,0.7c-0.2,0.7-0.2,1.2,0,1.5c0.3,0.4,0.7,0.7,1.4,0.9c0.5,0.1,0.9,0.2,1.1,0.1c0.5-0.1,1-0.2,1.3-0.4
			c0.4-0.2,0.7-0.6,1-1.1c0.3-0.5,0.5-1.1,0.7-1.7c0.3-1,0.3-1.8,0.1-2.5c-0.2-0.7-0.5-1.3-0.9-1.7c-0.5-0.5-1.1-0.8-1.8-1
			C132.2,9.7,131.8,9.6,131.4,9.7z"/>
		<path class="st6" d="M138.5,17c0.3-0.4,0.6-0.8,1-1.2c0.3-0.3,0.7-0.4,1-0.6c0.4-0.1,0.8-0.2,1.3-0.2c0.5,0,0.9,0,1.3,0.1
			c0.4,0.1,0.8,0.3,1.3,0.5c0.7,0.4,1.3,0.9,1.7,1.5c0.4,0.6,0.6,1.2,0.7,1.9c0.1,0.9-0.1,1.6-0.5,2.3c-0.6,1-1.4,1.7-2.5,2
			c-1.1,0.3-2.3,0.2-3.5-0.5c-0.3-0.2-0.6-0.4-0.8-0.5c-0.2-0.1-0.3-0.3-0.5-0.4c-0.2-0.2-0.3-0.4-0.4-0.4c-0.3-0.4-0.5-0.8-0.6-1.2
			c-0.1-0.4-0.2-0.7-0.2-1.1c0-0.2,0.1-0.6,0.2-1.1C138.1,17.7,138.3,17.3,138.5,17z M143.9,16c-0.3-0.2-0.6-0.3-1-0.2
			c-0.3,0-0.6,0.1-0.8,0.2c-0.4,0.2-0.7,0.4-1,0.7c-0.3,0.3-0.6,0.7-0.9,1.2c-0.2,0.3-0.3,0.5-0.3,0.7c0,0,0,0.1-0.1,0.2
			c-0.1,0.3-0.2,0.5-0.2,0.6c-0.1,0.5-0.2,0.9-0.1,1c0,0.2,0.1,0.5,0.2,0.8c0.1,0.2,0.2,0.3,0.3,0.5c0.2,0.2,0.3,0.3,0.5,0.5
			c0.4,0.2,0.8,0.3,1.2,0.3c0.4,0,0.9-0.2,1.3-0.5c0.4-0.3,0.9-0.8,1.3-1.5c0.2-0.3,0.4-0.7,0.6-1.2l0-0.1c0,0,0-0.1,0.1-0.3
			c0.2-0.7,0.2-1.3,0-1.8C144.8,16.8,144.4,16.3,143.9,16z"/>
		<path class="st6" d="M144.6,24.6c0.1,0.1,0.3,0.2,0.5,0.3c0.2,0.1,0.3,0.2,0.3,0.2c0.1,0.1,0.2,0.2,0.3,0.2
			c0.1-0.1,0.1-0.1,0.2-0.2l0.5-0.6L147,24l0.3-0.4l0.4-0.4l0.4-0.5l0.9-1l0.4-0.5l0.1-0.1c0.3-0.3,0.4-0.5,0.4-0.6
			c0-0.1,0-0.2-0.2-0.4c0,0,0-0.1-0.1-0.2c0-0.1-0.1-0.2-0.1-0.2c-0.1-0.1-0.1-0.2-0.1-0.3c0.1-0.1,0.1-0.1,0.2-0.2
			c0,0,0.1-0.1,0.1-0.1c0,0,0.1,0,0.1,0.1c0.1,0.1,0.3,0.3,0.8,0.8l0.7,0.6l0.5,0.4c0.2,0.2,0.5,0.4,0.8,0.7
			c0.1,0.1,0.2,0.1,0.2,0.1c0,0,0.1,0.1,0.1,0.1c0,0.1,0,0.1-0.1,0.2c-0.1,0.1-0.1,0.1-0.2,0.1c0,0-0.1,0-0.3-0.1l-0.7-0.4
			c0,0-0.1,0-0.1,0c0,0-0.1,0-0.1,0l-0.1,0.1l-0.3,0.3l-0.1,0.1l0,0.1c0,0-0.1,0.1-0.2,0.2c0,0-0.1,0.1-0.1,0.1c0,0-0.1,0.1-0.2,0.3
			c-0.2,0.2-0.3,0.4-0.4,0.5c-0.1,0.2-0.3,0.3-0.5,0.5c-0.1,0.1-0.2,0.2-0.3,0.3l-2,2.2c-0.1,0.1-0.1,0.2-0.1,0.2l0.4,0.4l0.3,0.2
			l0.3,0.3c0.5,0.4,0.9,0.7,1.3,0.9c0.3,0.1,0.5,0.1,0.6,0.1c0.2,0,0.4,0,0.5-0.1c0.2,0,0.4-0.2,0.7-0.3l0.1,0.1
			c0.1,0.1,0.2,0.1,0.2,0.2l-0.1,0.1c-0.2,0.2-0.6,0.6-1.1,1.1c-0.2,0.2-0.4,0.3-0.4,0.3c-0.1-0.1-0.1-0.1-0.2-0.1l-0.2-0.2
			l-0.2-0.2c0,0-0.2-0.2-0.5-0.5c-0.1-0.1-0.3-0.3-0.9-0.8c-0.5-0.5-1-1-1.5-1.4l-1-0.8c-0.4-0.3-0.7-0.6-1.1-0.9l-0.1-0.1
			c0,0,0,0-0.1-0.1c0,0,0-0.1,0.1-0.1C144.4,24.7,144.5,24.7,144.6,24.6z"/>
		<path class="st6" d="M150,29.4c0.1,0.1,0.2,0.2,0.4,0.4c0.2,0.2,0.3,0.3,0.3,0.3c0.1,0.1,0.2,0.2,0.3,0.2c0.1,0,0.2-0.1,0.2-0.1
			l0.6-0.5l0.7-0.5l0.4-0.3l0.5-0.4l0.5-0.4l1.1-0.8l0.5-0.4l0.1-0.1c0.3-0.3,0.5-0.5,0.5-0.5c0,0,0-0.2-0.1-0.4c0,0,0-0.1-0.1-0.2
			c0-0.1-0.1-0.2-0.1-0.3c-0.1-0.1-0.1-0.2-0.1-0.3c0.1-0.1,0.1-0.1,0.2-0.2c0,0,0.1,0,0.1-0.1c0,0,0.1,0,0.1,0.1
			c0.1,0.1,0.3,0.4,0.6,0.9l0.5,0.7l0.4,0.5c0.2,0.2,0.4,0.5,0.7,0.8c0.1,0.1,0.1,0.2,0.2,0.2c0,0,0.1,0.1,0,0.1
			c0,0.1-0.1,0.1-0.2,0.2c-0.1,0.1-0.1,0.1-0.2,0.1c0,0-0.1-0.1-0.2-0.2l-0.6-0.5c0,0-0.1,0-0.1-0.1c0,0-0.1,0-0.1,0l-0.1,0.1
			l-0.3,0.2l-0.1,0.1l-0.1,0c0,0-0.1,0.1-0.3,0.2c0,0-0.1,0.1-0.1,0.1c-0.1,0-0.1,0.1-0.3,0.2c-0.2,0.2-0.4,0.3-0.5,0.4
			c-0.2,0.1-0.4,0.3-0.6,0.4c-0.1,0.1-0.2,0.1-0.3,0.2l-2.3,1.8c-0.1,0.1-0.1,0.1-0.2,0.2l0.3,0.5l0.2,0.3l0.2,0.3
			c0.4,0.5,0.8,0.9,1.1,1.1c0.3,0.2,0.5,0.2,0.6,0.2c0.2,0,0.4,0,0.5,0c0.2,0,0.4-0.1,0.7-0.2l0.1,0.2c0.1,0.1,0.1,0.2,0.2,0.3
			l-0.1,0.1c-0.2,0.2-0.7,0.5-1.3,0.9c-0.3,0.2-0.4,0.2-0.5,0.3c-0.1-0.1-0.1-0.1-0.1-0.1l-0.1-0.2l-0.2-0.3c0,0-0.2-0.2-0.4-0.6
			c0-0.1-0.3-0.4-0.7-1c-0.4-0.6-0.8-1.1-1.2-1.7l-0.8-1c-0.3-0.4-0.6-0.7-0.9-1l-0.1-0.1c0,0,0-0.1-0.1-0.1c0,0,0.1-0.1,0.1-0.1
			C149.8,29.5,149.9,29.4,150,29.4z"/>
		<path class="st6" d="M153.7,34.9l0.4-0.2c0.1,0.1,0.1,0.2,0.3,0.3c0.2,0.3,0.3,0.4,0.4,0.4c0.1,0,0.2,0.1,0.4,0.1l3.5-0.4l4.1-0.4
			c0.1,0.1,0.1,0.2,0.2,0.4l0.1,0.3l-0.1,0.1l-1.8,2.1c-0.4,0.5-0.7,0.9-1.1,1.3c-0.4,0.4-0.7,0.7-0.9,1c-0.1,0.2-0.3,0.4-0.6,0.7
			c-0.2,0.2-0.3,0.4-0.6,0.7c-0.1,0.2-0.2,0.3-0.2,0.3c0,0.1,0,0.2,0.1,0.4c0.1,0.2,0.1,0.3,0.1,0.5c-0.1,0.1-0.2,0.1-0.3,0.2
			c0,0-0.1,0-0.1,0.1c-0.1-0.3-0.3-0.6-0.4-0.9c-0.1-0.3-0.3-0.6-0.4-0.9c-0.1-0.3-0.3-0.5-0.3-0.6l-0.5-0.9l-0.1-0.3
			c0.1-0.1,0.3-0.1,0.4-0.2l0.4,0.5c0.1,0.2,0.2,0.2,0.3,0.3c0.1,0,0.1,0,0.2,0c0,0,0.1-0.1,0.1-0.1l0.4-0.5l0.9-1l-1.1-2.1
			c-0.2,0-0.7,0.1-1.5,0.2c-0.2,0-0.4,0.1-0.5,0.1c-0.1,0-0.2,0.1-0.2,0.2c0,0.1,0,0.3,0.1,0.6c0,0,0.1,0.2,0.1,0.4
			c-0.1,0.1-0.2,0.1-0.3,0.1c0,0-0.1,0-0.1,0.1c-0.1-0.2-0.4-0.8-0.7-1.7l-0.2-0.2C154.1,35.5,153.9,35.3,153.7,34.9L153.7,34.9z
			 M158.1,35.9c0.4,0.9,0.7,1.4,0.8,1.5l0.1,0.1c0.3-0.3,0.6-0.6,0.9-1c0.3-0.4,0.6-0.7,0.8-0.9L158.1,35.9z"/>
		<path class="st6" d="M157.8,42.1c0.1,0.1,0.2,0.2,0.2,0.4c0.1,0.2,0.2,0.4,0.3,0.5c0.1,0,0.1,0,0.2,0c0.1,0,0.2-0.1,0.6-0.1
			l1.3-0.4l0.7-0.2l0.6-0.2l0.3-0.1c0.4-0.1,0.8-0.2,1.2-0.3c0.8-0.2,1.4-0.4,1.6-0.5l0-0.4c-0.1-0.3-0.1-0.5-0.1-0.7l0.4-0.1l0.1,0
			c0.1,0.2,0.2,0.4,0.2,0.5c0,0.1,0.1,0.3,0.2,0.6c0.1,0.3,0.1,0.5,0.1,0.5l0.1,0.3l0.2,0.7c0.2,0.5,0.3,0.9,0.5,1.5
			c0.2,0.8,0.2,1.5-0.1,2.1c-0.3,0.6-0.7,1-1.2,1.1c-0.4,0.1-0.8,0.1-1.2-0.1c-0.4-0.2-0.8-0.5-1.1-1c-0.1,0.1-0.2,0.2-0.2,0.3
			c-0.2,0.2-0.4,0.4-0.5,0.6l-1.3,1.4c-0.3,0.4-0.5,0.6-0.6,0.7c0,0.1-0.1,0.3-0.1,0.5c0,0.2,0,0.4-0.1,0.5c-0.1,0-0.1,0.1-0.2,0.1
			c0,0-0.1,0-0.1,0l0-0.2l0-0.1l0-0.3l-0.1-0.2c0-0.1,0-0.3-0.1-0.5l-0.2-0.6c0,0-0.1-0.2-0.2-0.4c0-0.1-0.1-0.2-0.1-0.2l0.3-0.3
			c0.3-0.2,0.4-0.4,0.6-0.5c0.3-0.3,0.9-0.7,1.6-1.4c0.3-0.3,0.5-0.5,0.5-0.6c0.1-0.1,0-0.4,0-0.6c0-0.1-0.1-0.2-0.1-0.4
			c-0.1,0-0.3,0.1-0.4,0.1l-1.3,0.4l-1.1,0.3c0,0.1,0,0.3,0,0.5c0,0.3,0,0.6,0,0.9c-0.2,0.1-0.3,0.1-0.4,0.1c0-0.1,0-0.1,0-0.1
			l-0.1-0.2c-0.2-0.9-0.3-1.4-0.3-1.6c0-0.1-0.1-0.2-0.1-0.2l-0.3-0.8c-0.1-0.2-0.2-0.5-0.2-0.7l-0.1-0.3c0.1,0,0.2-0.1,0.2-0.1
			C157.6,42.1,157.7,42.1,157.8,42.1z M162.3,43.7c0,0.2,0.1,0.3,0.1,0.4c0.2,0.7,0.4,1.1,0.8,1.3c0.3,0.2,0.7,0.3,1.1,0.2
			c0.3-0.1,0.5-0.2,0.7-0.3c0.2-0.1,0.3-0.3,0.4-0.4c0.1-0.2,0.2-0.4,0.2-0.7c0-0.2,0-0.5-0.1-0.9c0-0.2-0.1-0.3-0.2-0.5l-0.1,0
			l-0.8,0.2l-0.5,0.1l-0.6,0.2c-0.2,0-0.4,0.1-0.7,0.2L162.3,43.7z"/>
	</g>
	<g>
		<path class="st6" d="M75.2,59.3l0.5-0.1c0,0.1,0.1,0.2,0.2,0.5c0.2,0.4,0.3,0.6,0.3,0.7c0.1,0.1,0.2,0.1,0.5,0.2l4.2,0.7l5,0.8
			c0,0.2,0.1,0.3,0.1,0.5l0.1,0.3L86,63l-2.8,1.9c-0.6,0.4-1.2,0.8-1.7,1.2c-0.6,0.4-1,0.7-1.4,0.9c-0.2,0.1-0.5,0.4-1,0.6
			c-0.2,0.1-0.5,0.3-0.9,0.6c-0.2,0.1-0.3,0.2-0.3,0.3c-0.1,0.1-0.1,0.3-0.1,0.5c0,0.2,0,0.4,0,0.7c-0.2,0.1-0.3,0.1-0.4,0.1
			c0,0-0.1,0-0.2,0c-0.1-0.4-0.1-0.8-0.2-1.2c-0.1-0.4-0.1-0.9-0.2-1.2c-0.1-0.4-0.1-0.7-0.2-0.8l-0.3-1.3l-0.1-0.4
			c0.2,0,0.3-0.1,0.5-0.1l0.3,0.8c0.1,0.2,0.2,0.4,0.2,0.4c0.1,0,0.1,0.1,0.2,0c0.1,0,0.1,0,0.2-0.1l0.7-0.4l1.3-0.9l-0.6-2.8
			c-0.3-0.1-0.9-0.2-1.9-0.3c-0.3,0-0.5-0.1-0.6,0c-0.1,0-0.2,0.1-0.3,0.2c-0.1,0.1-0.1,0.4-0.1,0.7c0,0,0,0.2,0,0.5
			c-0.2,0-0.3,0.1-0.4,0.1c-0.1,0-0.1,0-0.2,0c-0.1-0.3-0.2-1.1-0.3-2.2l-0.1-0.3c-0.1-0.4-0.2-0.7-0.3-1L75.2,59.3z M80.1,62
			c0.2,1.2,0.3,1.9,0.4,2.1l0,0.2c0.4-0.2,0.9-0.5,1.4-0.9c0.5-0.4,1-0.6,1.2-0.8L80.1,62z"/>
		<path class="st6" d="M77.7,69.8c0,0,0.1,0.2,0.2,0.3c0.2,0.3,0.4,0.5,0.5,0.6c0.1,0,0.2,0,0.4,0c0,0,0.6-0.3,1.7-0.7l0.6-0.3
			l0.8-0.3l1.9-0.9l0.2-0.1c0.1,0,0.2-0.1,0.2-0.2c0,0,0-0.1-0.1-0.2c0-0.1-0.1-0.2-0.2-0.3c-0.1-0.2-0.2-0.3-0.2-0.4
			c0,0,0-0.1-0.1-0.1l0.5-0.2c0.2,0.2,0.4,0.5,0.6,0.9c0.4,0.6,0.8,1.5,1.3,2.5c0.4,0.8,0.6,1.5,0.7,1.9c0.1,0.7,0.1,1.2,0,1.7
			c-0.2,0.7-0.5,1.2-0.9,1.7c-0.4,0.5-0.9,0.8-1.5,1.1c-0.8,0.3-1.5,0.5-2.2,0.4c-0.7-0.1-1.3-0.4-1.9-0.9c-0.4-0.3-0.8-0.9-1.1-1.6
			l-0.5-1.2L78.7,73l-0.2-0.5l0-0.1l-0.2-0.5l-0.3-0.6c0,0-0.1-0.2-0.3-0.6c-0.1-0.1-0.1-0.3-0.2-0.5c-0.1-0.1-0.1-0.2-0.1-0.3
			C77.4,70,77.5,69.9,77.7,69.8z M85.2,69.8c-0.1,0-0.2,0.1-0.3,0.1l-1,0.4l-0.8,0.4c-0.3,0.1-0.5,0.2-0.7,0.3L82,71.2l-0.9,0.4
			l-0.6,0.2c-0.5,0.2-0.8,0.5-0.9,0.8c-0.1,0.4-0.1,0.8,0.1,1.3c0.2,0.4,0.3,0.6,0.5,0.8c0.3,0.3,0.6,0.5,1,0.6
			c0.3,0.1,0.7,0.1,1.2,0c0.5-0.1,1-0.2,1.4-0.4c0.8-0.3,1.3-0.7,1.7-1.2c0.4-0.5,0.6-0.9,0.6-1.5c0.1-0.5,0-1.1-0.3-1.6
			C85.7,70.3,85.5,70,85.2,69.8z"/>
		<path class="st6" d="M87.3,74l0.4-0.3c0.1,0.2,0.2,0.3,0.2,0.3c0.2,0.4,0.6,1,1.1,1.7c0.1,0.1,0.2,0.3,0.5,0.6
			c0.2,0.2,0.3,0.4,0.4,0.5l0.3,0.4c-0.2,0.2-0.4,0.3-0.4,0.3c-0.3-0.3-0.4-0.5-0.5-0.5c-0.1-0.1-0.3-0.2-0.4-0.2
			c-0.1,0-0.1,0-0.2,0c0,0-0.1,0.1-0.1,0.1l-0.3,0.5c-0.3,0.4-0.6,0.9-1,1.6l-0.9,1.5c-0.2,0.3-0.3,0.6-0.5,0.8l0.9-0.2l2.1-0.6
			l0.5-0.1c0.1,0,0.1,0,0.3-0.1c0.4-0.1,0.6-0.2,0.8-0.3c0.2,0,0.3-0.1,0.4-0.2c0.1,0,0.1-0.1,0.1-0.2c0-0.1-0.1-0.3-0.2-0.6
			c0-0.1-0.1-0.1-0.1-0.2c0-0.1-0.1-0.2-0.1-0.2c0.1-0.1,0.1-0.1,0.1-0.1c0,0,0.1-0.1,0.2-0.1c0,0.1,0.2,0.2,0.3,0.6
			c0.2,0.3,0.4,0.6,0.5,0.9c0.2,0.3,0.4,0.5,0.5,0.7c0.2,0.2,0.3,0.3,0.4,0.5L92.6,81c0,0-0.1,0.1-0.2,0.1c-0.5-0.3-0.7-0.5-0.9-0.5
			c-0.1,0-0.2,0-0.3,0c-0.3,0-0.9,0.2-1.8,0.4l-2.1,0.5c-0.2,0.1-0.4,0.1-0.7,0.2c-0.2,0.1-0.5,0.1-0.8,0.2c-0.1,0-0.3,0.1-0.8,0.2
			l-0.1,0c-0.6,0.2-1,0.3-1.2,0.4c-0.1-0.1-0.2-0.2-0.2-0.2c0-0.1-0.1-0.2-0.2-0.3c0.1-0.1,0.2-0.2,0.2-0.3c0.1-0.1,0.3-0.5,0.8-1.2
			l1.5-2.5l1-1.5c0.4-0.7,0.6-1.1,0.7-1.2c0-0.1,0.1-0.2,0-0.3c0-0.1-0.1-0.3-0.2-0.5L87.3,74z"/>
		<path class="st6" d="M89.2,82.8c0.4-0.4,0.8-0.7,1.3-0.9c0.4-0.2,0.7-0.3,1.1-0.3c0.4,0,0.8,0,1.3,0.1c0.4,0.1,0.9,0.2,1.2,0.5
			c0.4,0.2,0.7,0.5,1.1,0.8c0.6,0.6,1,1.2,1.3,1.9c0.2,0.7,0.3,1.3,0.2,2c-0.2,0.8-0.5,1.5-1,2.1c-0.8,0.8-1.8,1.3-2.9,1.3
			c-1.1,0.1-2.2-0.4-3.3-1.4c-0.3-0.2-0.5-0.5-0.7-0.7c-0.1-0.2-0.3-0.4-0.3-0.5c-0.2-0.3-0.2-0.5-0.3-0.5c-0.1-0.5-0.2-0.9-0.2-1.3
			c0-0.4,0-0.8,0.1-1.1c0.1-0.2,0.2-0.5,0.5-1C88.7,83.4,89,83.2,89.2,82.8z M94.7,83.3c-0.3-0.2-0.5-0.4-0.9-0.5
			c-0.3-0.1-0.6-0.1-0.8,0c-0.4,0.1-0.8,0.2-1.1,0.5c-0.4,0.2-0.7,0.5-1.1,1c-0.2,0.3-0.4,0.4-0.5,0.6c0,0-0.1,0.1-0.1,0.2
			c-0.2,0.2-0.3,0.4-0.4,0.6c-0.2,0.5-0.4,0.8-0.4,1c-0.1,0.2-0.1,0.5,0,0.8c0,0.2,0.1,0.4,0.2,0.6c0.1,0.2,0.2,0.4,0.4,0.6
			c0.3,0.3,0.7,0.5,1.1,0.6c0.4,0.1,0.9,0.1,1.4-0.1c0.5-0.2,1-0.6,1.6-1.2c0.2-0.2,0.5-0.6,0.9-1l0.1-0.1c0,0,0.1-0.1,0.1-0.2
			c0.4-0.6,0.5-1.2,0.4-1.7C95.4,84.2,95.1,83.7,94.7,83.3z"/>
		<path class="st6" d="M104.3,89.9c0,0.1-0.1,0.5-0.3,1.1c-0.1,0.3-0.2,0.5-0.3,0.8l-0.5-0.3c0-0.7-0.2-1.2-0.4-1.7
			c-0.2-0.4-0.6-0.8-1-1.1c-0.5-0.3-1.1-0.4-1.7-0.2c-0.8,0.3-1.5,1-2.2,2c-0.4,0.6-0.6,1-0.7,1.3c-0.1,0.5-0.2,0.9-0.1,1.3
			c0,0.3,0.1,0.6,0.3,0.8c0.2,0.3,0.5,0.6,0.8,0.8c0.4,0.2,0.8,0.3,1.3,0.3c0.5,0,1.1-0.2,1.7-0.4c0.1,0.1,0.3,0.1,0.5,0.3
			c-0.1,0.1-0.2,0.2-0.3,0.4c0,0-0.2,0.2-0.5,0.6l-0.1,0.1l-0.2,0.2c-0.3,0-0.7,0-1.1-0.2C99,96,98.5,95.7,98,95.4
			c-0.4-0.3-0.8-0.6-1.1-0.9c-0.3-0.3-0.6-0.6-0.7-1c-0.2-0.5-0.4-1-0.4-1.4c0-0.4,0-0.9,0.1-1.3c0.1-0.4,0.3-0.8,0.6-1.3
			c0.6-1,1.5-1.7,2.6-2c1.1-0.3,2.2-0.1,3.3,0.6c0.4,0.3,0.8,0.5,1.2,0.8C103.7,89.3,104,89.6,104.3,89.9z"/>
		<path class="st6" d="M101,97.1l0.2-0.4c0.1,0,0.2,0,0.4,0.1c0.3,0.1,0.5,0.1,0.6,0.1c0.1,0,0.2-0.1,0.4-0.2l2.3-2.6l2.7-3.1
			c0.1,0,0.2,0.1,0.4,0.1l0.3,0.1l0,0.1l0.1,2.8c0,0.6,0,1.2,0,1.7c0,0.5,0,1,0,1.3c0,0.2,0,0.5,0,0.9c0,0.2,0,0.5,0,0.9
			c0,0.2,0,0.3,0.1,0.3c0,0.1,0.1,0.2,0.3,0.2c0.1,0.1,0.3,0.2,0.5,0.3c0,0.1-0.1,0.2-0.1,0.3c0,0,0,0.1-0.1,0.1
			c-0.3-0.1-0.6-0.2-0.9-0.4c-0.3-0.2-0.6-0.3-0.9-0.4c-0.3-0.1-0.5-0.2-0.7-0.2l-1-0.3l-0.3-0.1c0.1-0.1,0.1-0.3,0.2-0.4l0.7,0.1
			c0.2,0,0.3,0,0.4,0c0.1,0,0.1-0.1,0.1-0.1c0,0,0-0.1,0-0.2l0-0.7l0-1.3l-2.2-0.8c-0.2,0.2-0.5,0.5-1,1.2c-0.2,0.2-0.2,0.3-0.3,0.4
			c0,0.1,0,0.2,0,0.2c0.1,0.1,0.2,0.2,0.4,0.4c0,0,0.2,0.1,0.4,0.2c0,0.1-0.1,0.2-0.1,0.3c0,0,0,0.1-0.1,0.1
			c-0.2-0.1-0.8-0.3-1.7-0.8l-0.3-0.1c-0.3-0.1-0.6-0.1-0.8-0.2L101,97.1z M105,94.9c0.9,0.4,1.4,0.6,1.6,0.6l0.1,0
			c0-0.4,0-0.8,0-1.4c0-0.5,0-0.9-0.1-1.2L105,94.9z"/>
		<path class="st6" d="M110.5,92.3l0.4,0.1c0,0.1,0,0.1,0,0.1c0.1,0.2,0.1,0.4,0.2,0.4c0.1,0,0.3,0.1,0.8,0.2
			c0.3,0.1,0.6,0.1,0.8,0.1l0.1,0l0.7,0.1l1.4,0.3l1.9,0.3l0.4,0c0.1,0,0.1-0.1,0.2-0.3c0,0,0.1-0.1,0.1-0.1l0.3,0c0,0,0.1,0,0.2,0
			c0,0.3-0.1,0.7-0.2,1.3l-0.1,0.5l-0.1,0.3c0,0.1,0,0.2-0.1,0.3c-0.2,0-0.3,0-0.5,0c-0.1-0.2-0.2-0.4-0.2-0.7
			c-0.1-0.3-0.1-0.5-0.1-0.5c0-0.1-0.1-0.1-0.2-0.1c-0.1,0-0.5-0.1-1.3-0.3c-0.1,0-0.3,0-0.4-0.1c0,0.2-0.1,0.3-0.1,0.4l-0.1,0.8
			l-0.3,1.8l-0.3,1.9l-0.1,0.8c0,0.3-0.1,0.5,0,0.6c0.1,0,0.2,0.1,0.3,0.1c0,0,0.2,0.1,0.4,0.2c0.1,0.1,0.2,0.1,0.3,0.2
			c0,0.1,0,0.2,0,0.3c0,0,0,0.1,0,0.2c-0.1,0-0.2,0-0.2,0c-0.4-0.1-0.8-0.2-1.1-0.2s-0.8-0.2-1.6-0.3c-0.1,0-0.5-0.1-1.1-0.1
			c-0.2,0-0.4,0-0.5-0.1c0-0.1,0-0.1,0-0.1l0-0.1l0,0c0.1-0.1,0.3-0.2,0.6-0.2c0.4,0,0.7-0.1,0.9-0.1c0.1-0.1,0.1-0.2,0.1-0.3
			c0.1-0.5,0.3-1.3,0.5-2.3l0.4-2.3c0.1-0.6,0.2-1,0.2-1.2c0,0,0-0.1,0-0.1c0,0,0,0-0.1,0c-0.1,0-0.5-0.1-1.2-0.2
			c-0.4-0.1-0.6-0.1-0.8,0c-0.2,0.1-0.5,0.3-0.9,0.7c-0.1,0.1-0.2,0.2-0.3,0.2c-0.2-0.1-0.3-0.2-0.3-0.3c0.2-0.2,0.4-0.7,0.8-1.5
			C110.4,92.5,110.5,92.3,110.5,92.3z"/>
		<path class="st6" d="M118.1,93.8c0.2,0,0.4,0,0.6,0c0.3,0,0.7,0.1,1.1,0c0.1,0,0.5,0,1.1-0.1c0.9-0.1,1.7-0.1,2.5-0.1l1.1,0
			c0.3,0,0.6,0,1.1,0.1c0.1,0.1,0.1,0.2,0.1,0.3l0,1.3l0,0.3c0,0,0,0.1,0,0.1l-0.3,0c0,0-0.1,0-0.2,0c0-0.1-0.1-0.2-0.2-0.4
			l-0.3-0.4c-0.1-0.2-0.2-0.4-0.4-0.6c-0.1,0-0.2,0-0.4,0c0,0-0.2,0-0.4,0c-0.4,0-0.8,0-1.2,0c-0.5,0-1,0-1.3,0.1c0,0.1,0,0.5,0,1.2
			l0,1l0,0.8c0.1,0,0.2,0,0.3,0c0.7,0,1.3,0,1.6-0.1c0.3,0,0.5-0.1,0.6-0.1c0.1-0.1,0.1-0.1,0.2-0.3c0-0.1,0.1-0.4,0.2-0.9l0.1,0
			l0.4,0c0,0.4,0,0.6,0,0.8c0,0.4,0,0.7,0,0.8c0,0.1,0,0.2,0,0.3c0,0.1,0,0.3,0,0.5c0,0.2,0,0.4,0,0.5l0,0.1l-0.4,0
			c0-0.1-0.1-0.2-0.1-0.4c-0.1-0.4-0.2-0.6-0.2-0.7c-0.1-0.1-0.1-0.1-0.3-0.2c-0.1,0-0.4,0-0.9,0c-0.6,0-1.1,0-1.4,0.1
			c0,0.1,0,0.2,0,0.2c0,0.5,0,0.9,0,1.2l0,1.3c0,0.2,0.1,0.3,0.2,0.3c0.2,0.1,0.7,0.1,1.6,0.1c0.6,0,1.1-0.1,1.5-0.2
			c0.3-0.1,0.5-0.2,0.7-0.4c0.3-0.3,0.5-0.7,0.7-1.2c0.1,0,0.2,0,0.3,0c0,0,0.1,0,0.2,0c0,0.1,0,0.2,0,0.3l0,0.2l-0.2,1.2l-0.1,0.7
			c-0.3,0-0.5,0-0.6,0c-0.2,0-0.8,0-1.8,0c-0.7,0-1.6,0-2.5,0c-0.5,0-1.1,0-1.8,0.1l-0.3,0l-0.7,0l0-0.4c0.1,0,0.2,0,0.5-0.1
			c0.4-0.1,0.7-0.1,0.9-0.2c0-0.1,0.1-0.3,0.1-0.5c0-0.1,0-0.2,0-0.4l0-0.2l-0.1-2.3l0-0.7l-0.1-1l0-0.7l-0.1-0.8c0,0,0-0.1,0-0.1
			c0,0-0.1-0.1-0.2-0.1c0,0-0.1,0-0.2,0c-0.2,0-0.5-0.1-0.7-0.1c-0.1,0-0.2,0-0.3,0L118.1,93.8z"/>
		<path class="st6" d="M130.6,93.2c0.1,0.1,0.1,0.3,0.2,0.6c0.1,0.4,0.2,0.7,0.3,1c0,0.1,0,0.2,0,0.2l-0.1,0l-0.4,0.1l-0.1,0
			c-0.3-0.5-0.5-0.8-0.7-1c-0.4-0.3-0.8-0.4-1.2-0.3c-0.4,0.1-0.7,0.2-0.9,0.5c-0.2,0.3-0.3,0.5-0.2,0.8c0,0.3,0.2,0.5,0.5,0.7
			c0.3,0.2,0.8,0.3,1.6,0.4c0.3,0,0.6,0.1,1,0.2c0.4,0.1,0.7,0.2,0.9,0.4c0.3,0.2,0.5,0.4,0.6,0.6c0.1,0.2,0.2,0.5,0.3,0.8
			c0.1,0.4,0.1,0.8,0,1.2c0,0.2-0.1,0.4-0.3,0.6c-0.1,0.1-0.3,0.3-0.5,0.5c-0.2,0.2-0.5,0.4-0.7,0.5c-0.3,0.1-0.6,0.2-1,0.3
			c-0.3,0.1-0.6,0.1-1,0.1l-0.8-0.1c-0.2,0-0.4,0-0.4-0.1c0,0,0,0-0.1-0.1l0-0.1c0,0-0.1-0.3-0.2-0.8c-0.1-0.3-0.1-0.4-0.1-0.6
			l0-0.2l0.6-0.1c0.3,0.4,0.5,0.7,0.5,0.7c0.2,0.2,0.3,0.3,0.5,0.4c0.2,0.1,0.4,0.2,0.6,0.2c0.2,0,0.5,0,0.7,0
			c0.2,0,0.5-0.1,0.7-0.3c0.2-0.1,0.4-0.3,0.5-0.6c0.1-0.2,0.2-0.5,0.1-0.7c-0.1-0.3-0.2-0.6-0.6-0.8c-0.2-0.1-0.7-0.3-1.5-0.4
			c-0.8-0.1-1.4-0.3-1.7-0.4c-0.3-0.2-0.6-0.4-0.8-0.7c-0.2-0.3-0.4-0.6-0.4-1c-0.1-0.6,0-1.2,0.4-1.8c0.4-0.5,1-0.9,1.9-1.1
			c0.2,0,0.5-0.1,0.9-0.1C129.9,93.1,130.2,93.1,130.6,93.2z"/>
		<path class="st6" d="M137.3,99.2l-0.2-0.5c0.1-0.1,0.2-0.2,0.5-0.3c0.2-0.2,0.4-0.3,0.6-0.5l0.1-0.1c0-0.2-0.1-0.4-0.2-0.6l0,0
			l-0.8-1.6l-0.3-0.7l-0.5-1l-0.5-1.2l-1.2-2.3c-0.1,0-0.4,0-0.8,0.1c-0.1,0-0.3,0.1-0.5,0.1l-0.2,0l-0.2-0.5l0.9-0.4
			c0.6-0.2,1.4-0.6,2.5-1.1c0.5-0.3,1.1-0.5,1.7-0.8l0.1-0.1l0.3-0.2l0.1-0.1l0.3-0.1l1.2-0.6c0.1,0,0.1-0.1,0.2-0.1
			c0.1-0.1,0.2-0.1,0.2-0.1c0.1,0.1,0.2,0.3,0.2,0.4l0.7,1.2c0.1,0.1,0.1,0.2,0.1,0.3c-0.2,0.1-0.3,0.2-0.3,0.2
			c-0.1,0-0.2,0.1-0.2,0c0,0-0.1-0.1-0.3-0.2c-0.4-0.4-0.7-0.6-0.9-0.6c-0.2,0-0.6,0.1-1.2,0.4l-0.9,0.5c-0.4,0.2-0.7,0.4-0.9,0.5
			c0,0-0.1,0.1-0.2,0.2c0,0.1,0,0.3,0.1,0.4l0.4,0.8l0.4,0.9c0.2,0.5,0.4,0.8,0.5,0.9c0.1,0,0.1,0,0.1,0l0.5-0.2l0.8-0.4
			c0.2-0.1,0.5-0.2,0.8-0.5c0.2-0.2,0.4-0.3,0.4-0.3c0.1-0.1,0.1-0.3,0.1-0.4c0-0.1-0.1-0.4-0.3-0.9c0,0,0.1,0,0.2-0.1
			c0.1,0,0.1-0.1,0.1-0.1c0.1,0,0.2-0.1,0.3-0.1l0.5,1.1c0.1,0.2,0.2,0.4,0.3,0.6l0.1,0.1c0,0,0.2,0.4,0.5,1c0,0,0,0.1,0.1,0.2
			c-0.1,0.1-0.1,0.1-0.2,0.1c0,0-0.1,0-0.3,0.1c-0.1-0.1-0.2-0.2-0.3-0.3c-0.3-0.3-0.5-0.5-0.6-0.5c-0.3,0-1,0.3-2.2,0.8
			c-0.2,0.1-0.4,0.2-0.6,0.3c0.1,0.2,0.1,0.4,0.3,0.7l1,2.1c0.2,0.4,0.3,0.6,0.5,0.6c0.1,0,0.3,0,0.6-0.1l0.1-0.1
			c0.2-0.1,0.4-0.1,0.6-0.2l0.2,0c0.1,0.1,0.1,0.2,0.2,0.3c0,0.1,0.1,0.2,0.1,0.3l-0.1,0.1l-0.2,0.1l-1,0.4c-0.1,0-0.6,0.3-1.5,0.7
			c-0.3,0.1-0.5,0.2-0.7,0.4c-0.3,0.2-0.5,0.3-0.6,0.3C137.6,99.1,137.4,99.2,137.3,99.2z"/>
		<path class="st6" d="M143.5,91.8c-0.3-0.4-0.5-0.9-0.7-1.4c-0.1-0.4-0.2-0.8-0.1-1.2c0-0.4,0.1-0.8,0.3-1.2
			c0.2-0.4,0.4-0.8,0.6-1.1c0.3-0.3,0.6-0.6,1-1c0.7-0.5,1.4-0.8,2.1-1c0.7-0.1,1.4-0.1,2,0.1c0.8,0.3,1.4,0.7,1.9,1.4
			c0.7,0.9,1,2,0.9,3.1c-0.1,1.1-0.8,2.1-1.9,3c-0.3,0.2-0.6,0.4-0.8,0.5c-0.2,0.1-0.4,0.2-0.6,0.3c-0.3,0.1-0.5,0.2-0.5,0.2
			c-0.5,0.1-1,0.1-1.3,0c-0.4,0-0.7-0.2-1.1-0.3c-0.2-0.1-0.5-0.3-0.9-0.6C144,92.4,143.8,92.1,143.5,91.8z M144.8,86.5
			c-0.3,0.2-0.5,0.5-0.6,0.8c-0.1,0.3-0.2,0.6-0.2,0.8c0,0.4,0.1,0.8,0.3,1.2c0.2,0.4,0.4,0.8,0.8,1.3c0.2,0.3,0.4,0.5,0.5,0.6
			c0,0,0.1,0.1,0.2,0.2c0.2,0.2,0.4,0.4,0.5,0.5c0.5,0.3,0.8,0.5,0.9,0.5c0.2,0.1,0.5,0.1,0.8,0.2c0.2,0,0.4,0,0.6-0.1
			c0.2-0.1,0.5-0.2,0.6-0.3c0.4-0.3,0.6-0.6,0.8-1c0.2-0.4,0.2-0.9,0.1-1.4c-0.1-0.5-0.4-1.1-0.9-1.8c-0.2-0.3-0.5-0.6-0.9-1
			l-0.1-0.1c0,0-0.1-0.1-0.2-0.2c-0.5-0.4-1.1-0.7-1.6-0.7C145.8,85.9,145.3,86.1,144.8,86.5z"/>
		<path class="st6" d="M153.9,88.2c0-0.1,0.1-0.3,0.2-0.4c0.1-0.2,0.2-0.3,0.3-0.5c0-0.1-0.1-0.1-0.1-0.1c0,0-0.2-0.2-0.4-0.4
			l-1.1-0.9l-0.5-0.5l-0.4-0.4l-0.2-0.2c-0.3-0.3-0.6-0.6-0.9-0.8c-0.7-0.6-1.1-0.9-1.3-1l-0.3,0.2c-0.2,0.2-0.4,0.4-0.5,0.5
			l-0.3-0.2l0-0.1c0.1-0.2,0.2-0.3,0.3-0.5c0.1-0.1,0.2-0.2,0.4-0.4c0.2-0.2,0.3-0.3,0.3-0.3l0.2-0.3l0.5-0.6
			c0.3-0.4,0.6-0.8,0.9-1.2c0.5-0.6,1.1-1,1.8-1.1c0.7-0.1,1.2,0,1.6,0.4c0.3,0.3,0.5,0.6,0.6,1c0.1,0.4,0,0.9-0.2,1.4
			c0.1,0,0.2,0,0.4,0c0.3,0,0.6,0.1,0.8,0.1l1.9,0.3c0.5,0.1,0.8,0.1,0.9,0.1c0.1,0,0.3-0.1,0.5-0.2c0.2-0.1,0.3-0.2,0.4-0.2
			c0.1,0,0.1,0.1,0.2,0.1c0,0,0.1,0.1,0.1,0.1l-0.1,0.1l-0.1,0.1l-0.2,0.2l-0.2,0.2c-0.1,0.1-0.2,0.2-0.3,0.4l-0.4,0.5
			c0,0-0.1,0.2-0.2,0.4c-0.1,0.1-0.1,0.2-0.1,0.2l-0.4-0.1c-0.3-0.1-0.6-0.1-0.8-0.2c-0.4-0.1-1.1-0.3-2.1-0.5
			c-0.4-0.1-0.7-0.1-0.8-0.1c-0.1,0-0.3,0.2-0.5,0.4c-0.1,0.1-0.1,0.2-0.3,0.3c0.1,0.1,0.2,0.2,0.3,0.3l1.1,0.9l0.9,0.8
			c0.1,0,0.3-0.1,0.4-0.2c0.3-0.2,0.5-0.4,0.7-0.5c0.2,0.1,0.3,0.2,0.3,0.3c-0.1,0.1-0.1,0.1-0.1,0.1l-0.2,0.2c-0.6,0.6-1,1-1.1,1.1
			c-0.1,0.1-0.1,0.1-0.1,0.2l-0.5,0.7c-0.1,0.2-0.3,0.4-0.4,0.6l-0.2,0.2c-0.1-0.1-0.1-0.1-0.2-0.1C154,88.3,154,88.3,153.9,88.2z
			 M152.7,83.5c0.1-0.1,0.2-0.3,0.3-0.3c0.5-0.5,0.7-1,0.7-1.4c0-0.4-0.2-0.7-0.5-1c-0.2-0.2-0.4-0.3-0.6-0.4
			c-0.2-0.1-0.4-0.1-0.6-0.1c-0.2,0-0.4,0.1-0.7,0.2c-0.2,0.1-0.4,0.3-0.6,0.6c-0.1,0.1-0.2,0.3-0.3,0.4l0.1,0.1l0.6,0.5l0.4,0.3
			l0.5,0.4c0.1,0.1,0.3,0.3,0.5,0.5L152.7,83.5z"/>
		<path class="st6" d="M153.3,78.2l-0.4-0.2c0-0.1,0.1-0.1,0.1-0.2c0.1-0.2,0.2-0.4,0.3-0.6c0.3-0.5,0.5-0.7,0.5-0.8
			c0.2-0.3,0.3-0.6,0.5-0.9c0.1-0.3,0.3-0.5,0.4-0.7c0.1-0.2,0.2-0.4,0.2-0.4l0.1,0l0.3,0.2l0,0c-0.1,0.2-0.2,0.4-0.3,0.7
			c-0.1,0.2-0.1,0.4-0.1,0.5c0,0.1,0.2,0.2,0.6,0.4c0.1,0.1,0.2,0.1,0.3,0.2l0.2,0.1l0.5,0.3l0.5,0.2l0.9,0.5l1.4,0.7
			c0.4,0.2,0.8,0.3,1.1,0.3c0.3,0,0.5-0.1,0.7-0.2c0.3-0.2,0.6-0.5,0.7-0.8c0.2-0.3,0.3-0.7,0.4-1c0-0.2,0.1-0.4,0-0.6
			c0-0.2-0.1-0.4-0.1-0.5c-0.1-0.2-0.3-0.4-0.4-0.6c-0.2-0.2-0.6-0.4-1.1-0.7c-0.9-0.5-1.9-1-3-1.5l-0.3-0.1
			c-0.2-0.1-0.4-0.1-0.5-0.1c-0.2,0.1-0.3,0.2-0.4,0.3l-0.3,0.5l-0.1,0.1l-0.4-0.2l0.2-0.4l0.6-1c0.2-0.3,0.4-0.7,0.5-1l0.1-0.1
			c0.1,0,0.2,0.1,0.3,0.1c0,0,0.1,0.1,0.1,0.1c0,0.2-0.1,0.3-0.2,0.5c-0.1,0.3-0.1,0.4-0.1,0.4c0,0.1,0.1,0.1,0.2,0.2
			c0.1,0,0.2,0.1,0.3,0.1c0.1,0,0.3,0.1,0.5,0.2c0.1,0.1,0.2,0.1,0.3,0.2c0.1,0,0.1,0.1,0.2,0.1c0.3,0.1,0.5,0.3,0.8,0.4l1.1,0.6
			c0.7,0.4,1.2,0.7,1.4,0.9c0.2,0.2,0.4,0.4,0.5,0.5c0.1,0.3,0.2,0.6,0.3,0.9c0,0.3,0,0.7-0.1,1.2c-0.1,0.4-0.3,0.9-0.6,1.4
			c-0.3,0.6-0.6,1-1,1.3c-0.4,0.3-0.7,0.5-1.1,0.6c-0.4,0.1-0.7,0-1.2-0.1c-0.3-0.1-0.7-0.3-1.2-0.6l-2.6-1.4
			c-0.6-0.3-1-0.5-1.1-0.5c-0.2,0-0.4,0.2-0.6,0.6C153.4,78.1,153.4,78.2,153.3,78.2z"/>
		<path class="st6" d="M164.9,72.4l-0.4-0.1c0.1-0.5,0-0.9-0.1-1c-0.1-0.1-0.3-0.2-0.7-0.4l-2.1-0.6l-2.1-0.6
			c-0.1,0-0.2-0.1-0.2-0.1c-0.6-0.1-0.9-0.2-1-0.2c-0.1,0-0.3,0.3-0.5,0.7c-0.1,0.1-0.1,0.2-0.1,0.2c-0.1,0-0.2,0-0.3-0.1l-0.2,0
			c0-0.2,0.1-0.3,0.1-0.5l0.5-1.7c0,0,0-0.1,0.1-0.2l0.1-0.3c0.1,0,0.2-0.1,0.4-0.1c0.3-0.1,0.8-0.2,1.4-0.3l0.2,0l2.3-0.4
			c0.1,0,0.1,0,0.2,0c0.2,0,0.3-0.1,0.5-0.1c0.1,0,0.3-0.1,0.5-0.1c0.2,0,0.3-0.1,0.5-0.1c-0.1-0.1-0.2-0.2-0.3-0.2
			c-0.3-0.3-0.6-0.5-0.9-0.7c-0.5-0.4-1.2-1-2.2-1.7c-0.2-0.1-0.4-0.3-0.7-0.6c-0.3-0.3-0.5-0.4-0.5-0.4c0,0,0-0.1,0-0.2
			c0,0,0-0.1,0-0.2c0-0.2,0.1-0.5,0.2-0.8c0.1-0.4,0.2-0.8,0.2-1c0-0.3,0.1-0.4,0.1-0.4c0,0,0-0.1,0-0.1c0.1,0,0.1,0,0.1,0l0.2,0.1
			c0,0,0.1,0,0.2,0c0,0.4,0,0.7,0,1c0,0.2,0.1,0.3,0.2,0.3l0.1,0l1.9,0.4c0.2,0,1,0.2,2.5,0.5c0.3,0.1,0.8,0.2,1.3,0.3
			c0.1,0,0.1,0,0.2,0c0.1,0,0.2,0,0.2,0c0,0,0.2-0.4,0.6-1c0.1,0,0.1,0,0.1,0c0.1,0,0.2,0,0.2,0.1c0,0.1-0.1,0.4-0.3,0.8
			c-0.2,0.4-0.3,0.8-0.4,1.2c-0.1,0.6-0.3,1.1-0.4,1.7c0,0.1,0,0.1,0,0.2l-0.4-0.1c0-0.2,0-0.4,0-0.7c0-0.2,0-0.3-0.1-0.4
			c-0.1-0.1-0.3-0.2-0.6-0.2c-0.1,0-0.2-0.1-0.3-0.1c-0.4-0.1-1-0.2-1.8-0.4l-2.1-0.4c-0.3-0.1-0.5-0.1-0.6-0.1l3,2.4
			c0.1,0.1,0.2,0.1,0.3,0.3c0.2,0.1,0.3,0.2,0.4,0.3c0.7,0.5,1.2,0.9,1.5,1.1c0.1,0.1,0.2,0.1,0.4,0.2l-0.1,0.5l-1,0.1
			c-0.3,0-0.7,0.1-1.2,0.2c-0.3,0.1-0.6,0.1-0.8,0.1c-0.1,0-0.1,0-0.2,0l-0.2,0c0,0,0,0-0.1,0l-2.2,0.4l-1.3,0.2l2.8,0.8l1.8,0.5
			c0.3,0.1,0.5,0.1,0.7,0c0.2-0.1,0.3-0.3,0.5-0.6l0.1-0.3l0.4,0.1c-0.1,0.2-0.1,0.5-0.2,0.7c-0.1,0.3-0.2,0.6-0.3,1
			C165.1,71.3,165,71.7,164.9,72.4z"/>
	</g>
</g>
</svg>
