<?xml version="1.0" encoding="utf-8"?>
<!-- Generator: Adobe Illustrator 23.0.4, SVG Export Plug-In . SVG Version: 6.00 Build 0)  -->
<svg version="1.1" id="Layer_1" xmlns="http://www.w3.org/2000/svg" xmlns:xlink="http://www.w3.org/1999/xlink" x="0px" y="0px"
	 width="243.4px" height="111.4px" viewBox="0 0 243.4 111.4" style="enable-background:new 0 0 243.4 111.4;" xml:space="preserve"
	>
<style type="text/css">
	.st0{fill:#666666;}
	.st1{fill:#FFFFFF;}
	.st2{fill:#231F20;}
	.st3{fill:#760D17;}
	.st4{fill-rule:evenodd;clip-rule:evenodd;fill:#FFCA38;}
	.st5{fill:#FFCA38;}
	.st6{fill:#FFFFFC;}
	.st7{fill-rule:evenodd;clip-rule:evenodd;fill:#231F20;}
</style>
<g>
	<path class="st0" d="M13.5,69.6c-1.6,0-2.7-0.7-3.3-0.7c-0.5,0-0.7,0.4-0.6,0.9l-2.3,0.2l-1.2-8.2l2.4-0.3c0.3,2.5,1.3,5.4,4,5.4
		c2.9,0,3.9-2.3,3.9-4.8c0-2-0.9-4.7-1.9-6.8c-1.8-3.5-4.7-9.2-6-11.7c-1-1.9-1.8-4.6-1.8-7c0-5.3,2.7-8,7.8-8
		c2.3,0,3.3,0.7,3.7,0.7c0.6,0,0.8-0.2,1-0.6l2.2,0.3l-1,8l-2.4-0.3c0.1-0.7,0.2-2,0-2.5c-0.4-1.5-0.8-2.9-2.8-2.9
		c-1.9,0-3,1.4-3,3.8c0,2,1,3.9,1.8,5.6c2.4,4.7,4.6,9.1,5.9,11.9c1.4,2.8,2,6,2,7.7C21.8,65.8,19.6,69.6,13.5,69.6"/>
	<path class="st0" d="M35.5,69.6v-3.5c-1.8,2.7-3.4,3.5-6,3.5c-2.6,0-4.9-2.1-4.9-6.6V49.3c0-1.4,0.1-2.3-0.7-2.3
		c-0.4,0-0.9,0.3-1.2,0.5l-0.8-1.7l7.9-3.5v20c0,2.9,0.4,4,1.8,4c2.1,0,3.3-2.6,3.3-5.9V49.7c0-1.1,0.2-2.7-0.8-2.7
		c-0.3,0-0.9,0.2-1.2,0.4l-0.8-1.7l8-3.5v22.6c0,1.8,0.2,2.3,0.8,2.3c0.3,0,0.9-0.2,0.9-0.2l0.1,1.8C39.5,69,35.5,69.6,35.5,69.6"/>
	<path class="st0" d="M54,69.6c-1.6,0-2.9-0.4-3.8-1.1v10.5c0,1.6,0.2,1.9,1.2,1.9h0.4v1.8h-8.6V81h0.4c1.1,0,1.3-0.2,1.3-1.9V49.5
		c0-1,0-2.5-0.6-2.5c-0.4,0-1,0.3-1.3,0.4l-0.8-1.6l7.4-3.5v4c1.6-2.8,3.2-4,5.6-4c3.1,0,6.5,2.3,6.6,13.8
		C61.8,66.1,57.7,69.6,54,69.6 M53.3,45.9c-1.9,0-3.1,3.8-3.1,6.7v10.3c0,2.8,1.2,4.1,2.9,4.1c1.9,0,2.9-3.9,2.9-10.6
		C56.1,47.5,54.9,45.9,53.3,45.9"/>
	<path class="st0" d="M69.9,58c0,8.2,1.7,9.2,3.9,9.2c2.1,0,3.6-1.9,4.3-4l1.9,0.9c-1.1,3-3.1,5.5-7.2,5.5c-4.7,0-8.6-4.2-8.6-13.1
		c0-10.3,4.4-14.2,8.4-14.2c4.2,0,7.4,3.8,7.7,10.4L69.9,58z M72.3,44.4c-1.7,0-2.5,3.1-2.5,10.8c2.1-1.1,3.1-1.6,4.2-2.3
		c0.3-0.2,0.4-0.5,0.4-1.7C74.4,46.9,73.8,44.4,72.3,44.4"/>
	<path class="st0" d="M95.9,49.6l-2-0.2c0.1-0.6,0.3-1.2,0.1-1.8c-0.3-0.8-0.6-0.9-1.5-0.9c-1.6,0-3.2,3-3.2,6v13.3
		c0,1.3,0.2,1.5,1.1,1.5H91v1.8h-8.6v-1.8h0.4c1,0,1.2-0.2,1.2-1.6V48.7c0-0.9-0.1-1.7-0.8-1.7c-0.3,0-0.9,0.3-1.2,0.5l-0.7-1.7
		l7.3-3.5v4.8c1.7-3.3,3.4-4.8,5.9-4.8c0.8,0,1.9,0.3,1.9,0.3L95.9,49.6z"/>
	<path class="st0" d="M120.8,70l-2.2-0.2c-0.1-0.4,0-0.6-1.1-0.6h-13v-2h0.6c1.1,0,1.3-0.4,1.3-1.8V33c0-1.7-0.2-1.9-1.3-1.9h-0.6
		v-2h10.1v2h-0.7c-1.3,0-1.5,0.3-1.5,1.9v34h2.5c3.4,0,4.2-1.1,4.8-4.8l2.1,0.3L120.8,70z"/>
	<path class="st0" d="M133.7,69.6v-2.9c-0.6,1-2,2.9-4.8,2.9c-3.1,0-5.6-1.8-5.6-7.3c0-5.7,4.9-9.3,9.6-10.2v-2.4
		c0-3.3-0.7-4.7-2.9-4.7c-1.7,0-4,2.1-4,2.1l-1.3-1.7c1.8-1.5,4.1-3.3,7.4-3.3c3.7,0,6.1,2.3,6.1,7.3v15.1c0,2.4,0.3,2.5,1.1,2.3
		c0.3-0.1,0.6-0.2,0.6-0.2l0.1,1.9C137.7,69.1,136,69.3,133.7,69.6 M132.9,54.2c-2.5,0.6-4.5,3.8-4.5,7.1c0,3.8,0.5,5.2,2,5.3
		c1.4,0,2.5-1.5,2.5-3.9V54.2z"/>
	<path class="st0" d="M168.2,44.6c-1,0-1.2,0.4-1.6,2.3c-1.4,6.8-2.6,12.7-4.3,21.2c-0.1,0.4-0.1,0.9,0.1,1.1h-5.5
		c-0.8-4.1-1.8-9-2.7-13.6c-0.7,3.7-1.6,7.7-2.6,12.5c-0.1,0.3-0.1,0.8,0.1,1.1h-5.5c-1.4-7-3.3-16.2-4.5-22.5
		c-0.4-1.8-0.8-2.1-1.7-2.1h-0.5v-1.8h9.4v1.8h-0.2c-1.5,0-1.4,0.6-1.4,1.2c0,0.2,0.1,1.1,0.2,1.4c0.9,5.2,1.3,7.1,2.2,12.3
		c0.3,1.5,0.5,3,0.8,5c0.2-1.9,0.5-3.3,0.7-4.9c0.6-3,1.8-9.8,1.8-9.8l-0.6-3.1c-0.4-1.8-0.7-2.1-1.6-2.1h-0.4v-1.8h9.4v1.8h-0.3
		c-1.5,0-1.6,0.6-1.6,1.2c0,0.2,0.1,1.1,0.2,1.4c0.9,5,1.3,7.2,2.2,12.3c0.3,1.5,0.5,3,0.8,5c0.2-1.9,0.5-3.3,0.8-4.9
		c0.5-2.5,1.3-7.4,2-11.4c0,0,0.4-2.3,0.4-2.6c0-0.5-0.3-0.9-1.1-0.9h-0.4v-1.8h5.5v1.8H168.2z"/>
	<path class="st0" d="M185.5,44.6c-1.1,0-1.2,0.4-1.6,2c-1.6,6.8-5.5,22.8-8.5,35.2h-5c0.4-0.6,0.9-1.7,1.2-2.5
		c1.5-3.5,2.4-5.9,3.4-8.7l-5.5-23.3c-0.4-1.7-0.6-2.6-1.7-2.6h-0.6v-1.8h9.9v1.8h-0.3c-1.2,0-1.5,0.4-1.5,1.2c0,0.4,0.1,1,0.4,2.6
		c0.8,3.6,1.4,7.7,1.8,9.4c0.4,1.8,0.5,2.4,0.7,3.9c0.2-1.3,0.5-2.6,0.9-3.9c0.4-1.5,1.3-5.8,2.1-9.6c0.2-1,0.4-1.8,0.4-2.4
		c0-0.9-0.2-1.2-1.2-1.2H180v-1.8h5.8v1.8H185.5z"/>
	<path class="st0" d="M190.9,58c0,8.2,1.7,9.2,3.9,9.2c2.1,0,3.6-1.9,4.3-4l1.9,0.9c-1.1,3-3.1,5.5-7.2,5.5c-4.7,0-8.6-4.2-8.6-13.1
		c0-10.3,4.4-14.2,8.4-14.2c4.2,0,7.4,3.8,7.7,10.4L190.9,58z M193.4,44.4c-1.7,0-2.5,3.1-2.5,10.8c2.1-1.1,3.1-1.6,4.2-2.3
		c0.3-0.2,0.4-0.5,0.4-1.7C195.4,46.9,194.9,44.4,193.4,44.4"/>
	<path class="st0" d="M216.9,49.6l-2-0.2c0.1-0.6,0.3-1.2,0-1.8c-0.3-0.8-0.6-0.9-1.5-0.9c-1.6,0-3.2,3-3.2,6v13.3
		c0,1.3,0.2,1.5,1.1,1.5h0.6v1.8h-8.6v-1.8h0.4c1,0,1.2-0.2,1.2-1.6V48.7c0-0.9-0.1-1.7-0.7-1.7c-0.3,0-0.9,0.3-1.2,0.5l-0.8-1.7
		l7.3-3.5v4.8c1.7-3.3,3.4-4.8,5.9-4.8c0.7,0,1.9,0.3,1.9,0.3L216.9,49.6z"/>
	<path class="st0" d="M226.1,69.4c-1.5,0-2.5-0.5-3.1-0.5c-0.4,0-0.6,0.3-0.6,0.7l-2,0.4l-1.6-6.7l2.1-0.5c0.5,2.5,1.9,4.1,4.2,4.1
		c2.3,0,3.1-1.6,3.1-3.1c0-1.8-1.1-3.6-2.5-5.1c-1.7-1.9-3.3-3.9-4.7-5.5c-1.1-1.2-1.8-3-1.8-4.8c0-3.8,3.2-6.1,6.9-6.1
		c1.7,0,2.6,0.6,3.4,0.6c0.6,0,0.7-0.2,0.8-0.6l1.9,0.3l-0.6,6.7l-2.1-0.2c0.2-1.1,0.1-2.2-0.2-2.9c-0.3-0.9-1.1-1.6-2.4-1.6
		c-1.6,0-2.8,0.9-2.8,2.4c0,1.5,1.1,2.8,2,4c1.9,2.2,2.6,3,3.6,4.1c1.2,1.4,3.5,4,3.5,7.5C233.2,67,229.7,69.4,226.1,69.4"/>
	<path class="st0" d="M235.2,42.5c1.3,0,2.1,1,2.1,2.1c0,1.1-0.8,2.1-2.1,2.1c-1.3,0-2.1-1-2.1-2.1
		C233.1,43.5,233.9,42.5,235.2,42.5 M235.2,46.4c1.1,0,1.8-0.8,1.8-1.8c0-1-0.7-1.8-1.8-1.8c-1.1,0-1.8,0.8-1.8,1.8
		C233.5,45.6,234.2,46.4,235.2,46.4 M235.7,44.7l0.6,0.8h-0.6l-0.5-0.7H235v0.7h-0.5v-2h0.8c0.5,0,0.8,0.2,0.8,0.6
		C236.1,44.4,235.9,44.6,235.7,44.7 M235.3,43.9H235v0.6h0.3c0.2,0,0.3-0.1,0.3-0.3C235.6,44,235.5,43.9,235.3,43.9"/>
</g>
</svg>
