<svg version="1.1" id="facebook" xmlns="http://www.w3.org/2000/svg" xmlns:xlink="http://www.w3.org/1999/xlink" x="0px" y="0px"
	 width="14.4px" height="30.9px" viewBox="0 0 14.4 30.9" style="enable-background:new 0 0 14.4 30.9;" xml:space="preserve">
<style type="text/css">
	.st0{fill:none;stroke:#EA573F;stroke-width:2;stroke-linejoin:round;stroke-miterlimit:10;}
	.st1{fill:none;stroke:#C3984F;stroke-width:2;stroke-linecap:round;stroke-linejoin:round;stroke-miterlimit:10;}
	.st2{fill:none;stroke:#EA573F;stroke-width:2;stroke-linecap:round;stroke-linejoin:round;stroke-miterlimit:10;}
	.st3{fill:#212D3D;}
	.st5{fill:#666666;}
	.st6{fill:#FFFFFF;}
	.st7{fill:#231F20;}
	.st8{fill:#760D17;}
	.st9{fill-rule:evenodd;clip-rule:evenodd;fill:#FFCA38;}
	.st10{fill:#FFCA38;}
	.st11{fill:#FFFFFC;}
	.st12{fill-rule:evenodd;clip-rule:evenodd;fill:#231F20;}
	.st13{fill:#E45943;}
</style>
<path id="Facebook_3_" class="socialmedia-st4" d="M3.1,6c0,0.8,0,4.3,0,4.3H0v5.2h3.1v15.5h6.4V15.4h4.3c0,0,0.4-2.5,0.6-5.2
	c-0.6,0-4.9,0-4.9,0s0-3,0-3.6c0-0.5,0.7-1.2,1.4-1.2c0.7,0,2.1,0,3.5,0c0-0.7,0-3.2,0-5.4c-1.8,0-3.8,0-4.7,0C3,0,3.1,5.2,3.1,6z"
	/>
</svg>
