<?xml version="1.0" encoding="utf-8"?>
<!-- Generator: Adobe Illustrator 23.0.4, SVG Export Plug-In . SVG Version: 6.00 Build 0)  -->
<svg version="1.1" id="Layer_1" xmlns="http://www.w3.org/2000/svg" xmlns:xlink="http://www.w3.org/1999/xlink" x="0px" y="0px"
	 width="26.2px" height="26.6px" viewBox="0 0 26.2 26.6" style="enable-background:new 0 0 26.2 26.6;" xml:space="preserve">
<style type="text/css">
	.st0{fill:none;stroke:#EA573F;stroke-width:2;stroke-linejoin:round;stroke-miterlimit:10;}
	.st1{fill:none;stroke:#C3984F;stroke-width:2;stroke-linecap:round;stroke-linejoin:round;stroke-miterlimit:10;}
	.st2{fill:none;stroke:#EA573F;stroke-width:2;stroke-linecap:round;stroke-linejoin:round;stroke-miterlimit:10;}
	.st3{fill:#212D3D;}
	.st4{fill:#0A0D28;}
	.st5{fill:#666666;}
	.st6{fill:#FFFFFF;}
	.st7{fill:#231F20;}
	.st8{fill:#760D17;}
	.st9{fill-rule:evenodd;clip-rule:evenodd;fill:#FFCA38;}
	.st10{fill:#FFCA38;}
	.st11{fill:#FFFFFC;}
	.st12{fill-rule:evenodd;clip-rule:evenodd;fill:#231F20;}
	.st13{fill:#E45943;}
</style>
<g>
	<g>
		<path class="st4" d="M26.1,10.7c-2.6,0-12.8,0-12.8,0v5.3c0,0,5.1,0,7.2,0c-1.1,3.4-2.9,5.3-7.2,5.3c-4.4,0-7.8-3.5-7.8-7.9
			c0-4.4,3.4-7.9,7.8-7.9c2.3,0,3.8,0.8,5.2,1.9c1.1-1.1,1-1.2,3.8-3.9C19.9,1.3,16.7,0,13.3,0C6,0,0,6,0,13.3
			c0,7.3,6,13.3,13.3,13.3C24.3,26.6,26.9,17,26.1,10.7z"/>
	</g>
</g>
</svg>
