<svg version="1.1" id="linkedin" xmlns="http://www.w3.org/2000/svg" xmlns:xlink="http://www.w3.org/1999/xlink" x="0px" y="0px"
	 width="34.2px" height="32.7px" viewBox="0 0 34.2 32.7" style="enable-background:new 0 0 34.2 32.7;" xml:space="preserve">
<style type="text/css">
	.st0{fill:none;stroke:#EA573F;stroke-width:2;stroke-linejoin:round;stroke-miterlimit:10;}
	.st1{fill:none;stroke:#C3984F;stroke-width:2;stroke-linecap:round;stroke-linejoin:round;stroke-miterlimit:10;}
	.st2{fill:none;stroke:#EA573F;stroke-width:2;stroke-linecap:round;stroke-linejoin:round;stroke-miterlimit:10;}
	.st3{fill:#212D3D;}
	.st5{fill:#666666;}
	.st6{fill:#FFFFFF;}
	.st7{fill:#231F20;}
	.st8{fill:#760D17;}
	.st9{fill-rule:evenodd;clip-rule:evenodd;fill:#FFCA38;}
	.st10{fill:#FFCA38;}
	.st11{fill:#FFFFFC;}
	.st12{fill-rule:evenodd;clip-rule:evenodd;fill:#231F20;}
	.st13{fill:#E45943;}
</style>
<path id="LinkedIn_1_" class="socialmedia-st4" d="M34.2,20v12.6h-7.3V20.9c0-3-1.1-5-3.7-5c-2,0-3.2,1.4-3.8,2.7c-0.2,0.5-0.2,1.1-0.2,1.8v12.3
	h-7.3c0,0,0.1-20,0-22h7.3v3.1c0,0,0,0,0,0.1h0v-0.1c1-1.5,2.7-3.6,6.6-3.6C30.6,10.1,34.2,13.3,34.2,20z M4.1,0C1.6,0,0,1.6,0,3.8
	c0,2.1,1.6,3.8,4.1,3.8h0c2.6,0,4.1-1.7,4.1-3.8C8.2,1.6,6.7,0,4.1,0z M0.4,32.7h7.3v-22H0.4V32.7z"/>
</svg>
