<?xml version="1.0" encoding="utf-8"?>
<!-- Generator: Adobe Illustrator 23.0.4, SVG Export Plug-In . SVG Version: 6.00 Build 0)  -->
<svg version="1.1" id="Layer_1" xmlns="http://www.w3.org/2000/svg" xmlns:xlink="http://www.w3.org/1999/xlink" x="0px" y="0px"
	 width="29.3px" height="35.2px" viewBox="0 0 29.3 35.2" style="enable-background:new 0 0 29.3 35.2;" xml:space="preserve">
<style type="text/css">
	.st0{fill:none;stroke:#EA573F;stroke-width:2;stroke-linejoin:round;stroke-miterlimit:10;}
	.st1{fill:none;stroke:#C3984F;stroke-width:2;stroke-linecap:round;stroke-linejoin:round;stroke-miterlimit:10;}
	.st2{fill:none;stroke:#EA573F;stroke-width:2;stroke-linecap:round;stroke-linejoin:round;stroke-miterlimit:10;}
	.st3{fill:#212D3D;}
	.st4{fill:#0A0D28;}
	.st5{fill:#666666;}
	.st6{fill:#FFFFFF;}
	.st7{fill:#231F20;}
	.st8{fill:#760D17;}
	.st9{fill-rule:evenodd;clip-rule:evenodd;fill:#FFCA38;}
	.st10{fill:#FFCA38;}
	.st11{fill:#FFFFFC;}
	.st12{fill-rule:evenodd;clip-rule:evenodd;fill:#231F20;}
	.st13{fill:#E45943;}
</style>
<path id="YouTube_2_" class="st4" d="M24.8,25.7h-1.9l0-1.1c0-0.5,0.4-0.9,0.9-0.9h0.1c0.5,0,0.9,0.4,0.9,0.9L24.8,25.7z M17.5,23.3
	c-0.5,0-0.9,0.3-0.9,0.7v5.5c0,0.4,0.4,0.7,0.9,0.7c0.5,0,0.9-0.3,0.9-0.7V24C18.4,23.6,18,23.3,17.5,23.3z M29.3,20.3v10.4
	c0,2.5-2.2,4.5-4.8,4.5H4.8c-2.6,0-4.8-2-4.8-4.5V20.3c0-2.5,2.2-4.5,4.8-4.5h19.7C27.1,15.7,29.3,17.8,29.3,20.3z M6.1,31.8l0-10.9
	l2.4,0v-1.6l-6.5,0v1.6l2,0v11H6.1z M13.4,22.5h-2v5.8c0,0.8,0.1,1.3,0,1.4c-0.2,0.5-0.9,0.9-1.2,0c0-0.2,0-0.6,0-1.4l0-5.9h-2
	l0,5.8c0,0.9,0,1.5,0,1.8c0,0.5,0,1.1,0.5,1.5c0.9,0.7,2.7-0.1,3.1-1l0,1.2l1.6,0V22.5z M19.9,29.1l0-4.9c0-1.9-1.4-3-3.3-1.5l0-3.6
	l-2,0l0,12.5l1.7,0l0.2-0.8C18.6,32.8,20,31.5,19.9,29.1z M26.3,28.5l-1.5,0c0,0.1,0,0.1,0,0.2v0.9c0,0.5-0.4,0.8-0.8,0.8h-0.3
	c-0.5,0-0.8-0.4-0.8-0.8v-0.1v-0.9v-1.2h3.5V26c0-1,0-1.9-0.1-2.5c-0.3-1.7-2.7-2-3.9-1.1c-0.4,0.3-0.7,0.7-0.9,1.2
	c-0.2,0.5-0.3,1.2-0.3,2.1v2.9C21.2,33.3,27,32.6,26.3,28.5z M18.5,12.8c0.1,0.3,0.3,0.5,0.5,0.6c0.2,0.2,0.5,0.2,0.8,0.2
	c0.3,0,0.6-0.1,0.8-0.2c0.2-0.2,0.4-0.4,0.6-0.7l0,0.8h2.3V3.8h-1.8v7.5c0,0.4-0.3,0.7-0.7,0.7c-0.4,0-0.7-0.3-0.7-0.7V3.8h-1.9v6.5
	c0,0.8,0,1.4,0,1.7C18.3,12.3,18.4,12.5,18.5,12.8z M11.6,7.3c0-0.9,0.1-1.7,0.2-2.2c0.2-0.5,0.4-0.9,0.8-1.3
	c0.4-0.3,0.9-0.5,1.5-0.5c0.5,0,1,0.1,1.4,0.3c0.4,0.2,0.7,0.5,0.9,0.8c0.2,0.3,0.3,0.7,0.4,1C16.9,5.9,17,6.4,17,7.1v2.4
	c0,0.9,0,1.6-0.1,2c-0.1,0.4-0.2,0.8-0.4,1.2c-0.2,0.4-0.5,0.6-0.9,0.8c-0.4,0.2-0.8,0.3-1.2,0.3c-0.5,0-1-0.1-1.3-0.2
	c-0.4-0.1-0.6-0.4-0.8-0.7c-0.2-0.3-0.3-0.7-0.4-1.1c-0.1-0.4-0.1-1.1-0.1-1.9V7.3z M13.4,11.2c0,0.5,0.4,1,0.9,1
	c0.5,0,0.9-0.4,0.9-1V6c0-0.5-0.4-1-0.9-1c-0.5,0-0.9,0.4-0.9,1V11.2z M7.1,13.8h2.1l0-7.4L11.8,0H9.4L8.1,4.7L6.7,0H4.4l2.7,6.4
	L7.1,13.8z"/>
</svg>
