<?xml version="1.0" encoding="utf-8"?>
<!-- Generator: Adobe Illustrator 23.0.4, SVG Export Plug-In . SVG Version: 6.00 Build 0)  -->
<svg version="1.1" id="Layer_1" xmlns="http://www.w3.org/2000/svg" xmlns:xlink="http://www.w3.org/1999/xlink" x="0px" y="0px"
	 width="236.9px" height="16.9px" viewBox="0 0 236.9 16.9" style="enable-background:new 0 0 236.9 16.9;" xml:space="preserve">
<style type="text/css">
	.st0{fill:none;stroke:#EA573F;stroke-width:2;stroke-linejoin:round;stroke-miterlimit:10;}
	.st1{fill:none;stroke:#C3984F;stroke-width:2;stroke-linecap:round;stroke-linejoin:round;stroke-miterlimit:10;}
	.st2{fill:none;stroke:#EA573F;stroke-width:2;stroke-linecap:round;stroke-linejoin:round;stroke-miterlimit:10;}
	.st3{fill:#212D3D;}
	.st4{fill:#0A0D28;}
	.st5{fill:#666666;}
	.st6{fill:#FFFFFF;}
	.st7{fill:#231F20;}
	.st8{fill:#760D17;}
	.st9{fill-rule:evenodd;clip-rule:evenodd;fill:#FFCA38;}
	.st10{fill:#FFCA38;}
	.st11{fill:#FFFFFC;}
	.st12{fill-rule:evenodd;clip-rule:evenodd;fill:#231F20;}
	.st13{fill:#E45943;}
</style>
<g>
	<g>
		<path class="st3" d="M50.2,0h0.9v0.9C51.1,1.6,50.7,2,50,2h-0.9V1.1C49.2,0.4,49.5,0,50.2,0z M49.2,4.5c0-0.7,0.4-1,1.1-1h0.9v9.7
			h-0.9c-0.7,0-1.1-0.4-1.1-1.1V4.5z"/>
		<path class="st3" d="M56.1,11.2c0.3,0.2,0.5,0.4,0.9,0.4v0.9c0,0.4-0.2,0.7-0.6,0.8c-0.4,0.1-0.6,0.1-1-0.1
			c-0.5-0.3-1-0.6-1.2-1.1c-0.4-0.5-0.5-1.1-0.5-1.9V1.1C53.6,0.4,54,0,54.7,0h0.9v10.1C55.5,10.6,55.7,11,56.1,11.2z"/>
		<path class="st3" d="M66,4.3c1,0.8,1.4,1.8,1.4,2.9v6h-0.6c-0.4,0-0.9-0.3-1.1-0.8c-0.8,0.8-1.9,1.1-3,1.1c-1.2,0-2.3-0.4-3.2-1.1
			c-1-0.8-1.4-1.8-1.4-2.9V7.3c0-1.1,0.4-2.1,1.4-2.9c0.9-0.7,1.9-1.1,3.2-1.1C64,3.2,65.1,3.5,66,4.3z M62.8,5.1
			c-0.8,0-1.4,0.3-2,0.7c-0.4,0.4-0.7,0.9-0.7,1.4v2.3c0,0.5,0.3,1.1,0.7,1.4c0.5,0.4,1.2,0.7,2,0.7s1.4-0.3,2-0.7
			c0.4-0.4,0.7-0.9,0.7-1.4V7.3c0-0.5-0.3-1.1-0.7-1.4C64.2,5.4,63.6,5.1,62.8,5.1z"/>
		<path class="st3" d="M81.4,4.5c0-0.7,0.4-1,1.1-1h0.9v6c0,1.2-0.4,2.2-1.1,2.9s-1.7,1.1-2.9,1.1s-2.2-0.4-2.9-1.2
			c-0.7,0.8-1.8,1.2-2.9,1.2c-1.2,0-2.2-0.4-2.9-1.1c-0.7-0.7-1.1-1.7-1.1-2.9v-5c0-0.7,0.4-1,1.1-1h0.9v6c0,0.7,0.2,1.2,0.5,1.6
			c0.3,0.4,0.8,0.5,1.5,0.5c0.6,0,1.1-0.2,1.4-0.5s0.5-0.9,0.5-1.6v-5c0-0.7,0.4-1.1,1.1-1.1h0.9v6c0,0.7,0.2,1.1,0.5,1.6
			c0.4,0.4,0.8,0.5,1.4,0.5c0.7,0,1.1-0.2,1.5-0.5c0.4-0.4,0.5-0.9,0.5-1.6V4.5L81.4,4.5z"/>
		<path class="st3" d="M94.2,3.5l-3.8,10.7c-0.1,0.3-0.2,0.4-0.3,0.7c-0.1,0.2-0.2,0.4-0.3,0.6c-0.3,0.4-0.6,0.7-1.1,1
			c-0.4,0.2-0.7,0.2-1,0.1c-0.4-0.1-0.6-0.4-0.6-0.8v-0.9c0.3,0,0.4-0.1,0.6-0.2c0.3-0.1,0.4-0.3,0.4-0.4l0.4-1
			c-0.6-0.2-1-0.4-1.1-1l-2.8-8c-0.1-0.3-0.1-0.4,0-0.6c0.1-0.1,0.3-0.2,0.5-0.2h1.2l2.8,8l0,0l2.7-7.3c0.2-0.4,0.5-0.7,1.1-0.7
			L94.2,3.5L94.2,3.5z"/>
		<path class="st3" d="M102.1,3.7c0.4,0.3,0.9,0.6,1.2,1.1c0.4,0.5,0.5,1.1,0.5,1.7c0,0.5-0.1,1-0.4,1.4c-0.2,0.4-0.4,0.7-0.8,0.9
			c-0.4,0.3-0.7,0.4-1.1,0.5s-0.8,0.2-1.2,0.2H98c-0.2,0-0.3,0-0.4,0c-0.2,0-0.3-0.1-0.3-0.2v0.8c0,0.4,0.3,0.8,0.7,1.1
			c0.4,0.3,0.8,0.4,1.3,0.4c0.4,0.1,0.9,0,1.4-0.1c0.4-0.1,0.6-0.2,0.9-0.4c0.1-0.1,0.2-0.2,0.3-0.3c0.3-0.4,0.7-0.4,1.1-0.2l1,0.4
			c-0.2,0.4-0.4,0.8-0.7,1.1c-0.4,0.4-1,0.8-1.7,1c-0.6,0.2-1.2,0.3-1.9,0.3s-1.1-0.1-1.5-0.2c-0.5-0.2-1-0.4-1.4-0.6
			c-0.4-0.4-0.9-0.7-1.1-1.3c-0.3-0.5-0.4-1.1-0.4-1.7v-3c0-0.4,0.1-1,0.4-1.4c0.4-0.7,0.9-1.2,1.6-1.6s1.4-0.4,2.3-0.4
			C100.4,3.2,101.3,3.3,102.1,3.7z M101.4,7.3c0.3-0.2,0.4-0.4,0.5-0.8c0-0.4-0.1-0.7-0.4-0.9c-0.4-0.3-1-0.4-1.4-0.4
			c-0.5,0-1.1,0-1.5,0.1s-0.7,0.3-1,0.4c-0.3,0.3-0.4,0.5-0.4,0.9v0.9h3.2C100.7,7.5,101.1,7.4,101.4,7.3z"/>
		<path class="st3" d="M105.6,6.9c0-1.1,0.4-2,1.1-2.7c0.6-0.5,1.3-0.8,2.2-0.8h1.2v0.9c0,0.7-0.4,1.1-1,1.1H109
			c-0.4,0-0.6,0.1-0.9,0.4s-0.4,0.6-0.4,1.1v6.4h-0.9c-0.7,0-1.1-0.4-1.1-1.1L105.6,6.9L105.6,6.9z"/>
		<path class="st3" d="M122.9,5.7c-0.4-0.4-0.8-0.5-1.5-0.5c-0.6,0-1.1,0.2-1.4,0.5c-0.4,0.4-0.5,0.9-0.5,1.6v6h-0.9
			c-0.7,0-1.1-0.4-1.1-1.1v-5c0-0.6-0.2-1.1-0.5-1.6c-0.4-0.4-0.8-0.5-1.4-0.5c-0.7,0-1.1,0.2-1.5,0.5s-0.5,0.9-0.5,1.6v6h-0.9
			c-0.7,0-1.1-0.4-1.1-1.1v-5c0-1.2,0.4-2.2,1.1-2.9s1.7-1.1,2.9-1.1c1.1,0,1.9,0.3,2.6,0.9c0.1,0.1,0.2,0.2,0.4,0.4
			c0.2-0.2,0.3-0.3,0.4-0.4c0.7-0.6,1.5-0.9,2.6-0.9c1.2,0,2.2,0.4,2.9,1.1c0.7,0.7,1.1,1.7,1.1,2.9v6h-0.9c-0.7,0-1.1-0.4-1.1-1.1
			V7C123.4,6.5,123.2,6,122.9,5.7z"/>
		<path class="st3" d="M135.1,4.3c1,0.8,1.4,1.8,1.4,2.9v6h-0.6c-0.4,0-0.9-0.3-1.1-0.8c-0.8,0.8-1.9,1.1-3,1.1
			c-1.2,0-2.3-0.4-3.2-1.1c-1-0.8-1.4-1.8-1.4-2.9V7.3c0-1.1,0.4-2.1,1.4-2.9c0.9-0.7,1.9-1.1,3.2-1.1C133,3.2,134.2,3.5,135.1,4.3z
			 M131.9,5.1c-0.8,0-1.4,0.3-2,0.7c-0.4,0.4-0.7,0.9-0.7,1.4v2.3c0,0.5,0.3,1.1,0.7,1.4c0.5,0.4,1.2,0.7,2,0.7s1.4-0.3,2-0.7
			c0.4-0.4,0.7-0.9,0.7-1.4V7.3c0-0.5-0.3-1.1-0.7-1.4C133.3,5.4,132.6,5.1,131.9,5.1z"/>
		<path class="st3" d="M138.7,6.9c0-1.1,0.4-2,1.1-2.7c0.6-0.5,1.3-0.8,2.2-0.8h1.2v0.9c0,0.7-0.4,1.1-1,1.1h-0.3
			c-0.4,0-0.6,0.1-0.9,0.4c-0.3,0.3-0.4,0.6-0.4,1.1v6.4h-0.9c-0.7,0-1.1-0.4-1.1-1.1L138.7,6.9L138.7,6.9z"/>
		<path class="st3" d="M144.8,1.1c0-0.7,0.4-1.1,1.1-1.1h0.9v7.5h0.7c0.4,0,0.7,0,1-0.4l1.9-3c0.3-0.4,0.7-0.7,1.1-0.7h1.5l-2.3,3.8
			c-0.2,0.2-0.3,0.4-0.4,0.5c0.6,0.3,1.1,0.8,1.4,1.6l1.7,3.8h-1.2c-0.6,0-1-0.2-1.1-0.6l-1.1-2.4c-0.2-0.4-0.6-0.7-1.1-0.7h-2.1
			v3.8h-0.9c-0.7,0-1.1-0.4-1.1-1.1L144.8,1.1L144.8,1.1z"/>
		<path class="st3" d="M161.3,3.7c0.4,0.3,0.9,0.6,1.2,1.1c0.4,0.5,0.5,1.1,0.5,1.7c0,0.5-0.1,1-0.4,1.4c-0.2,0.4-0.4,0.7-0.8,0.9
			c-0.4,0.3-0.7,0.4-1.1,0.5c-0.4,0.1-0.8,0.2-1.2,0.2h-2.3c-0.2,0-0.3,0-0.4,0c-0.2,0-0.3-0.1-0.3-0.2v0.8c0,0.4,0.3,0.8,0.7,1.1
			s0.8,0.4,1.3,0.4c0.4,0.1,0.9,0,1.4-0.1c0.4-0.1,0.6-0.2,0.9-0.4c0.1-0.1,0.2-0.2,0.3-0.3c0.3-0.4,0.7-0.4,1.1-0.2l1,0.4
			c-0.2,0.4-0.4,0.8-0.7,1.1c-0.4,0.4-1,0.8-1.7,1c-0.6,0.2-1.2,0.3-1.9,0.3c-0.6,0-1.1-0.1-1.5-0.2c-0.5-0.2-1-0.4-1.4-0.6
			c-0.4-0.4-0.9-0.7-1.1-1.3c-0.3-0.5-0.4-1.1-0.4-1.7v-3c0-0.4,0.1-1,0.4-1.4c0.4-0.7,0.9-1.2,1.6-1.6c0.7-0.4,1.4-0.4,2.3-0.4
			C159.7,3.2,160.5,3.3,161.3,3.7z M160.6,7.3c0.3-0.2,0.4-0.4,0.5-0.8c0-0.4-0.1-0.7-0.4-0.9c-0.4-0.3-1-0.4-1.4-0.4
			c-0.5,0-1.1,0-1.5,0.1s-0.7,0.3-1,0.4c-0.3,0.3-0.4,0.5-0.4,0.9v0.9h3.2C160.1,7.5,160.4,7.4,160.6,7.3z"/>
		<path class="st3" d="M169.2,3.5v0.9c0,0.7-0.4,1.1-1.1,1.1h-1.2v4.7c0,0.5,0.2,0.9,0.4,1.1c0.3,0.2,0.5,0.4,0.9,0.4v0.9
			c0,0.4-0.2,0.7-0.6,0.8c-0.4,0.1-0.6,0.1-1-0.1c-0.5-0.3-1-0.6-1.2-1.1c-0.4-0.5-0.5-1.1-0.5-1.9V1.1c0-0.7,0.4-1.1,1.1-1.1h0.9
			v3.5H169.2z"/>
		<path class="st3" d="M171.9,0h0.9v0.9c0,0.7-0.4,1.1-1.1,1.1h-0.9V1.1C170.8,0.4,171.2,0,171.9,0z M170.8,4.5
			c0-0.7,0.4-1.1,1.1-1.1h0.9v9.7h-0.9c-0.7,0-1.1-0.4-1.1-1.1V4.5z"/>
		<path class="st3" d="M176.5,4.2c0.9-0.7,1.9-1.1,3.1-1.1c1.1,0,2.2,0.4,3.1,1.1C183.5,5,184,5.9,184,7v6.2h-0.9
			c-0.7,0-1.1-0.4-1.1-1.1v-5c0-0.5-0.3-1-0.7-1.3c-0.5-0.4-1.1-0.6-1.9-0.6c-0.7,0-1.3,0.2-1.9,0.6c-0.4,0.4-0.7,0.8-0.7,1.3v6.2
			H176c-0.7,0-1.1-0.4-1.1-1.1V7.1C175.1,6,175.6,5,176.5,4.2z"/>
		<path class="st3" d="M193.8,4.3c1,0.8,1.4,1.8,1.4,2.9v5.9c0,0.6-0.1,1.1-0.4,1.6c-0.4,1-1.4,1.6-2.5,1.9
			c-0.5,0.2-1.1,0.3-1.7,0.3c-0.5,0-1.1-0.1-1.5-0.2s-0.7-0.3-0.9-0.5c-0.1-0.2-0.2-0.4,0-0.8l0.2-0.8c0.4,0.2,1,0.3,1.7,0.4
			c0.6,0,1.2-0.1,1.7-0.2c1-0.3,1.4-0.8,1.4-1.7v-0.4c-0.8,0.5-1.7,0.8-2.7,0.8c-1.2,0-2.3-0.4-3.2-1.1c-1-0.8-1.4-1.8-1.4-2.9V7.3
			c0-1.1,0.4-2.1,1.4-2.9c0.9-0.7,1.9-1.1,3.2-1.1C191.9,3.2,192.9,3.5,193.8,4.3z M190.6,5.1c-0.8,0-1.4,0.3-2,0.7
			c-0.4,0.4-0.7,0.9-0.7,1.4v2.3c0,0.5,0.3,1.1,0.7,1.4c0.5,0.4,1.2,0.7,2,0.7s1.4-0.3,2-0.7c0.4-0.4,0.7-0.9,0.7-1.4V7.3
			c0-0.5-0.3-1.1-0.7-1.4C192,5.4,191.4,5.1,190.6,5.1z"/>
		<path class="st3" d="M198.7,11.1h0.9v1.1c0,0.7-0.4,1.1-1.1,1.1h-0.9v-1.1C197.6,11.4,198,11.1,198.7,11.1z"/>
		<path class="st3" d="M201.7,7.1c0-1.1,0.4-2,1.4-2.7c0.9-0.7,1.9-1.1,3.1-1.1c1.1,0,2.2,0.4,3.1,1.1c0.5,0.4,0.9,1,1.1,1.5
			l-0.9,0.4c-0.5,0.3-0.9,0.2-1.2-0.3c-0.1-0.2-0.2-0.2-0.3-0.3c-0.5-0.4-1.1-0.6-1.9-0.6s-1.3,0.2-1.9,0.6
			c-0.4,0.4-0.7,0.8-0.7,1.3v2.7c0,0.5,0.3,1,0.7,1.3c0.5,0.4,1.1,0.6,1.9,0.6s1.3-0.2,1.9-0.6c0.1-0.1,0.2-0.2,0.3-0.3
			c0.4-0.4,0.8-0.4,1.2-0.3l0.9,0.4c-0.3,0.6-0.6,1.1-1.1,1.5c-0.9,0.7-1.9,1.1-3.1,1.1s-2.2-0.4-3.1-1.1c-0.9-0.7-1.4-1.7-1.4-2.7
			V7.1z"/>
		<path class="st3" d="M219.6,4.3c1,0.8,1.4,1.8,1.4,2.9v2.3c0,1.1-0.4,2.1-1.4,2.9c-0.9,0.7-1.9,1.1-3.2,1.1
			c-1.2,0-2.3-0.4-3.2-1.1c-1-0.8-1.4-1.8-1.4-2.9V7.3c0-1.1,0.4-2.1,1.4-2.9c0.9-0.7,1.9-1.1,3.2-1.1
			C217.7,3.2,218.7,3.5,219.6,4.3z M216.4,5.1c-0.8,0-1.4,0.3-2,0.7c-0.4,0.4-0.7,0.9-0.7,1.4v2.3c0,0.5,0.3,1.1,0.7,1.4
			c0.5,0.4,1.2,0.7,2,0.7s1.4-0.3,2-0.7c0.4-0.4,0.7-0.9,0.7-1.4V7.3c0-0.5-0.3-1.1-0.7-1.4C217.9,5.4,217.2,5.1,216.4,5.1z"/>
		<path class="st3" d="M234.2,5.7c-0.4-0.4-0.8-0.5-1.5-0.5c-0.6,0-1.1,0.2-1.4,0.5c-0.4,0.4-0.5,0.9-0.5,1.6v6h-0.9
			c-0.7,0-1.1-0.4-1.1-1.1v-5c0-0.6-0.2-1.1-0.5-1.6c-0.4-0.4-0.8-0.5-1.4-0.5c-0.7,0-1.1,0.2-1.5,0.5s-0.5,0.9-0.5,1.6v6H224
			c-0.7,0-1.1-0.4-1.1-1.1v-5c0-1.2,0.4-2.2,1.1-2.9c0.7-0.7,1.7-1.1,2.9-1.1c1.1,0,1.9,0.3,2.6,0.9c0.1,0.1,0.2,0.2,0.4,0.4
			c0.2-0.2,0.3-0.3,0.4-0.4c0.7-0.6,1.5-0.9,2.6-0.9c1.2,0,2.2,0.4,2.9,1.1s1.1,1.7,1.1,2.9v6H236c-0.7,0-1.1-0.4-1.1-1.1V7
			C234.8,6.5,234.6,6,234.2,5.7z"/>
	</g>
	<g>
		<path class="st3" d="M3.8,7.2c0-0.8-0.1-1.7-1.1-1.7c-0.6,0-1,0.3-1,0.9c0,0.7,0.4,1,1,1.3C3.4,8,4.4,8.8,5,9.3
			c0.6,0.6,0.8,1.1,0.8,1.9c0,1.8-1.1,2.7-2.9,2.7c-2.1,0-2.8-1.1-2.8-2.8v-0.7h1.8v0.5c0,0.9,0.3,1.6,1.1,1.6
			c0.7,0,1.1-0.4,1.1-1.1c0-0.5-0.3-0.9-0.7-1.2C2.3,9.5,1.1,8.9,0.4,8C0.2,7.6,0,7.1,0,6.5C0,5,0.9,4.1,2.7,4.1
			c2.7,0,2.7,2.1,2.7,3.1H3.8z"/>
		<path class="st3" d="M7.7,13.7V4.3h1.8v9.4H7.7z"/>
		<path class="st3" d="M11,4.3h5.8v1.4h-2v8H13v-8h-2V4.3L11,4.3z"/>
		<path class="st3" d="M18.3,13.7V4.3h5v1.4h-3.2v2.4H23v1.4h-2.9v2.9h3.2v1.4L18.3,13.7C18.3,13.8,18.3,13.7,18.3,13.7z"/>
		<path class="st3" d="M28.7,13.7V4.3h2.8c0.7,0,1.5,0.1,1.9,0.7C34,5.6,34,6.1,34,6.7c0,0.8-0.2,1.6-1.1,1.9l0,0
			c1,0.2,1.3,1,1.3,2.2c0,0.4,0,0.8-0.1,1.1c-0.4,1.1-1.1,1.7-2.3,1.7h-3.1C28.7,13.6,28.7,13.7,28.7,13.7z M30.8,8.1
			c0.4,0,1,0,1.2-0.4c0.2-0.3,0.2-0.5,0.2-1c0-0.7-0.2-1.1-1-1.1h-0.8V8h0.4C30.8,8,30.8,8.1,30.8,8.1z M30.9,12.3
			c0.4,0,0.7,0,1.1-0.1c0.4-0.2,0.5-0.8,0.5-1.3c0-1-0.2-1.4-1.3-1.4h-0.7v2.8H30.9L30.9,12.3z"/>
		<path class="st3" d="M38.4,6.8c0.2,0.4,0.4,1,0.4,1.4l0,0c0.1-0.7,0.4-1.2,0.5-1.8l0.8-2.1H42l-2.5,5.4v4h-1.8v-4l-2.5-5.4h1.9
			L38.4,6.8z"/>
	</g>
</g>
</svg>
