<?xml version="1.0" encoding="utf-8"?>
<!-- Generator: Adobe Illustrator 23.0.4, SVG Export Plug-In . SVG Version: 6.00 Build 0)  -->
<svg version="1.1" id="Layer_1" xmlns="http://www.w3.org/2000/svg" xmlns:xlink="http://www.w3.org/1999/xlink" x="0px" y="0px"
	 width="32.9px" height="26.8px" viewBox="0 0 32.9 26.8" style="enable-background:new 0 0 32.9 26.8;" xml:space="preserve">
<style type="text/css">
	.st0{fill:none;stroke:#EA573F;stroke-width:2;stroke-linejoin:round;stroke-miterlimit:10;}
	.st1{fill:none;stroke:#C3984F;stroke-width:2;stroke-linecap:round;stroke-linejoin:round;stroke-miterlimit:10;}
	.st2{fill:none;stroke:#EA573F;stroke-width:2;stroke-linecap:round;stroke-linejoin:round;stroke-miterlimit:10;}
	.st3{fill:#212D3D;}
	.st4{fill:#0A0D28;}
	.st5{fill:#666666;}
	.st6{fill:#FFFFFF;}
	.st7{fill:#231F20;}
	.st8{fill:#760D17;}
	.st9{fill-rule:evenodd;clip-rule:evenodd;fill:#FFCA38;}
	.st10{fill:#FFCA38;}
	.st11{fill:#FFFFFC;}
	.st12{fill-rule:evenodd;clip-rule:evenodd;fill:#231F20;}
	.st13{fill:#E45943;}
</style>
<path class="st4" d="M32.9,3.2c-1.2,0.5-2.5,0.9-3.9,1.1c1.4-0.8,2.5-2.2,3-3.7c-1.3,0.8-2.8,1.3-4.3,1.6c-1.2-1.3-3-2.1-4.9-2.1
	C19.1,0,16,3,16,6.8c0,0.5,0.1,1,0.2,1.5C10.6,8,5.6,5.3,2.3,1.2c-0.6,1-0.9,2.2-0.9,3.4c0,2.3,1.2,4.4,3,5.6
	c-1.1,0-2.1-0.3-3.1-0.8c0,0,0,0.1,0,0.1c0,3.3,2.3,6,5.4,6.6c-0.6,0.2-1.2,0.2-1.8,0.2c-0.4,0-0.9,0-1.3-0.1
	c0.9,2.7,3.4,4.6,6.3,4.7c-2.3,1.8-5.2,2.9-8.4,2.9c-0.5,0-1.1,0-1.6-0.1c3,1.9,6.5,3,10.4,3c12.4,0,19.2-10.3,19.2-19.2
	c0-0.3,0-0.6,0-0.9C30.9,5.7,32,4.5,32.9,3.2z"/>
</svg>
