<?xml version="1.0" encoding="utf-8"?>
<!-- Generator: Adobe Illustrator 23.0.4, SVG Export Plug-In . SVG Version: 6.00 Build 0)  -->
<svg version="1.1" id="Layer_1" xmlns="http://www.w3.org/2000/svg" xmlns:xlink="http://www.w3.org/1999/xlink" x="0px" y="0px"
	 width="93.9px" height="99.3px" viewBox="0 0 93.9 99.3" style="enable-background:new 0 0 93.9 99.3;" xml:space="preserve">
<style type="text/css">
	.st0{fill:#666666;}
	.st1{fill:#FFFFFF;}
	.st2{fill:#231F20;}
	.st3{fill:#760D17;}
	.st4{fill-rule:evenodd;clip-rule:evenodd;fill:#FFCA38;}
	.st5{fill:#FFCA38;}
	.st6{fill:#FFFFFC;}
	.st7{fill-rule:evenodd;clip-rule:evenodd;fill:#231F20;}
	.st8{fill:#E45943;}
</style>
<g>
	<g>
		<g>
			<path class="st8" d="M75.1,85.5c-0.4,1.5-0.8,3-1.2,4.6c-0.7,2.8-1.4,5.5-2.1,8.3c-0.2,0.7-0.5,0.9-1.2,0.9c-2.1,0-4.1,0-6.2,0
				c-0.6,0-1-0.3-1.1-0.9C61,90.2,58.7,82,56.4,73.8c-0.2-0.6,0-0.8,0.6-0.8c2.7,0,5.4,0,8.1,0c0.6,0,1,0.3,1.1,0.9
				c0.7,3.5,1.3,6.9,2,10.4c0,0.2,0.1,0.3,0.2,0.5c0.4-1.7,0.9-3.4,1.3-5.1c0.5-1.9,1-3.8,1.4-5.7c0.2-0.8,0.5-1.1,1.4-1.1
				c1.7,0,3.3,0,5,0c0.9,0,1.2,0.2,1.4,1.1c0.9,3.4,1.7,6.8,2.6,10.1c0.1,0.2,0.1,0.4,0.3,0.6c0.2-1.1,0.4-2.1,0.6-3.2
				c0.5-2.5,1-5.1,1.4-7.6c0.2-0.8,0.4-1,1.3-1c2.6,0,5.3,0,7.9,0c0.8,0,0.9,0.2,0.7,0.9C91.5,82,89.3,90.2,87,98.3
				c-0.2,0.7-0.5,0.9-1.2,0.9c-2,0-3.9,0-5.9,0c-1,0-1.2-0.2-1.4-1.1c-1-4-2.1-8-3.1-12c-0.1-0.2-0.1-0.5-0.2-0.7
				C75.1,85.5,75.1,85.5,75.1,85.5z"/>
			<path class="st8" d="M47.4,73c1.2,0,2.4,0,3.6,0c0.7,0,1,0.3,1.3,0.9c2.8,8.2,5.6,16.4,8.3,24.6c0.2,0.7,0.2,0.8-0.6,0.8
				c-2.3,0-4.6,0-6.9,0c-0.7,0-1-0.3-1.2-0.9c-0.3-1-0.6-2-0.9-3c-0.1-0.3-0.2-0.5-0.6-0.5c-2.1,0-4.2,0-6.3,0
				c-0.4,0-0.5,0.2-0.6,0.5c-0.3,1-0.6,2.1-0.9,3.1c-0.2,0.6-0.5,0.9-1.1,0.9c-2.3,0-4.7,0-7,0c-0.7,0-0.8-0.1-0.5-0.8
				c2.8-8.2,5.6-16.4,8.3-24.5c0.2-0.7,0.6-0.9,1.3-0.9C44.9,73,46.1,73,47.4,73z M47.4,82.3c-0.1,0-0.1,0-0.2,0
				c-0.7,2.3-1.3,4.7-2,7c1.4,0,2.7,0,4.1,0C48.7,87,48,84.7,47.4,82.3z"/>
			<path class="st8" d="M26.7,92.4c2.3,0,4.5,0,6.6,0c0.9,0,1,0.1,0.9,1c-0.1,1.6-0.3,3.2-0.4,4.8c-0.1,0.9-0.2,1-1.1,1
				c-4.3,0-8.6,0-12.9,0c-0.8,0-1-0.1-1-0.9c0-8.1,0-16.3,0-24.4c0-0.8,0.1-0.9,0.9-0.9c2,0,4,0,6,0c0.8,0,1,0.1,1,1
				c0,5.9,0,11.8,0,17.7C26.7,91.9,26.7,92.1,26.7,92.4z"/>
		</g>
		<path class="st8" d="M13.8,34.1c0.1-0.8,0.3-1.4,0.3-2.1c0-1.8-0.1-3.7-0.1-5.5c0-0.2-0.2-0.5-0.4-0.6c-0.4-0.2-0.3-0.4,0-0.6
			c1.6-1,4.3-0.7,5.6,0.7c0.5,0.5,0.9,1.3,0.9,1.9c0.1,1.2-0.1,2.4-0.3,3.5c-0.2,1-0.9,1.8-1.9,2.2c-1.2,0.5-2.4,0.9-3.7,0.6
			C14,34.2,13.9,34.1,13.8,34.1z M15.2,29.4C15.2,29.4,15.2,29.4,15.2,29.4c0,1.1,0,2.2,0,3.2c0,0.3,0,0.7,0.5,0.8
			c1.2,0.2,2.4-0.4,2.9-1.5c0.5-1.2,0.6-2.4,0.5-3.7c-0.2-1.3-1.2-2.5-2.5-2.8c-0.9-0.2-1.4,0.2-1.4,1.1
			C15.2,27.5,15.2,28.5,15.2,29.4z"/>
		<path class="st8" d="M28.2,29.3c0,1.4-0.3,2.5-1.2,3.4c-1.9,2-5,1.3-5.8-1.4c-0.5-1.5-0.3-3,0.6-4.4c0.8-1.2,2.1-1.7,3.5-1.6
			c1.4,0.1,2.4,1.2,2.7,2.8C28.2,28.6,28.2,29.1,28.2,29.3z M27.3,29.6c-0.2-0.7-0.2-1.3-0.5-1.9c-0.7-1.7-2.8-2-3.9-0.5
			c-1.1,1.3-1,3.7,0.2,4.9c1.1,1.2,3,1,3.7-0.5C27.1,30.9,27.2,30.2,27.3,29.6z"/>
		<path class="st8" d="M11.7,27.9c-0.1-0.7-0.1-1.3-0.2-2c-0.1-0.4,0-0.6,0.5-0.6c0.4,0,0.9,0,0.8,0.6c-0.1,0.9-0.2,1.8-0.3,2.7
			c-0.1,0.9-0.3,1.8-0.5,2.7c-0.3,1.4-1.3,2.3-2.7,2.7c-1.4,0.5-3.4-0.7-3.6-2.1c-0.3-2.2-0.3-4.5-0.5-6.7c0-0.4,0.2-0.6,0.6-0.4
			c0.2,0.1,0.5,0.2,0.7,0.4c0.1,0.2,0.2,0.5,0.2,0.7c-0.6,1.8-0.5,3.6-0.2,5.5c0.2,1,1.3,1.8,2.3,1.9c0.9,0.1,1.8-0.4,2.1-1.5
			c0.4-1.2,0.5-2.5,0.8-3.8C11.8,27.9,11.7,27.9,11.7,27.9z"/>
		<path class="st8" d="M0,35.2c0.1,0,0.2,0,0.2,0c1.6-0.1,2.4-0.6,2.5-2.2c0.1-2.3,0-4.6-0.1-6.8c0-0.3-0.3-0.6-0.5-0.9
			c0.2-0.5,0.7-0.8,1.2-0.9c0.5-0.2,0.5,0.2,0.5,0.6c0,1.3,0.1,2.5,0,3.8c0,1.4,0,2.8-0.3,4.1c-0.2,1.5-0.9,2.7-2.4,3.4
			C0.5,36.4,0,36,0,35.2z"/>
	</g>
	<path class="st1" d="M86.3,66.4c0.2,0.3,0.3,0.6,0.5,0.8c1,1.1,2.2,1.7,3.6,2.1c0.8,0.3,1.5,0.6,1.7,1.6c0.2,0.8-0.2,1.2-1,1.1
		c-0.8-0.1-1.6-0.3-2.5-0.5c-0.4-0.1-0.8-0.1-1.2-0.3c-1.6-0.7-3.3-1-5.1-1.2c-0.7-0.1-1.4-0.2-2-0.4c-0.9-0.2-1.2-0.7-1-1.6
		c0.2-0.7,0.5-1.4,0.8-2.2c0-0.1,0.1-0.3,0.2-0.4c-0.2-0.1-0.5-0.1-0.8-0.2c0.1-0.4,0.3-0.8,0.4-1.3c0.5-1.6,1-3.3,1.4-4.9
		c0.2-0.9-0.1-1.3-1-1.5c-2.8-0.6-5.6-1.2-8.3-1.7c-2.4-0.5-4.8-0.9-7.2-0.3c-1.6,0.4-3.1,1.2-4.6,1.9C55.2,59.8,50,62.1,45,64.6
		c-3.2,1.6-6.1,3.6-9.2,5.4c-0.3,0.2-0.7,0.5-1,0.6c-0.4,0.1-0.9,0.1-1.3-0.1c-0.7-0.3-1.3-0.3-1.9,0.2c-1,0.8-2.1,0.9-3.2,0.7
		c-1.5-0.2-2.9,0-4.3,0.5c-1.3,0.4-2.6,0.7-3.9,0.2c-0.6-0.2-1.2-0.4-1.3-1.1c-0.1-0.7,0.6-1,1.1-1.3C26,66,32,62.1,38.2,58.4
		c4.3-2.6,8.9-4.9,13.3-7.5c2.6-1.5,5.2-3.2,7.6-4.9c1.5-1,1.7-2,1.1-3.7c-0.3-0.9-0.6-1.7-0.9-2.6c-0.3-0.8-0.9-1.3-1.7-1.7
		c-2.4-1-4.9-1.5-7.5-1.7c-5-0.4-9.9-1.4-14.7-2.9c0.1-0.4,0.1-0.8,0.1-1.3c0.1-0.9-0.1-1.3-1.1-1.4c-0.5-0.1-1-0.1-1.4-0.1
		c-2.5-0.1-2.8-2.1-2.3-3.7c0.4-1.3,1.3-1.6,2.5-0.9c1,0.6,2.2,0.6,3.4,0.6c1.3,0,2.6,0,3.9,0.2c2.6,0.4,5.1,0.5,7.7,0.3
		c1.8-0.1,3.6,0,5.3-0.2c3.8-0.4,7.5-0.9,11-2.5c0.7-0.3,1.3-0.7,1.9-1.2c0.5-0.3,0.6-1.3,0.3-1.8c-0.1-0.1-0.4-0.2-0.6-0.2
		c-1.2-0.1-1.2-0.3-1.5-1.4c-0.3-1.1,0.1-2.3-0.3-3.3c-0.6-2.1,0.2-3.8,1.2-5.4c1.1-1.9,4.1-2.6,6.1-1.7c2,0.9,3.2,3.2,2.7,5.5
		c-0.2,0.8-0.5,1.7-0.9,2.4c-0.4,0.8-0.7,1.6-0.6,2.6c0.1,1,1,1.7,2.1,1.5c0.7-0.1,1.3-0.2,1.9-0.4c0.9-0.3,1.5-0.9,2-1.7
		c0.7-1.3,1.5-2.6,2.2-3.8c1-1.8,1.4-3.7,1.5-5.7c0.1-1,0.1-2,0.2-2.9c0.1-0.6,0.3-1.2,0.4-1.7c0.2-0.7,0.1-1.4-0.5-2
		c-0.7-0.8-0.4-2.3,0.6-2.7C84.1,0.2,84.8,0,85.5,0c0.4,0,0.9,0.3,1.3,0.5C87,0.6,87,1,87,1.2c0,0.4-0.1,0.7-0.1,1.1
		C87,3.2,87,4.1,87.1,5c0,0.8,0.1,0.9,0.9,1c0.5,0,0.5,0.4,0.4,0.7c-0.2,2.5-0.4,5-0.6,7.5c-0.1,1.3-0.3,2.6-0.6,3.9
		c-0.2,0.7-0.6,1.4-1.1,2c-2.7,3.9-5.2,7.8-7.1,12.1c-1.3,2.8-1.9,5.8-2.2,8.9c-0.1,0.7-0.1,1.5-0.1,2.3c0,0.8,0.3,1.5,1.2,1.8
		c3.2,1.3,6.4,2.6,9.6,4c0.3,0.1,0.7,0.3,1,0.5c1.9,0.8,2.9,2.3,2.7,4.4c-0.2,1.9-0.5,3.8-0.9,5.6c-0.4,2.2-1,4.3-1.6,6.5
		c-0.1,0.4-0.3,0.5-0.6,0.4c-0.5-0.1-1.1-0.2-1.6-0.3C86.4,66.3,86.4,66.3,86.3,66.4z"/>
</g>
</svg>
