<?xml version="1.0" encoding="utf-8"?>
<!-- Generator: Adobe Illustrator 23.0.4, SVG Export Plug-In . SVG Version: 6.00 Build 0)  -->
<svg version="1.1" id="hori_logo" xmlns="http://www.w3.org/2000/svg" xmlns:xlink="http://www.w3.org/1999/xlink" x="0px" y="0px"
	 width="273.2px" height="59.3px" viewBox="0 0 273.2 59.3" style="enable-background:new 0 0 273.2 59.3;" xml:space="preserve">
<style type="text/css">
	.hori_logo-st0{fill:none;stroke:#EA573F;stroke-width:2;stroke-linejoin:round;stroke-miterlimit:10;}
	.hori_logo-st1{fill:none;stroke:#C3984F;stroke-width:2;stroke-linecap:round;stroke-linejoin:round;stroke-miterlimit:10;}
	.hori_logo-st2{fill:none;stroke:#EA573F;stroke-width:2;stroke-linecap:round;stroke-linejoin:round;stroke-miterlimit:10;}
	.hori_logo-st3{fill:#212D3D;}
	.hori_logo-st4{fill:#0A0D28;}
	.hori_logo-st5{fill:#101228;}
	.hori_logo-st6{fill:#C2974E;}
	.hori_logo-st7{fill:#666666;}
	.hori_logo-st8{fill:#FFFFFF;}
	.hori_logo-st9{fill:#231F20;}
	.hori_logo-st10{fill:#760D17;}
	.hori_logo-st11{fill-rule:evenodd;clip-rule:evenodd;fill:#FFCA38;}
	.hori_logo-st12{fill:#FFCA38;}
	.hori_logo-st13{fill:#FFFFFC;}
	.hori_logo-st14{fill-rule:evenodd;clip-rule:evenodd;fill:#231F20;}
	.hori_logo-st15{fill:#E45943;}
</style>
<g>
	<g>
		<path class="hori_logo-st5" d="M61.4,52.8h1l2,5.3h-1L63,56.7h-2.1l-0.5,1.4h-1L61.4,52.8z M61.1,56h1.6l-0.8-2.3h0L61.1,56z"/>
		<path class="hori_logo-st5" d="M66.4,52.8h4.3v0.8H69v4.5h-0.9v-4.5h-1.7V52.8z"/>
		<path class="hori_logo-st5" d="M73.4,52.8h4.3v0.8H76v4.5h-0.9v-4.5h-1.7V52.8z"/>
		<path class="hori_logo-st5" d="M83.2,52.7c0.4,0,0.8,0.1,1.1,0.2c0.3,0.1,0.6,0.3,0.8,0.6c0.2,0.3,0.4,0.5,0.5,0.9c0.1,0.3,0.2,0.7,0.2,1.1
			c0,0.4-0.1,0.7-0.2,1.1c-0.1,0.3-0.3,0.6-0.5,0.9c-0.2,0.3-0.5,0.5-0.8,0.6c-0.3,0.1-0.7,0.2-1.1,0.2s-0.8-0.1-1.1-0.2
			c-0.3-0.1-0.6-0.3-0.8-0.6c-0.2-0.3-0.4-0.5-0.5-0.9c-0.1-0.3-0.2-0.7-0.2-1.1c0-0.4,0.1-0.7,0.2-1.1c0.1-0.3,0.3-0.6,0.5-0.9
			c0.2-0.3,0.5-0.5,0.8-0.6C82.4,52.8,82.8,52.7,83.2,52.7z M83.2,53.5c-0.3,0-0.5,0.1-0.7,0.2c-0.2,0.1-0.4,0.3-0.5,0.5
			c-0.1,0.2-0.2,0.4-0.3,0.6c-0.1,0.2-0.1,0.5-0.1,0.7c0,0.3,0,0.5,0.1,0.7c0.1,0.2,0.2,0.5,0.3,0.6c0.1,0.2,0.3,0.3,0.5,0.5
			c0.2,0.1,0.4,0.2,0.7,0.2c0.3,0,0.5-0.1,0.7-0.2c0.2-0.1,0.4-0.3,0.5-0.5c0.1-0.2,0.2-0.4,0.3-0.6c0.1-0.2,0.1-0.5,0.1-0.7
			c0-0.3,0-0.5-0.1-0.7c-0.1-0.2-0.2-0.5-0.3-0.6c-0.1-0.2-0.3-0.3-0.5-0.5C83.7,53.5,83.4,53.5,83.2,53.5z"/>
		<path class="hori_logo-st5" d="M89.1,52.8h2.5c0.6,0,1,0.1,1.3,0.4c0.3,0.3,0.4,0.6,0.4,1.1c0,0.3,0,0.5-0.1,0.6c-0.1,0.2-0.2,0.3-0.3,0.4
			s-0.2,0.2-0.3,0.2c-0.1,0-0.2,0.1-0.2,0.1v0c0.1,0,0.2,0,0.3,0.1c0.1,0,0.2,0.1,0.3,0.2c0.1,0.1,0.1,0.2,0.2,0.3
			c0.1,0.1,0.1,0.3,0.1,0.5c0,0.3,0,0.6,0.1,0.9c0,0.3,0.1,0.4,0.2,0.5h-1c-0.1-0.1-0.1-0.2-0.1-0.4c0-0.1,0-0.3,0-0.4
			c0-0.2,0-0.5,0-0.6c0-0.2-0.1-0.3-0.2-0.4c-0.1-0.1-0.2-0.2-0.3-0.3C91.8,56,91.6,56,91.4,56h-1.4v2.2h-0.9V52.8z M90.1,55.3h1.5
			c0.3,0,0.5-0.1,0.7-0.2c0.2-0.1,0.2-0.4,0.2-0.6c0-0.2,0-0.3-0.1-0.4c0-0.1-0.1-0.2-0.2-0.2c-0.1-0.1-0.2-0.1-0.3-0.1
			c-0.1,0-0.2,0-0.3,0h-1.5V55.3z"/>
		<path class="hori_logo-st5" d="M96.9,52.8h1l2.4,3.9h0v-3.9h0.9v5.3h-1l-2.4-3.9h0v3.9h-0.9V52.8z"/>
		<path class="hori_logo-st5" d="M104.9,52.8h3.8v0.8h-2.9V55h2.7v0.8h-2.7v1.6h2.9v0.8h-3.9V52.8z"/>
		<path class="hori_logo-st5" d="M113.6,56.1l-2-3.2h1.1l1.4,2.4l1.4-2.4h1l-2,3.2v2.1h-0.9V56.1z"/>
		<path class="hori_logo-st5" d="M120.2,56.4c0,0.2,0,0.4,0.1,0.5c0.1,0.1,0.2,0.3,0.3,0.4c0.1,0.1,0.3,0.2,0.4,0.2c0.2,0,0.3,0.1,0.5,0.1
			c0.2,0,0.4,0,0.5-0.1c0.1,0,0.3-0.1,0.3-0.2c0.1-0.1,0.2-0.2,0.2-0.3c0-0.1,0.1-0.2,0.1-0.3c0-0.2,0-0.4-0.1-0.4
			c-0.1-0.1-0.2-0.2-0.3-0.2c-0.2-0.1-0.4-0.1-0.7-0.2c-0.3-0.1-0.6-0.1-0.9-0.2c-0.2-0.1-0.4-0.1-0.6-0.2c-0.2-0.1-0.3-0.2-0.4-0.3
			c-0.1-0.1-0.2-0.2-0.2-0.4c0-0.1-0.1-0.3-0.1-0.4c0-0.3,0.1-0.5,0.2-0.7c0.1-0.2,0.3-0.4,0.4-0.5c0.2-0.1,0.4-0.2,0.6-0.3
			c0.2-0.1,0.5-0.1,0.7-0.1c0.3,0,0.5,0,0.8,0.1c0.2,0.1,0.5,0.2,0.6,0.3c0.2,0.1,0.3,0.3,0.4,0.5s0.2,0.5,0.2,0.7h-0.9
			c0-0.3-0.1-0.6-0.3-0.7c-0.2-0.1-0.5-0.2-0.8-0.2c-0.1,0-0.2,0-0.3,0c-0.1,0-0.2,0.1-0.3,0.1c-0.1,0.1-0.2,0.1-0.2,0.2
			s-0.1,0.2-0.1,0.3c0,0.2,0.1,0.3,0.2,0.4c0.1,0.1,0.3,0.2,0.5,0.2c0,0,0.1,0,0.2,0.1c0.1,0,0.3,0.1,0.5,0.1c0.2,0,0.3,0.1,0.5,0.1
			c0.2,0,0.3,0.1,0.3,0.1c0.2,0.1,0.3,0.1,0.5,0.2c0.1,0.1,0.2,0.2,0.3,0.3c0.1,0.1,0.2,0.3,0.2,0.4c0,0.1,0.1,0.3,0.1,0.4
			c0,0.3-0.1,0.6-0.2,0.8c-0.1,0.2-0.3,0.4-0.5,0.5c-0.2,0.1-0.4,0.2-0.7,0.3c-0.3,0.1-0.5,0.1-0.8,0.1c-0.3,0-0.6,0-0.9-0.1
			c-0.3-0.1-0.5-0.2-0.7-0.3c-0.2-0.2-0.4-0.4-0.5-0.6c-0.1-0.2-0.2-0.5-0.2-0.9H120.2z"/>
		<path class="hori_logo-st5" d="M133.1,52.8h1l2,5.3h-1l-0.5-1.4h-2.1l-0.5,1.4h-1L133.1,52.8z M132.8,56h1.6l-0.8-2.3h0L132.8,56z"/>
		<path class="hori_logo-st5" d="M138,52.8h4.3v0.8h-1.7v4.5h-0.9v-4.5H138V52.8z"/>
		<path class="hori_logo-st5" d="M150.2,52.8h0.9v4.5h2.7v0.8h-3.6V52.8z"/>
		<path class="hori_logo-st5" d="M158.5,52.8h1l2,5.3h-1l-0.5-1.4h-2.1l-0.5,1.4h-1L158.5,52.8z M158.2,56h1.6l-0.8-2.3h0L158.2,56z"/>
		<path class="hori_logo-st5" d="M163.9,52.8h0.9l1,4.1h0l1.1-4.1h1l1,4.1h0l1-4.1h0.9l-1.5,5.3h-0.9l-1.1-4.1h0l-1.1,4.1h-1L163.9,52.8z"/>
		<path class="hori_logo-st5" d="M173.4,57.1h1v1c0,0.3-0.1,0.6-0.3,0.8c-0.2,0.2-0.4,0.3-0.7,0.4v-0.5c0.2,0,0.3-0.1,0.4-0.3
			c0.1-0.1,0.1-0.3,0.1-0.4h-0.5V57.1z"/>
		<path class="hori_logo-st5" d="M182.8,52.8h2.3c0.4,0,0.7,0.1,0.9,0.2c0.2,0.1,0.4,0.2,0.5,0.4c0.1,0.2,0.2,0.3,0.3,0.5
			c0,0.2,0.1,0.4,0.1,0.5c0,0.2,0,0.3-0.1,0.5c0,0.2-0.1,0.4-0.3,0.5c-0.1,0.2-0.3,0.3-0.5,0.4c-0.2,0.1-0.5,0.2-0.9,0.2h-1.4v2
			h-0.9V52.8z M183.7,55.4h1.4c0.1,0,0.2,0,0.3,0c0.1,0,0.2-0.1,0.3-0.1c0.1-0.1,0.2-0.2,0.2-0.3c0.1-0.1,0.1-0.3,0.1-0.4
			c0-0.2,0-0.3-0.1-0.4c0-0.1-0.1-0.2-0.2-0.3c-0.1-0.1-0.2-0.1-0.3-0.1c-0.1,0-0.2,0-0.3,0h-1.4V55.4z"/>
		<path class="hori_logo-st5" d="M189.1,57.1h1v1h-1V57.1z"/>
		<path class="hori_logo-st5" d="M194.4,56.4c0,0.2,0,0.4,0.1,0.5c0.1,0.1,0.2,0.3,0.3,0.4c0.1,0.1,0.3,0.2,0.4,0.2c0.2,0,0.3,0.1,0.5,0.1
			c0.2,0,0.4,0,0.5-0.1c0.1,0,0.3-0.1,0.3-0.2c0.1-0.1,0.2-0.2,0.2-0.3c0-0.1,0.1-0.2,0.1-0.3c0-0.2,0-0.4-0.1-0.4
			c-0.1-0.1-0.2-0.2-0.3-0.2c-0.2-0.1-0.4-0.1-0.7-0.2c-0.3-0.1-0.6-0.1-0.9-0.2c-0.2-0.1-0.4-0.1-0.6-0.2c-0.2-0.1-0.3-0.2-0.4-0.3
			c-0.1-0.1-0.2-0.2-0.2-0.4c0-0.1-0.1-0.3-0.1-0.4c0-0.3,0.1-0.5,0.2-0.7s0.3-0.4,0.4-0.5c0.2-0.1,0.4-0.2,0.6-0.3
			c0.2-0.1,0.5-0.1,0.7-0.1c0.3,0,0.5,0,0.8,0.1c0.2,0.1,0.5,0.2,0.6,0.3c0.2,0.1,0.3,0.3,0.4,0.5c0.1,0.2,0.2,0.5,0.2,0.7h-0.9
			c0-0.3-0.1-0.6-0.3-0.7c-0.2-0.1-0.5-0.2-0.8-0.2c-0.1,0-0.2,0-0.3,0c-0.1,0-0.2,0.1-0.3,0.1c-0.1,0.1-0.2,0.1-0.2,0.2
			c-0.1,0.1-0.1,0.2-0.1,0.3c0,0.2,0.1,0.3,0.2,0.4c0.1,0.1,0.3,0.2,0.5,0.2c0,0,0.1,0,0.2,0.1c0.1,0,0.3,0.1,0.5,0.1
			c0.2,0,0.3,0.1,0.5,0.1c0.2,0,0.3,0.1,0.3,0.1c0.2,0.1,0.3,0.1,0.5,0.2c0.1,0.1,0.2,0.2,0.3,0.3c0.1,0.1,0.2,0.3,0.2,0.4
			c0,0.1,0.1,0.3,0.1,0.4c0,0.3-0.1,0.6-0.2,0.8c-0.1,0.2-0.3,0.4-0.5,0.5c-0.2,0.1-0.4,0.2-0.7,0.3c-0.3,0.1-0.5,0.1-0.8,0.1
			c-0.3,0-0.6,0-0.9-0.1c-0.3-0.1-0.5-0.2-0.7-0.3c-0.2-0.2-0.4-0.4-0.5-0.6c-0.1-0.2-0.2-0.5-0.2-0.9H194.4z"/>
		<path class="hori_logo-st5" d="M201.1,57.1h1v1h-1V57.1z"/>
		<path class="hori_logo-st5" d="M209.4,54.5c0-0.2-0.1-0.3-0.2-0.4c-0.1-0.1-0.2-0.2-0.3-0.3c-0.1-0.1-0.2-0.2-0.4-0.2
			c-0.1-0.1-0.3-0.1-0.5-0.1c-0.3,0-0.5,0.1-0.7,0.2c-0.2,0.1-0.4,0.3-0.5,0.5c-0.1,0.2-0.2,0.4-0.3,0.6c-0.1,0.2-0.1,0.5-0.1,0.7
			c0,0.3,0,0.5,0.1,0.7c0.1,0.2,0.2,0.5,0.3,0.6c0.1,0.2,0.3,0.3,0.5,0.5c0.2,0.1,0.4,0.2,0.7,0.2c0.2,0,0.4,0,0.5-0.1
			c0.2-0.1,0.3-0.2,0.4-0.3c0.1-0.1,0.2-0.3,0.3-0.4c0.1-0.2,0.1-0.3,0.1-0.5h0.9c0,0.3-0.1,0.6-0.2,0.9c-0.1,0.3-0.3,0.5-0.5,0.7
			c-0.2,0.2-0.4,0.3-0.7,0.4c-0.3,0.1-0.6,0.2-0.9,0.2c-0.4,0-0.8-0.1-1.1-0.2c-0.3-0.1-0.6-0.3-0.8-0.6c-0.2-0.3-0.4-0.5-0.5-0.9
			c-0.1-0.3-0.2-0.7-0.2-1.1c0-0.4,0.1-0.7,0.2-1.1c0.1-0.3,0.3-0.6,0.5-0.9c0.2-0.3,0.5-0.5,0.8-0.6c0.3-0.1,0.7-0.2,1.1-0.2
			c0.3,0,0.6,0,0.8,0.1c0.3,0.1,0.5,0.2,0.7,0.4s0.4,0.3,0.5,0.6c0.1,0.2,0.2,0.5,0.2,0.8H209.4z"/>
		<path class="hori_logo-st5" d="M213.8,57.1h1v1h-1V57.1z"/>
	</g>
	<g>
		<path class="hori_logo-st5" d="M20.9,26.7c-1.9,2-5.7,3.4-9.1,3.4C4.5,30.1,0,23.2,0,15C0,6.8,4.5,0,13.1,0c2.5,0,4.4,0.5,6.8,1.2v8.6h-1.3
			C17,4.5,16.3,0.9,13,0.9C9.2,0.9,7.7,4.7,7.7,15c0,10.3,1.5,14.1,4.1,14.1c1.5,0,2.3-1.3,2.3-4.1v-7.8h-2.5v-0.9h11.2v0.9h-1.9
			V26.7z"/>
		<path class="hori_logo-st5" d="M26.9,15.7V9.2c2.1-1,4.4-1.5,6.7-1.5c5.3,0,8,1.5,8,6.8v14.1h1.8v0.9h-7.3v-3H36c-1,2.7-2.7,3.7-5.1,3.7
			c-3.6,0-6.4-2.5-6.4-5.9c0-7.3,9.4-6.1,10.9-8.5V12c0-1.9-0.4-3.4-2.4-3.4c-2.7,0-3.9,5-4.7,7.2H26.9z M35.4,16.9
			c-3,2.2-4.1,0.2-4.1,7.6c0,2.8,0.4,3.9,1.8,3.9c1.4,0,2.2-1.7,2.2-4.5V16.9z"/>
		<path class="hori_logo-st5" d="M45.2,29.4v-0.9H47V9.2h-1.8V8.3h7.4v3.4h0.1c1-2.4,2.1-4.1,4.8-4.1c0.8,0,1.6,0.2,2.2,0.4v8.4h-1
			c-1-3.7-1.7-6.8-3.1-6.8c-1,0-2.5,2.1-2.5,4.7v14h1.8v0.9H45.2z"/>
		<path class="hori_logo-st5" d="M70.3,8.3v0.9h-2.1l3.9,12h0.1l3.7-12h-3.1V8.3H78v0.9h-1.2l-7.4,24c-0.7,2.2-1.5,4.1-3.9,4.1
			c-1.2,0-2.3-0.2-3.3-1v-7.5h1l1.1,3.3c1,2.9,1.4,3.7,2.1,3.7c1,0,1.7-2,2.2-3.6l0.7-2.2l-8-20.7h-1.2V8.3H70.3z"/>
		<path class="hori_logo-st5" d="M110.3,9.8H109c-2.4-6.3-2.7-8.9-6-8.9c-3.8,0-4.9,2.8-4.9,14.1s1.1,14.1,4.9,14.1c4.3,0,4.5-3.2,6.5-10h1.3
			v9c-2.6,1.3-5.3,2-8,2c-7.9,0-12.4-6.8-12.4-15c0-8.2,4.5-15,12.4-15c2.5,0,4.9,0.6,7.5,1.4V9.8z"/>
		<path class="hori_logo-st5" d="M121,26.7c0,1.9-1.3,3.3-3,3.3c-1.6,0-3-1.5-3-3.3c0-1.9,1.3-3.3,3-3.3C119.7,23.4,121,24.9,121,26.7z"/>
	</g>
	<g>
		<path class="hori_logo-st5" d="M129.2,17.9h1.3c1.9,9.1,2.9,11,4.5,11c1.4,0,1.9-1,1.9-2.5V1.2h-2.8V0.3h11.5v0.9h-1.9v19.4
			c0,6.6-3.1,9.1-9.2,9.1c-2.1,0-4.3-0.5-5.3-1.2V17.9z"/>
		<path class="hori_logo-st5" d="M156.9,29.7c-5.9,0-9.4-5.1-9.4-11.2c0-6.1,3.4-11.2,9.4-11.2s9.4,5.1,9.4,11.2
			C166.2,24.7,162.8,29.7,156.9,29.7z M154.7,26.4c0.3,1.7,1.1,2.4,2.2,2.4c1.1,0,1.9-0.7,2.2-2.4c0.3-1.7,0.3-3.6,0.3-7.8
			c0-4.2,0-6.1-0.3-7.8s-1.1-2.4-2.2-2.4c-1.1,0-1.9,0.7-2.2,2.4c-0.3,1.7-0.3,3.6-0.3,7.8C154.3,22.7,154.4,24.6,154.7,26.4z"/>
		<path class="hori_logo-st5" d="M177.3,29.1h-8.9v-0.9h1.8V1.2h-1.8V0.3h7.8v10.1h0.1c0.6-1.5,2.7-3.1,5-3.1c3.5,0,5.2,2.6,5.2,6.6v14.3h1.8
			v0.9h-8.9v-0.9h1.1v-16c0-1.8-0.4-2.9-1.5-2.9c-1.7,0-2.7,2.7-2.7,6.5v12.4h1.1V29.1z"/>
		<path class="hori_logo-st5" d="M198.8,29.1h-8.9v-0.9h1.8V8.9h-1.8V8h7.4v3.2h0.1c0.7-2.3,3.1-3.9,5.3-3.9c3.5,0,5.2,2.6,5.2,6.6v14.3h1.8
			v0.9h-8.9v-0.9h1.1v-16c0-1.8-0.4-2.9-1.5-2.9c-1.9,0-2.7,2.7-2.7,6.5v12.4h1.1V29.1z"/>
		<path class="hori_logo-st5" d="M212.1,21.4h1.8c1.2,3.5,1.6,7.4,5.8,7.4c2.5,0,4.1-0.9,4.1-3.1c0-5.4-12-2.9-12-11.4c0-3.9,3-7.1,8-7.1
			c2.3,0,4.5,0.7,6.6,1.7v5.9h-1.5c-1.1-3.9-2.2-6.7-5.6-6.7c-2.2,0-3.3,1.5-3.3,2.8c0,5.1,12,3,12,11.1c0,3.7-2.5,7.6-8.6,7.6
			c-2,0-4.9-0.6-7.2-2V21.4z"/>
		<path class="hori_logo-st5" d="M240,29.7c-5.9,0-9.4-5.1-9.4-11.2c0-6.1,3.4-11.2,9.4-11.2s9.4,5.1,9.4,11.2C249.3,24.7,245.9,29.7,240,29.7
			z M237.8,26.4c0.3,1.7,1.1,2.4,2.2,2.4c1.1,0,1.9-0.7,2.2-2.4c0.3-1.7,0.3-3.6,0.3-7.8c0-4.2,0-6.1-0.3-7.8s-1.1-2.4-2.2-2.4
			c-1.1,0-1.9,0.7-2.2,2.4c-0.3,1.7-0.3,3.6-0.3,7.8C237.4,22.7,237.5,24.6,237.8,26.4z"/>
		<path class="hori_logo-st5" d="M260.4,29.1h-8.9v-0.9h1.8V8.9h-1.8V8h7.4v3.2h0.1c0.7-2.3,3.1-3.9,5.3-3.9c3.5,0,5.2,2.6,5.2,6.6v14.3h1.8
			v0.9h-8.9v-0.9h1.1v-16c0-1.8-0.4-2.9-1.5-2.9c-1.9,0-2.7,2.7-2.7,6.5v12.4h1.1V29.1z"/>
	</g>
	<rect x="1.6" y="43.3" class="hori_logo-st6" width="271.6" height="1.1"/>
</g>
</svg>
