<?xml version="1.0" encoding="utf-8"?>
<!-- Generator: Adobe Illustrator 23.0.4, SVG Export Plug-In . SVG Version: 6.00 Build 0)  -->
<svg version="1.1" id="vertical_logo" xmlns="http://www.w3.org/2000/svg" xmlns:xlink="http://www.w3.org/1999/xlink" x="0px" y="0px"
	 width="165.7px" height="100.3px" viewBox="0 0 165.7 100.3" style="enable-background:new 0 0 165.7 100.3;" xml:space="preserve"
	>
<style type="text/css">
	.vertical_logo-st0{fill:none;stroke:#EA573F;stroke-width:2;stroke-linejoin:round;stroke-miterlimit:10;}
	.vertical_logo-st1{fill:none;stroke:#C3984F;stroke-width:2;stroke-linecap:round;stroke-linejoin:round;stroke-miterlimit:10;}
	.vertical_logo-st2{fill:none;stroke:#EA573F;stroke-width:2;stroke-linecap:round;stroke-linejoin:round;stroke-miterlimit:10;}
	.vertical_logo-st3{fill:#212D3D;}
	.vertical_logo-st4{fill:#0A0D28;}
	.vertical_logo-vertical_logo-st5{fill:#101228;}
	.vertical_logo-st6{fill:#C2974E;}
	.vertical_logo-st7{fill:#666666;}
	.vertical_logo-st8{fill:#FFFFFF;}
	.vertical_logo-st9{fill:#231F20;}
	.vertical_logo-st10{fill:#760D17;}
	.vertical_logo-st11{fill-rule:evenodd;clip-rule:evenodd;fill:#FFCA38;}
	.vertical_logo-st12{fill:#FFCA38;}
	.vertical_logo-st13{fill:#FFFFFC;}
	.vertical_logo-st14{fill-rule:evenodd;clip-rule:evenodd;fill:#231F20;}
	.vertical_logo-st15{fill:#E45943;}
</style>
<g>
	<g>
		<path class="vertical_logo-vertical_logo-st5" d="M2.2,93.4h1.1l2.2,5.7H4.3l-0.5-1.5H1.6L1,99.1H0L2.2,93.4z M1.8,96.8h1.7l-0.8-2.4h0L1.8,96.8z"/>
		<path class="vertical_logo-vertical_logo-st5" d="M7.4,93.4H12v0.9h-1.8v4.8h-1v-4.8H7.4V93.4z"/>
		<path class="vertical_logo-vertical_logo-st5" d="M14.9,93.4h4.6v0.9h-1.8v4.8h-1v-4.8h-1.8V93.4z"/>
		<path class="vertical_logo-vertical_logo-st5" d="M25.3,93.3c0.4,0,0.8,0.1,1.1,0.2c0.3,0.2,0.6,0.4,0.9,0.6c0.2,0.3,0.4,0.6,0.5,0.9c0.1,0.4,0.2,0.7,0.2,1.1
			c0,0.4-0.1,0.8-0.2,1.1c-0.1,0.4-0.3,0.7-0.5,0.9c-0.2,0.3-0.5,0.5-0.9,0.6c-0.3,0.2-0.7,0.2-1.1,0.2c-0.4,0-0.8-0.1-1.1-0.2
			c-0.3-0.2-0.6-0.4-0.9-0.6c-0.2-0.3-0.4-0.6-0.5-0.9c-0.1-0.4-0.2-0.7-0.2-1.1c0-0.4,0.1-0.8,0.2-1.1c0.1-0.4,0.3-0.7,0.5-0.9
			c0.2-0.3,0.5-0.5,0.9-0.6C24.5,93.4,24.9,93.3,25.3,93.3z M25.3,94.1c-0.3,0-0.6,0.1-0.8,0.2c-0.2,0.1-0.4,0.3-0.5,0.5
			c-0.1,0.2-0.2,0.4-0.3,0.7c-0.1,0.3-0.1,0.5-0.1,0.8s0,0.5,0.1,0.8c0.1,0.3,0.2,0.5,0.3,0.7c0.1,0.2,0.3,0.4,0.5,0.5
			c0.2,0.1,0.5,0.2,0.8,0.2c0.3,0,0.6-0.1,0.8-0.2c0.2-0.1,0.4-0.3,0.5-0.5c0.1-0.2,0.2-0.4,0.3-0.7c0.1-0.3,0.1-0.5,0.1-0.8
			s0-0.5-0.1-0.8c-0.1-0.3-0.2-0.5-0.3-0.7c-0.1-0.2-0.3-0.4-0.5-0.5C25.9,94.2,25.6,94.1,25.3,94.1z"/>
		<path class="vertical_logo-vertical_logo-st5" d="M31.7,93.4h2.7c0.6,0,1.1,0.1,1.4,0.4c0.3,0.3,0.5,0.6,0.5,1.1c0,0.3,0,0.5-0.1,0.7S36,96,35.9,96.1
			c-0.1,0.1-0.2,0.2-0.3,0.2s-0.2,0.1-0.2,0.1v0c0.1,0,0.2,0,0.3,0.1c0.1,0,0.2,0.1,0.3,0.2c0.1,0.1,0.2,0.2,0.2,0.4
			c0.1,0.1,0.1,0.3,0.1,0.6c0,0.3,0,0.6,0.1,0.9c0,0.3,0.1,0.5,0.2,0.6h-1.1c-0.1-0.1-0.1-0.3-0.1-0.4c0-0.1,0-0.3,0-0.4
			c0-0.3,0-0.5,0-0.7c0-0.2-0.1-0.3-0.2-0.5c-0.1-0.1-0.2-0.2-0.3-0.3c-0.1-0.1-0.3-0.1-0.6-0.1h-1.5v2.3h-1V93.4z M32.7,96h1.6
			c0.3,0,0.6-0.1,0.7-0.2c0.2-0.2,0.2-0.4,0.2-0.7c0-0.2,0-0.3-0.1-0.4c-0.1-0.1-0.1-0.2-0.2-0.3c-0.1-0.1-0.2-0.1-0.3-0.1
			c-0.1,0-0.2,0-0.4,0h-1.6V96z"/>
		<path class="vertical_logo-vertical_logo-st5" d="M40,93.4h1l2.6,4.2h0v-4.2h0.9v5.7h-1L41,94.9h0v4.2H40V93.4z"/>
		<path class="vertical_logo-vertical_logo-st5" d="M48.5,93.4h4.1v0.9h-3.1v1.5h2.9v0.8h-2.9v1.7h3.1v0.9h-4.1V93.4z"/>
		<path class="vertical_logo-vertical_logo-st5" d="M57.8,96.9l-2.1-3.4h1.1l1.5,2.5l1.5-2.5h1.1l-2.1,3.4v2.2h-1V96.9z"/>
		<path class="vertical_logo-vertical_logo-st5" d="M64.8,97.2c0,0.2,0,0.4,0.1,0.6c0.1,0.2,0.2,0.3,0.3,0.4c0.1,0.1,0.3,0.2,0.5,0.2c0.2,0,0.4,0.1,0.6,0.1
			c0.2,0,0.4,0,0.6-0.1c0.2,0,0.3-0.1,0.4-0.2c0.1-0.1,0.2-0.2,0.2-0.3c0-0.1,0.1-0.2,0.1-0.3c0-0.2,0-0.4-0.1-0.5
			c-0.1-0.1-0.2-0.2-0.3-0.2c-0.2-0.1-0.4-0.1-0.7-0.2c-0.3-0.1-0.6-0.2-1-0.3c-0.2-0.1-0.4-0.1-0.6-0.2c-0.2-0.1-0.3-0.2-0.4-0.3
			c-0.1-0.1-0.2-0.3-0.2-0.4c0-0.1-0.1-0.3-0.1-0.4c0-0.3,0.1-0.5,0.2-0.7c0.1-0.2,0.3-0.4,0.5-0.5c0.2-0.1,0.4-0.2,0.7-0.3
			c0.2-0.1,0.5-0.1,0.8-0.1c0.3,0,0.6,0,0.8,0.1c0.3,0.1,0.5,0.2,0.7,0.3c0.2,0.2,0.4,0.3,0.5,0.6c0.1,0.2,0.2,0.5,0.2,0.8h-1
			c0-0.4-0.2-0.6-0.4-0.8c-0.2-0.2-0.5-0.2-0.8-0.2c-0.1,0-0.2,0-0.4,0c-0.1,0-0.2,0.1-0.3,0.1c-0.1,0.1-0.2,0.1-0.2,0.2
			c-0.1,0.1-0.1,0.2-0.1,0.4c0,0.2,0.1,0.4,0.2,0.5c0.1,0.1,0.3,0.2,0.5,0.3c0,0,0.1,0,0.2,0.1c0.1,0,0.3,0.1,0.5,0.1
			c0.2,0,0.4,0.1,0.5,0.1c0.2,0,0.3,0.1,0.4,0.1c0.2,0.1,0.3,0.1,0.5,0.2c0.1,0.1,0.3,0.2,0.3,0.3c0.1,0.1,0.2,0.3,0.2,0.4
			c0,0.1,0.1,0.3,0.1,0.4c0,0.3-0.1,0.6-0.2,0.8c-0.1,0.2-0.3,0.4-0.5,0.6c-0.2,0.1-0.5,0.2-0.7,0.3c-0.3,0.1-0.5,0.1-0.8,0.1
			c-0.3,0-0.6,0-0.9-0.1c-0.3-0.1-0.5-0.2-0.7-0.4c-0.2-0.2-0.4-0.4-0.5-0.6c-0.1-0.3-0.2-0.6-0.2-0.9H64.8z"/>
		<path class="vertical_logo-vertical_logo-st5" d="M78.6,93.4h1.1l2.2,5.7h-1.1l-0.5-1.5H78l-0.5,1.5h-1L78.6,93.4z M78.2,96.8H80l-0.8-2.4h0L78.2,96.8z"/>
		<path class="vertical_logo-vertical_logo-st5" d="M83.9,93.4h4.6v0.9h-1.8v4.8h-1v-4.8h-1.8V93.4z"/>
		<path class="vertical_logo-vertical_logo-st5" d="M96.8,93.4h1v4.8h2.9v0.9h-3.9V93.4z"/>
		<path class="vertical_logo-vertical_logo-st5" d="M105.7,93.4h1.1l2.2,5.7h-1.1l-0.5-1.5H105l-0.5,1.5h-1L105.7,93.4z M105.3,96.8h1.7l-0.8-2.4h0L105.3,96.8z"
			/>
		<path class="vertical_logo-vertical_logo-st5" d="M111.5,93.4h1l1,4.3h0l1.1-4.3h1l1.1,4.3h0l1.1-4.3h1l-1.6,5.7h-1l-1.1-4.3h0l-1.2,4.3h-1L111.5,93.4z"/>
		<path class="vertical_logo-vertical_logo-st5" d="M121.6,98h1.1v1.1c0,0.3-0.1,0.6-0.3,0.8c-0.2,0.2-0.5,0.4-0.8,0.4v-0.5c0.2,0,0.3-0.1,0.4-0.3
			c0.1-0.2,0.1-0.3,0.1-0.5h-0.5V98z"/>
		<path class="vertical_logo-vertical_logo-st5" d="M131.6,93.4h2.5c0.4,0,0.7,0.1,1,0.2c0.3,0.1,0.4,0.3,0.6,0.4c0.1,0.2,0.2,0.4,0.3,0.6
			c0.1,0.2,0.1,0.4,0.1,0.6c0,0.2,0,0.4-0.1,0.6c0,0.2-0.1,0.4-0.3,0.6c-0.1,0.2-0.3,0.3-0.6,0.4c-0.3,0.1-0.6,0.2-1,0.2h-1.5v2.2
			h-1V93.4z M132.6,96.1h1.4c0.1,0,0.2,0,0.3,0c0.1,0,0.2-0.1,0.3-0.2c0.1-0.1,0.2-0.2,0.2-0.3c0.1-0.1,0.1-0.3,0.1-0.4
			c0-0.2,0-0.3-0.1-0.5c-0.1-0.1-0.1-0.2-0.2-0.3c-0.1-0.1-0.2-0.1-0.3-0.1c-0.1,0-0.2,0-0.4,0h-1.5V96.1z"/>
		<path class="vertical_logo-vertical_logo-st5" d="M138.3,98h1.1v1.1h-1.1V98z"/>
		<path class="vertical_logo-vertical_logo-st5" d="M143.9,97.2c0,0.2,0,0.4,0.1,0.6c0.1,0.2,0.2,0.3,0.3,0.4c0.1,0.1,0.3,0.2,0.5,0.2c0.2,0,0.4,0.1,0.6,0.1
			c0.2,0,0.4,0,0.6-0.1c0.2,0,0.3-0.1,0.4-0.2c0.1-0.1,0.2-0.2,0.2-0.3c0-0.1,0.1-0.2,0.1-0.3c0-0.2,0-0.4-0.1-0.5
			c-0.1-0.1-0.2-0.2-0.3-0.2c-0.2-0.1-0.4-0.1-0.7-0.2s-0.6-0.2-1-0.3c-0.2-0.1-0.4-0.1-0.6-0.2c-0.2-0.1-0.3-0.2-0.4-0.3
			s-0.2-0.3-0.2-0.4c0-0.1-0.1-0.3-0.1-0.4c0-0.3,0.1-0.5,0.2-0.7c0.1-0.2,0.3-0.4,0.5-0.5c0.2-0.1,0.4-0.2,0.7-0.3
			c0.2-0.1,0.5-0.1,0.8-0.1c0.3,0,0.6,0,0.8,0.1c0.3,0.1,0.5,0.2,0.7,0.3c0.2,0.2,0.4,0.3,0.5,0.6c0.1,0.2,0.2,0.5,0.2,0.8h-1
			c0-0.4-0.2-0.6-0.4-0.8c-0.2-0.2-0.5-0.2-0.8-0.2c-0.1,0-0.2,0-0.4,0c-0.1,0-0.2,0.1-0.3,0.1c-0.1,0.1-0.2,0.1-0.2,0.2
			c-0.1,0.1-0.1,0.2-0.1,0.4c0,0.2,0.1,0.4,0.2,0.5c0.1,0.1,0.3,0.2,0.5,0.3c0,0,0.1,0,0.2,0.1c0.1,0,0.3,0.1,0.5,0.1
			c0.2,0,0.4,0.1,0.5,0.1c0.2,0,0.3,0.1,0.4,0.1c0.2,0.1,0.3,0.1,0.5,0.2c0.1,0.1,0.3,0.2,0.3,0.3c0.1,0.1,0.2,0.3,0.2,0.4
			c0,0.1,0.1,0.3,0.1,0.4c0,0.3-0.1,0.6-0.2,0.8c-0.1,0.2-0.3,0.4-0.5,0.6c-0.2,0.1-0.5,0.2-0.7,0.3c-0.3,0.1-0.5,0.1-0.8,0.1
			c-0.3,0-0.6,0-0.9-0.1c-0.3-0.1-0.5-0.2-0.7-0.4c-0.2-0.2-0.4-0.4-0.5-0.6c-0.1-0.3-0.2-0.6-0.2-0.9H143.9z"/>
		<path class="vertical_logo-vertical_logo-st5" d="M151.1,98h1.1v1.1h-1.1V98z"/>
		<path class="vertical_logo-vertical_logo-st5" d="M160,95.2c0-0.2-0.1-0.3-0.2-0.5c-0.1-0.1-0.2-0.3-0.3-0.4c-0.1-0.1-0.3-0.2-0.4-0.2
			c-0.2-0.1-0.3-0.1-0.5-0.1c-0.3,0-0.6,0.1-0.8,0.2c-0.2,0.1-0.4,0.3-0.5,0.5c-0.1,0.2-0.2,0.4-0.3,0.7c-0.1,0.3-0.1,0.5-0.1,0.8
			s0,0.5,0.1,0.8c0.1,0.3,0.2,0.5,0.3,0.7c0.1,0.2,0.3,0.4,0.5,0.5c0.2,0.1,0.5,0.2,0.8,0.2c0.2,0,0.4,0,0.6-0.1
			c0.2-0.1,0.3-0.2,0.4-0.3c0.1-0.1,0.2-0.3,0.3-0.5c0.1-0.2,0.1-0.4,0.1-0.6h1c0,0.3-0.1,0.6-0.2,0.9c-0.1,0.3-0.3,0.5-0.5,0.7
			c-0.2,0.2-0.5,0.4-0.7,0.5c-0.3,0.1-0.6,0.2-0.9,0.2c-0.4,0-0.8-0.1-1.1-0.2c-0.3-0.2-0.6-0.4-0.9-0.6c-0.2-0.3-0.4-0.6-0.5-0.9
			c-0.1-0.4-0.2-0.7-0.2-1.1c0-0.4,0.1-0.8,0.2-1.1c0.1-0.4,0.3-0.7,0.5-0.9c0.2-0.3,0.5-0.5,0.9-0.6c0.3-0.2,0.7-0.2,1.1-0.2
			c0.3,0,0.6,0,0.9,0.1c0.3,0.1,0.5,0.2,0.7,0.4c0.2,0.2,0.4,0.4,0.5,0.6c0.1,0.2,0.2,0.5,0.2,0.8H160z"/>
		<path class="vertical_logo-vertical_logo-st5" d="M164.6,98h1.1v1.1h-1.1V98z"/>
	</g>
	<g>
		<path class="vertical_logo-vertical_logo-st5" d="M24.5,30.7c-2.1,2.2-6.6,3.9-10.5,3.9c-8.4,0-13.5-7.8-13.5-17.3C0.6,7.8,5.7,0,15.6,0c2.8,0,5,0.5,7.8,1.4
			v9.9H22C20.1,5.2,19.2,1,15.5,1c-4.4,0-6.1,4.4-6.1,16.2c0,11.8,1.7,16.2,4.7,16.2c1.8,0,2.6-1.5,2.6-4.7v-9h-2.8v-1h12.9v1h-2.2
			V30.7z"/>
		<path class="vertical_logo-vertical_logo-st5" d="M31.4,18.1v-7.5c2.4-1.1,5.1-1.8,7.6-1.8c6.1,0,9.2,1.7,9.2,7.8v16.2h2.1v1H42v-3.4h-0.1
			c-1.2,3.1-3.1,4.2-5.8,4.2c-4.1,0-7.3-2.9-7.3-6.8c0-8.4,10.7-7,12.5-9.8v-4.1c0-2.2-0.4-4-2.7-4c-3.1,0-4.5,5.7-5.4,8.2H31.4z
			 M41.2,19.4c-3.4,2.6-4.7,0.2-4.7,8.8c0,3.2,0.5,4.5,2.1,4.5c1.6,0,2.6-1.9,2.6-5.2V19.4z"/>
		<path class="vertical_logo-vertical_logo-st5" d="M52.5,33.8v-1h2.1V10.6h-2.1v-1H61v4H61c1.2-2.8,2.4-4.7,5.5-4.7c0.9,0,1.8,0.2,2.6,0.5v9.7H68
			c-1.2-4.2-1.9-7.8-3.6-7.8c-1.2,0-2.9,2.4-2.9,5.4v16.1h2.1v1H52.5z"/>
		<path class="vertical_logo-vertical_logo-st5" d="M81.3,9.5v1h-2.4l4.5,13.8h0.1l4.3-13.8h-3.5v-1h5.9v1h-1.4l-8.5,27.5c-0.8,2.5-1.8,4.7-4.4,4.7
			c-1.3,0-2.6-0.3-3.7-1.1V33h1.2l1.3,3.8c1.1,3.4,1.6,4.2,2.4,4.2c1.2,0,2-2.3,2.5-4.1l0.8-2.5l-9.2-23.8h-1.4v-1H81.3z"/>
		<path class="vertical_logo-vertical_logo-st5" d="M127.2,11.3h-1.5C123,4.1,122.7,1,118.8,1c-4.3,0-5.6,3.2-5.6,16.2s1.3,16.2,5.6,16.2c5,0,5.2-3.7,7.5-11.5
			h1.5v10.3c-3,1.5-6.1,2.3-9.2,2.3c-9.1,0-14.2-7.8-14.2-17.3c0-9.4,5.1-17.3,14.2-17.3c2.8,0,5.7,0.7,8.6,1.6V11.3z"/>
		<path class="vertical_logo-vertical_logo-st5" d="M139.6,30.7c0,2.1-1.5,3.8-3.4,3.8c-1.9,0-3.4-1.7-3.4-3.8c0-2.1,1.5-3.8,3.4-3.8
			C138.1,26.9,139.6,28.6,139.6,30.7z"/>
	</g>
	<g>
		<path class="vertical_logo-vertical_logo-st5" d="M0.7,61.4h1.5C4.4,71.8,5.5,74,7.3,74c1.6,0,2.2-1.1,2.2-2.9V42.3H6.4v-1h13.2v1h-2.2v22.3
			c0,7.6-3.5,10.4-10.5,10.4c-2.4,0-4.9-0.6-6.1-1.4V61.4z"/>
		<path class="vertical_logo-vertical_logo-st5" d="M32.6,75.1c-6.8,0-10.7-5.8-10.7-12.9c0-7.1,3.9-12.9,10.7-12.9s10.7,5.8,10.7,12.9
			C43.3,69.2,39.4,75.1,32.6,75.1z M30,71.2c0.3,2,1.2,2.8,2.5,2.8s2.2-0.8,2.5-2.8c0.3-2,0.4-4.1,0.4-9c0-4.9,0-7-0.4-9
			c-0.3-2-1.2-2.8-2.5-2.8s-2.2,0.8-2.5,2.8c-0.3,2-0.4,4.1-0.4,9C29.6,67,29.7,69.2,30,71.2z"/>
		<path class="vertical_logo-vertical_logo-st5" d="M56.1,74.3H45.8v-1h2.1V42.3h-2.1v-1h8.9v11.6h0.1c0.7-1.7,3.1-3.6,5.7-3.6c4,0,6,3,6,7.5v16.4h2.1v1H58.4v-1
			h1.3V54.9c0-2.1-0.5-3.3-1.8-3.3c-1.9,0-3.1,3.1-3.1,7.4v14.2h1.3V74.3z"/>
		<path class="vertical_logo-vertical_logo-st5" d="M80.7,74.3H70.5v-1h2.1V51.1h-2.1v-1H79v3.7h0.1c0.9-2.7,3.5-4.4,6.1-4.4c4,0,6,3,6,7.5v16.4h2.1v1H83v-1h1.3
			V54.9c0-2.1-0.5-3.3-1.8-3.3c-2.2,0-3.1,3.1-3.1,7.4v14.2h1.3V74.3z"/>
		<path class="vertical_logo-vertical_logo-st5" d="M96,65.5h2.1c1.4,4.1,1.8,8.5,6.7,8.5c2.9,0,4.7-1,4.7-3.5c0-6.2-13.8-3.3-13.8-13.1c0-4.5,3.5-8.1,9.2-8.1
			c2.6,0,5.2,0.8,7.6,1.9V58h-1.7c-1.3-4.5-2.5-7.7-6.4-7.7c-2.6,0-3.8,1.7-3.8,3.2c0,5.9,13.8,3.4,13.8,12.7c0,4.3-2.8,8.7-9.9,8.7
			c-2.3,0-5.7-0.7-8.3-2.2V65.5z"/>
		<path class="vertical_logo-vertical_logo-st5" d="M128,75.1c-6.8,0-10.7-5.8-10.7-12.9c0-7.1,3.9-12.9,10.7-12.9c6.8,0,10.7,5.8,10.7,12.9
			C138.8,69.2,134.9,75.1,128,75.1z M125.5,71.2c0.3,2,1.2,2.8,2.5,2.8c1.3,0,2.2-0.8,2.5-2.8c0.3-2,0.4-4.1,0.4-9c0-4.9,0-7-0.4-9
			c-0.3-2-1.2-2.8-2.5-2.8c-1.3,0-2.2,0.8-2.5,2.8c-0.3,2-0.4,4.1-0.4,9C125.1,67,125.1,69.2,125.5,71.2z"/>
		<path class="vertical_logo-vertical_logo-st5" d="M151.5,74.3h-10.2v-1h2.1V51.1h-2.1v-1h8.5v3.7h0.1c0.9-2.7,3.5-4.4,6.1-4.4c4,0,6,3,6,7.5v16.4h2.1v1h-10.2
			v-1h1.3V54.9c0-2.1-0.5-3.3-1.8-3.3c-2.2,0-3.1,3.1-3.1,7.4v14.2h1.3V74.3z"/>
	</g>
	<rect x="0.3" y="83.1" class="vertical_logo-st6" width="165.1" height="1.2"/>
</g>
</svg>
