<?xml version="1.0" encoding="utf-8"?>
<!-- Generator: Adobe Illustrator 23.0.4, SVG Export Plug-In . SVG Version: 6.00 Build 0)  -->
<svg version="1.1" id="Layer_1" xmlns="http://www.w3.org/2000/svg" xmlns:xlink="http://www.w3.org/1999/xlink" x="0px" y="0px"
	 width="94.6px" height="99.8px" viewBox="0 0 94.6 99.8" style="enable-background:new 0 0 94.6 99.8;" xml:space="preserve">
<style type="text/css">
	.st0{fill:#211E1F;}
	.st1{fill:#FFFFFF;}
</style>
<g>
	<g>
		<path class="st0" d="M75.6,85.9c-0.4,1.5-0.8,3.1-1.2,4.6c-0.7,2.8-1.5,5.6-2.2,8.4c-0.2,0.7-0.5,0.9-1.2,0.9c-2.1,0-4.1,0-6.2,0
			c-0.6,0-1-0.3-1.2-0.9c-2.3-8.3-4.6-16.5-6.9-24.8c-0.2-0.6,0-0.8,0.6-0.8c2.7,0,5.5,0,8.2,0c0.6,0,1,0.3,1.1,0.9
			c0.7,3.5,1.3,7,2,10.5c0,0.2,0.1,0.3,0.2,0.5c0.4-1.7,0.9-3.4,1.3-5.1c0.5-1.9,1-3.8,1.5-5.7c0.2-0.9,0.5-1.1,1.4-1.1
			c1.7,0,3.3,0,5,0c0.9,0,1.2,0.2,1.4,1.1c0.9,3.4,1.8,6.8,2.6,10.2c0.1,0.2,0.1,0.4,0.3,0.6c0.2-1.1,0.4-2.1,0.6-3.2
			c0.5-2.6,1-5.1,1.4-7.7c0.2-0.8,0.4-1,1.3-1c2.6,0,5.3,0,7.9,0c0.8,0,0.9,0.2,0.7,0.9c-2.3,8.2-4.6,16.4-6.8,24.6
			c-0.2,0.7-0.6,0.9-1.2,0.9c-2,0-4,0-6,0c-1,0-1.2-0.2-1.4-1.1c-1-4-2.1-8-3.1-12.1c-0.1-0.2-0.1-0.5-0.2-0.7
			C75.7,85.9,75.7,85.9,75.6,85.9z"/>
		<path class="st0" d="M47.7,73.3c1.2,0,2.4,0,3.6,0c0.7,0,1.1,0.3,1.3,0.9c2.8,8.3,5.6,16.5,8.4,24.7c0.2,0.7,0.2,0.8-0.6,0.8
			c-2.3,0-4.6,0-6.9,0c-0.7,0-1.1-0.3-1.2-0.9c-0.3-1-0.6-2-0.9-3.1c-0.1-0.3-0.2-0.5-0.6-0.5c-2.1,0-4.2,0-6.3,0
			c-0.4,0-0.5,0.2-0.6,0.5c-0.3,1-0.6,2.1-0.9,3.1c-0.2,0.6-0.5,0.9-1.1,0.9c-2.3,0-4.7,0-7,0c-0.7,0-0.8-0.1-0.6-0.8
			c2.8-8.2,5.6-16.5,8.4-24.7c0.2-0.7,0.6-0.9,1.3-0.9C45.3,73.3,46.5,73.3,47.7,73.3z M47.8,82.7c-0.1,0-0.1,0-0.2,0
			c-0.7,2.3-1.3,4.7-2,7.1c1.4,0,2.8,0,4.2,0C49.1,87.4,48.4,85.1,47.8,82.7z"/>
		<path class="st0" d="M26.9,92.9c2.3,0,4.5,0,6.7,0c0.9,0,1,0.1,0.9,1c-0.1,1.6-0.3,3.2-0.4,4.8c-0.1,0.9-0.2,1-1.1,1
			c-4.3,0-8.7,0-13,0c-0.9,0-1-0.1-1-0.9c0-8.2,0-16.4,0-24.6c0-0.8,0.1-0.9,0.9-0.9c2,0,4,0,6,0c0.8,0,1,0.1,1,1
			c0,5.9,0,11.9,0,17.8C26.9,92.3,26.9,92.6,26.9,92.9z"/>
		<path class="st0" d="M14,34.1c0.1-0.8,0.3-1.4,0.3-2.1c0-1.8-0.1-3.7-0.1-5.5c0-0.2-0.2-0.5-0.4-0.6c-0.4-0.2-0.3-0.4,0-0.6
			c1.6-1,4.3-0.7,5.6,0.7c0.5,0.5,0.9,1.3,0.9,1.9c0.1,1.2-0.1,2.4-0.3,3.5c-0.2,1.1-0.9,1.8-1.9,2.2c-1.2,0.5-2.4,0.9-3.8,0.6
			C14.1,34.2,14,34.2,14,34.1z M15.3,29.4C15.3,29.4,15.3,29.4,15.3,29.4c0,1.1,0,2.2,0,3.3c0,0.3,0,0.8,0.5,0.8
			c1.2,0.2,2.4-0.4,3-1.6c0.5-1.2,0.6-2.4,0.5-3.7c-0.2-1.4-1.2-2.5-2.5-2.8c-0.9-0.2-1.4,0.2-1.4,1.1
			C15.3,27.5,15.3,28.5,15.3,29.4z"/>
		<path class="st0" d="M28.4,29.3c0,1.4-0.3,2.5-1.2,3.4c-1.9,2-5,1.3-5.8-1.4c-0.5-1.6-0.3-3.1,0.6-4.4c0.8-1.2,2.1-1.7,3.5-1.6
			c1.4,0.1,2.4,1.2,2.7,2.8C28.4,28.6,28.4,29,28.4,29.3z M27.5,29.6c-0.2-0.7-0.2-1.4-0.5-1.9c-0.7-1.7-2.8-2-4-0.5
			c-1.1,1.3-1,3.7,0.2,5c1.1,1.2,3.1,1,3.8-0.5C27.3,30.9,27.4,30.2,27.5,29.6z"/>
		<path class="st0" d="M11.8,27.9c-0.1-0.7-0.1-1.4-0.2-2c-0.1-0.4,0-0.7,0.5-0.6c0.4,0,0.9,0,0.8,0.6c-0.1,0.9-0.2,1.8-0.3,2.7
			c-0.1,0.9-0.3,1.8-0.5,2.7c-0.3,1.4-1.3,2.3-2.7,2.8c-1.4,0.5-3.4-0.7-3.6-2.1c-0.3-2.2-0.3-4.5-0.5-6.8c0-0.4,0.2-0.6,0.6-0.4
			c0.2,0.1,0.5,0.2,0.7,0.4c0.1,0.2,0.2,0.5,0.2,0.7c-0.6,1.8-0.5,3.7-0.2,5.5c0.2,1,1.3,1.8,2.4,1.9c0.9,0.1,1.8-0.4,2.1-1.5
			c0.4-1.2,0.5-2.5,0.8-3.8C11.8,27.9,11.8,27.9,11.8,27.9z"/>
		<path class="st0" d="M0,35.2c0.1,0,0.2,0,0.2,0c1.6-0.1,2.4-0.6,2.5-2.2c0.1-2.3,0-4.6-0.1-6.9c0-0.3-0.3-0.6-0.5-0.9
			c0.2-0.5,0.7-0.8,1.2-0.9c0.5-0.2,0.5,0.3,0.5,0.6c0,1.3,0.1,2.6,0,3.8c0,1.4,0,2.8-0.3,4.1c-0.2,1.5-0.9,2.7-2.4,3.4
			C0.5,36.4,0,36.1,0,35.2z"/>
	</g>
	<path class="st1" d="M86.9,66.5c0.2,0.3,0.3,0.6,0.5,0.8c1,1.1,2.2,1.7,3.6,2.1c0.8,0.3,1.6,0.6,1.7,1.6c0.2,0.8-0.2,1.2-1,1.1
		c-0.8-0.1-1.6-0.3-2.5-0.5c-0.4-0.1-0.8-0.1-1.2-0.3c-1.6-0.7-3.3-1-5.1-1.2c-0.7-0.1-1.4-0.2-2-0.4c-0.9-0.2-1.2-0.7-1-1.6
		c0.2-0.7,0.5-1.5,0.8-2.2c0-0.1,0.1-0.3,0.2-0.4c-0.2-0.1-0.5-0.1-0.8-0.2c0.1-0.4,0.3-0.8,0.4-1.3c0.5-1.6,1-3.3,1.4-5
		c0.2-0.9-0.1-1.3-1-1.5c-2.8-0.6-5.6-1.2-8.4-1.7c-2.4-0.5-4.8-0.9-7.2-0.3c-1.6,0.4-3.1,1.2-4.6,1.9c-5.1,2.4-10.3,4.6-15.3,7.2
		c-3.2,1.6-6.1,3.6-9.2,5.4c-0.3,0.2-0.7,0.5-1,0.6c-0.4,0.1-0.9,0.1-1.3-0.1c-0.7-0.3-1.3-0.3-1.9,0.2c-1,0.8-2.1,0.9-3.2,0.7
		c-1.5-0.2-2.9,0-4.3,0.5c-1.3,0.4-2.6,0.7-3.9,0.2c-0.6-0.2-1.2-0.4-1.3-1.1c-0.1-0.7,0.6-1,1.1-1.3c6.1-3.8,12.1-7.7,18.3-11.4
		c4.4-2.6,8.9-5,13.3-7.5c2.6-1.5,5.2-3.2,7.7-4.9c1.5-1,1.7-2,1.1-3.7c-0.3-0.9-0.6-1.7-0.9-2.6c-0.3-0.8-0.9-1.3-1.7-1.7
		c-2.4-1-4.9-1.5-7.5-1.7c-5-0.4-10-1.4-14.8-2.9c0.1-0.4,0.1-0.8,0.1-1.3c0.1-0.9-0.1-1.3-1.1-1.4c-0.5-0.1-1-0.1-1.4-0.1
		c-2.6-0.1-2.8-2.1-2.4-3.7c0.4-1.3,1.3-1.6,2.5-0.9c1.1,0.6,2.2,0.6,3.4,0.6c1.3,0,2.6,0,3.9,0.2c2.6,0.4,5.1,0.5,7.7,0.3
		c1.8-0.1,3.6,0,5.3-0.2c3.8-0.4,7.5-0.9,11.1-2.5c0.7-0.3,1.3-0.7,1.9-1.2c0.5-0.3,0.6-1.3,0.3-1.8c-0.1-0.1-0.4-0.2-0.6-0.2
		c-1.2-0.1-1.2-0.3-1.5-1.4c-0.3-1.1,0.1-2.3-0.3-3.3c-0.6-2.1,0.2-3.8,1.2-5.4c1.1-1.9,4.1-2.6,6.1-1.7c2,0.9,3.2,3.2,2.7,5.5
		c-0.2,0.8-0.5,1.7-0.9,2.4c-0.4,0.8-0.7,1.7-0.6,2.6c0.2,1,1,1.7,2.1,1.5c0.7-0.1,1.3-0.2,2-0.4c0.9-0.3,1.5-0.9,2-1.7
		c0.7-1.3,1.5-2.6,2.3-3.9c1.1-1.8,1.4-3.7,1.5-5.7c0.1-1,0.1-2,0.2-2.9c0.1-0.6,0.3-1.2,0.4-1.8c0.2-0.7,0.1-1.4-0.5-2
		C82.6,2.4,83,0.8,84,0.4C84.7,0.2,85.4,0,86.1,0c0.4,0,0.9,0.3,1.3,0.5c0.1,0.1,0.2,0.4,0.2,0.6c0,0.4-0.1,0.7-0.1,1.1
		c0,0.9,0.1,1.8,0.2,2.7c0,0.8,0.1,0.9,0.9,1c0.5,0,0.5,0.4,0.5,0.7c-0.2,2.5-0.4,5-0.6,7.5c-0.1,1.3-0.3,2.6-0.6,3.9
		c-0.2,0.7-0.6,1.4-1.1,2c-2.7,3.9-5.2,7.8-7.2,12.2c-1.3,2.8-1.9,5.9-2.2,8.9c-0.1,0.7-0.1,1.5-0.1,2.3c0,0.8,0.3,1.5,1.2,1.8
		c3.2,1.3,6.4,2.6,9.6,4c0.3,0.1,0.7,0.3,1,0.5c1.9,0.8,2.9,2.3,2.7,4.4c-0.2,1.9-0.5,3.8-0.9,5.6c-0.4,2.2-1,4.4-1.6,6.5
		c-0.1,0.4-0.3,0.5-0.6,0.4c-0.5-0.1-1.1-0.2-1.7-0.3C87,66.5,87,66.5,86.9,66.5z"/>
</g>
</svg>
