<svg id="Layer_1" data-name="judo_two 1" xmlns="http://www.w3.org/2000/svg" viewBox="0 0 93.79 99.4">
  <defs>
    <style>
      .judo_two-cls-1 {
        fill: #231f20;
      }

      .judo_two-cls-2 {
        fill: #231f20;
      }

      .judo_two-cls-3 {
        fill: #fff;
      }
    </style>
  </defs>
  <title>judolaw2</title>
  <g>
    <g>
      <g>
        <path class="judo_two-cls-1" d="M75.1,85.5c-.4,1.5-.8,3-1.2,4.6-.7,2.8-1.4,5.5-2.1,8.3a1,1,0,0,1-1.2.9H64.4a1,1,0,0,1-1.1-.9L56.4,73.8c-.2-.6,0-.8.6-.8h8.1a1,1,0,0,1,1.1.9c.7,3.5,1.3,6.9,2,10.4,0,.2.1.3.2.5.4-1.7.9-3.4,1.3-5.1.5-1.9,1-3.8,1.4-5.7a1.19,1.19,0,0,1,1.4-1.1h5c.9,0,1.2.2,1.4,1.1.9,3.4,1.7,6.8,2.6,10.1.1.2.1.4.3.6.2-1.1.4-2.1.6-3.2.5-2.5,1-5.1,1.4-7.6.2-.8.4-1,1.3-1H93c.8,0,.9.2.7.9C91.5,82,89.3,90.2,87,98.3a1,1,0,0,1-1.2.9H79.9c-1,0-1.2-.2-1.4-1.1-1-4-2.1-8-3.1-12-.1-.2-.1-.5-.2-.7Z"/>
        <path class="judo_two-cls-1" d="M47.4,73H51a1.29,1.29,0,0,1,1.3.9c2.8,8.2,5.6,16.4,8.3,24.6.2.7.2.8-.6.8H53.1a1.11,1.11,0,0,1-1.2-.9l-.9-3c-.1-.3-.2-.5-.6-.5H44.1c-.4,0-.5.2-.6.5-.3,1-.6,2.1-.9,3.1-.2.6-.5.9-1.1.9h-7c-.7,0-.8-.1-.5-.8,2.8-8.2,5.6-16.4,8.3-24.5a1.13,1.13,0,0,1,1.3-.9A24.2,24.2,0,0,1,47.4,73Zm0,9.3h-.2c-.7,2.3-1.3,4.7-2,7h4.1C48.7,87,48,84.7,47.4,82.3Z"/>
        <path class="judo_two-cls-1" d="M26.7,92.4h6.6c.9,0,1,.1.9,1-.1,1.6-.3,3.2-.4,4.8-.1.9-.2,1-1.1,1H19.8c-.8,0-1-.1-1-.9V73.9c0-.8.1-.9.9-.9h6c.8,0,1,.1,1,1V92.4Z"/>
      </g>
      <path class="judo_two-cls-2" d="M13.8,34.1a17.67,17.67,0,0,0,.3-2.1c0-1.8-.1-3.7-.1-5.5a.82.82,0,0,0-.4-.6c-.4-.2-.3-.4,0-.6a4.84,4.84,0,0,1,5.6.7,3.07,3.07,0,0,1,.9,1.9,13.43,13.43,0,0,1-.3,3.5,3,3,0,0,1-1.9,2.2,6,6,0,0,1-3.7.6C14,34.2,13.9,34.1,13.8,34.1Zm1.4-4.7h0v3.2c0,.3,0,.7.5.8a2.68,2.68,0,0,0,2.9-1.5,7.76,7.76,0,0,0,.5-3.7,3.44,3.44,0,0,0-2.5-2.8c-.9-.2-1.4.2-1.4,1.1Z"/>
      <path class="judo_two-cls-2" d="M28.2,29.3A4.45,4.45,0,0,1,27,32.7a3.36,3.36,0,0,1-5.8-1.4,5,5,0,0,1,.6-4.4,3.72,3.72,0,0,1,3.5-1.6A3.09,3.09,0,0,1,28,28.1,3.23,3.23,0,0,1,28.2,29.3Zm-.9.3a10.55,10.55,0,0,0-.5-1.9,2.2,2.2,0,0,0-3.9-.5,3.91,3.91,0,0,0,.2,4.9,2.21,2.21,0,0,0,3.7-.5A8.35,8.35,0,0,0,27.3,29.6Z"/>
      <path class="judo_two-cls-2" d="M11.7,27.9c-.1-.7-.1-1.3-.2-2-.1-.4,0-.6.5-.6s.9,0,.8.6l-.3,2.7a25.58,25.58,0,0,1-.5,2.7A3.55,3.55,0,0,1,9.3,34a3,3,0,0,1-3.6-2.1c-.3-2.2-.3-4.5-.5-6.7,0-.4.2-.6.6-.4a2.51,2.51,0,0,1,.7.4,1.85,1.85,0,0,1,.2.7,11.35,11.35,0,0,0-.2,5.5,2.69,2.69,0,0,0,2.3,1.9,1.92,1.92,0,0,0,2.1-1.5c.4-1.2.5-2.5.8-3.8C11.8,27.9,11.7,27.9,11.7,27.9Z"/>
      <path class="judo_two-cls-2" d="M0,35.2H.2c1.6-.1,2.4-.6,2.5-2.2.1-2.3,0-4.6-.1-6.8,0-.3-.3-.6-.5-.9a1.59,1.59,0,0,1,1.2-.9c.5-.2.5.2.5.6,0,1.3.1,2.5,0,3.8a18.43,18.43,0,0,1-.3,4.1,4.07,4.07,0,0,1-2.4,3.4C.5,36.4,0,36,0,35.2Z"/>
    </g>
    <path class="judo_two-cls-3" d="M86.3,66.4a5.58,5.58,0,0,0,.5.8,7.33,7.33,0,0,0,3.6,2.1c.8.3,1.5.6,1.7,1.6.2.8-.2,1.2-1,1.1s-1.6-.3-2.5-.5a5.27,5.27,0,0,1-1.2-.3A17.28,17.28,0,0,0,82.3,70a11.8,11.8,0,0,1-2-.4,1.15,1.15,0,0,1-1-1.6c.2-.7.5-1.4.8-2.2a.76.76,0,0,1,.2-.4c-.2-.1-.5-.1-.8-.2.1-.4.3-.8.4-1.3.5-1.6,1-3.3,1.4-4.9.2-.9-.1-1.3-1-1.5-2.8-.6-5.6-1.2-8.3-1.7a16,16,0,0,0-7.2-.3,26.23,26.23,0,0,0-4.6,1.9c-5,2.4-10.2,4.7-15.2,7.2-3.2,1.6-6.1,3.6-9.2,5.4a5.3,5.3,0,0,1-1,.6,2,2,0,0,1-1.3-.1,1.66,1.66,0,0,0-1.9.2,3.77,3.77,0,0,1-3.2.7,9,9,0,0,0-4.3.5,5.82,5.82,0,0,1-3.9.2c-.6-.2-1.2-.4-1.3-1.1s.6-1,1.1-1.3c6-3.7,12-7.6,18.2-11.3,4.3-2.6,8.9-4.9,13.3-7.5,2.6-1.5,5.2-3.2,7.6-4.9,1.5-1,1.7-2,1.1-3.7-.3-.9-.6-1.7-.9-2.6A3.15,3.15,0,0,0,57.6,38a24.07,24.07,0,0,0-7.5-1.7,67.15,67.15,0,0,1-14.7-2.9,5.28,5.28,0,0,0,.1-1.3c.1-.9-.1-1.3-1.1-1.4a7.08,7.08,0,0,0-1.4-.1c-2.5-.1-2.8-2.1-2.3-3.7.4-1.3,1.3-1.6,2.5-.9a6.47,6.47,0,0,0,3.4.6,25.49,25.49,0,0,1,3.9.2,33.13,33.13,0,0,0,7.7.3c1.8-.1,3.6,0,5.3-.2a34.53,34.53,0,0,0,11-2.5,7.61,7.61,0,0,0,1.9-1.2,1.5,1.5,0,0,0,.3-1.8,1.07,1.07,0,0,0-.6-.2c-1.2-.1-1.2-.3-1.5-1.4s.1-2.3-.3-3.3c-.6-2.1.2-3.8,1.2-5.4,1.1-1.9,4.1-2.6,6.1-1.7a4.91,4.91,0,0,1,2.7,5.5,9.89,9.89,0,0,1-.9,2.4,4.56,4.56,0,0,0-.6,2.6,1.72,1.72,0,0,0,2.1,1.5,10.62,10.62,0,0,0,1.9-.4,3.71,3.71,0,0,0,2-1.7c.7-1.3,1.5-2.6,2.2-3.8a12.74,12.74,0,0,0,1.5-5.7c.1-1,.1-2,.2-2.9.1-.6.3-1.2.4-1.7a1.92,1.92,0,0,0-.5-2A1.79,1.79,0,0,1,83.2.5,7.36,7.36,0,0,1,85.5,0a3.49,3.49,0,0,1,1.3.5c.2.1.2.5.2.7,0,.4-.1.7-.1,1.1.1.9.1,1.8.2,2.7s.1.9.9,1c.5,0,.5.4.4.7l-.6,7.5a26.29,26.29,0,0,1-.6,3.9,5.64,5.64,0,0,1-1.1,2A73.68,73.68,0,0,0,79,32.2a27.06,27.06,0,0,0-2.2,8.9,17,17,0,0,0-.1,2.3,1.71,1.71,0,0,0,1.2,1.8c3.2,1.3,6.4,2.6,9.6,4a4.67,4.67,0,0,1,1,.5,4.06,4.06,0,0,1,2.7,4.4,50.3,50.3,0,0,1-.9,5.6c-.4,2.2-1,4.3-1.6,6.5-.1.4-.3.5-.6.4l-1.6-.3C86.4,66.3,86.4,66.3,86.3,66.4Z"/>
  </g>
</svg>
