<svg version="1.1" id="sp_2" xmlns="http://www.w3.org/2000/svg" xmlns:xlink="http://www.w3.org/1999/xlink" x="0px" y="0px"
	 width="91px" height="91px" viewBox="0 0 91 91" style="enable-background:new 0 0 91 91;" xml:space="preserve">
<style type="text/css">
	.sp-2-st0{fill:none;stroke:#EA573F;stroke-width:2;stroke-linejoin:round;stroke-miterlimit:10;}
	.sp-2-st1{fill:none;stroke:#C3984F;stroke-width:2;stroke-linecap:round;stroke-linejoin:round;stroke-miterlimit:10;}
	.sp-2-st2{fill:none;stroke:#EA573F;stroke-width:2;stroke-linecap:round;stroke-linejoin:round;stroke-miterlimit:10;}
	.sp-2-st3{fill:#666666;}
	.sp-2-st4{fill:#FFFFFF;}
	.sp-2-st5{fill:#231F20;}
	.sp-2-st6{fill:#760D17;}
	.sp-2-st7{fill-rule:evenodd;clip-rule:evenodd;fill:#FFCA38;}
	.sp-2-st8{fill:#FFCA38;}
	.sp-2-st9{fill:#FFFFFC;}
	.sp-2-st10{fill-rule:evenodd;clip-rule:evenodd;fill:#231F20;}
	.sp-2-st11{fill:#E45943;}
</style>
<g>
	<path class="sp-2-st1" d="M48.5,90H82c4.4,0,8-3.6,8-8V31.4c0-4.4-3.6-8-8-8H48.3c-4.4,0-8,3.6-8,8v5.1"/>
	<polyline class="sp-2-st1" points="66.2,73.6 75.8,73.6 75.8,44.5 54.1,44.5 	"/>
	<g>
		<path class="sp-2-st2" d="M10.4,90h47.4c5.2,0,9.4-4.2,9.4-9.4V76c0-5.2-4.2-9.4-9.4-9.4H10.4C5.2,66.6,1,70.8,1,76v4.6
			C1,85.7,5.2,90,10.4,90z"/>
		<path class="sp-2-st2" d="M39,71.5h16.5c3.7,0,6.7,3,6.7,6.7"/>
		<line class="sp-2-st2" x1="34.1" y1="66.6" x2="34.1" y2="90"/>
	</g>
	<g>
		<path class="sp-2-st2" d="M40.9,66.6l10.3-10.3c4.6-4.6,4.6-12,0-16.5l0,0c-4.6-4.6-12-4.6-16.5,0L4.4,70"/>
		<path class="sp-2-st2" d="M26.5,54.9l11.7-11.7c2.6-2.6,6.9-2.6,9.5,0"/>
		<line class="sp-2-st2" x1="19.6" y1="54.8" x2="31.3" y2="66.6"/>
	</g>
	<rect x="50.1" y="1" class="sp-2-st1" width="30.1" height="22.4"/>
	<g>
		<line class="sp-2-st1" x1="74" y1="1" x2="74" y2="23.4"/>
		<line class="sp-2-st1" x1="68.1" y1="1" x2="68.1" y2="23.4"/>
		<line class="sp-2-st1" x1="62.1" y1="1" x2="62.1" y2="23.4"/>
		<line class="sp-2-st1" x1="56.2" y1="1" x2="56.2" y2="23.4"/>
	</g>
</g>
</svg>
