<?xml version="1.0" encoding="utf-8"?>
<!-- Generator: Adobe Illustrator 23.0.4, SVG Export Plug-In . SVG Version: 6.00 Build 0)  -->
<svg version="1.1" id="Layer_1" xmlns="http://www.w3.org/2000/svg" xmlns:xlink="http://www.w3.org/1999/xlink" x="0px" y="0px"
	 width="95.2px" height="95px" viewBox="0 0 95.2 95" style="enable-background:new 0 0 95.2 95;" xml:space="preserve">
<style type="text/css">
	.st0{fill:none;stroke:#EA573F;stroke-width:2;stroke-linejoin:round;stroke-miterlimit:10;}
	.st1{fill:none;stroke:#C3984F;stroke-width:2;stroke-linecap:round;stroke-linejoin:round;stroke-miterlimit:10;}
	.st2{fill:none;stroke:#EA573F;stroke-width:2;stroke-linecap:round;stroke-linejoin:round;stroke-miterlimit:10;}
	.st3{fill:#666666;}
	.st4{fill:#FFFFFF;}
	.st5{fill:#231F20;}
	.st6{fill:#760D17;}
	.st7{fill-rule:evenodd;clip-rule:evenodd;fill:#FFCA38;}
	.st8{fill:#FFCA38;}
	.st9{fill:#FFFFFC;}
	.st10{fill-rule:evenodd;clip-rule:evenodd;fill:#231F20;}
	.st11{fill:#E45943;}
</style>
<g>
	<g>
		<rect x="59.2" y="8.7" class="st0" width="7.7" height="7.7"/>
		<rect x="43.8" y="8.7" class="st0" width="7.7" height="7.7"/>
		<g>
			<rect x="51.5" y="1" class="st0" width="7.7" height="7.7"/>
			<rect x="36" y="1" class="st0" width="7.7" height="7.7"/>
		</g>
		<rect x="28.3" y="8.7" class="st0" width="7.7" height="7.7"/>
	</g>
	<line class="st1" x1="37" y1="76.5" x2="58.3" y2="76.5"/>
	<circle class="st1" cx="17.9" cy="66.6" r="4.1"/>
	<circle class="st1" cx="77.3" cy="66.6" r="4.1"/>
	<path class="st1" d="M90.7,80.1v-9.7c0-5.4-1-10.8-2.9-15.9l-8-20.9c-1.9-5.1-6.8-8.5-12.3-8.5H27.7c-5.4,0-10.3,3.4-12.3,8.5
		l-8,20.9c-1.9,5.1-2.9,10.4-2.9,15.9v9.7c0,3.3,2.7,6,6,6h74.2C88,86.1,90.7,83.4,90.7,80.1z"/>
	<path class="st1" d="M7.2,55.2c12.1,1.4,25.7,2.4,40.6,2.4c14.8,0,28.3-1,40.3-2.4"/>
	<g>
		<path class="st1" d="M11.6,43.6l-8.7,0c-1.2,0-2.1,1.2-1.8,2.4l0.8,2.7c0.2,0.8,1,1.3,1.8,1.3l5.5,0"/>
		<path class="st1" d="M83.6,43.6l8.7,0c1.2,0,2.1,1.2,1.8,2.4l-0.8,2.7c-0.2,0.8-1,1.3-1.8,1.3l-5.5,0"/>
	</g>
	<g>
		<path class="st1" d="M21.1,86.1v4.4c0,2-1.6,3.5-3.5,3.5H9.3c-2,0-3.5-1.6-3.5-3.5v-6.8"/>
		<path class="st1" d="M89.5,83.7v6.8c0,2-1.6,3.5-3.5,3.5h-8.2c-2,0-3.5-1.6-3.5-3.5v-4.4"/>
	</g>
</g>
</svg>
