<?xml version="1.0" encoding="utf-8"?>
<!-- Generator: Adobe Illustrator 23.0.4, SVG Export Plug-In . SVG Version: 6.00 Build 0)  -->
<svg version="1.1" id="Layer_1" xmlns="http://www.w3.org/2000/svg" xmlns:xlink="http://www.w3.org/1999/xlink" x="0px" y="0px"
	 width="69.5px" height="103.1px" viewBox="0 0 69.5 103.1" style="enable-background:new 0 0 69.5 103.1;" xml:space="preserve">
<style type="text/css">
	.st0{fill:none;stroke:#EA573F;stroke-width:2;stroke-linejoin:round;stroke-miterlimit:10;}
	.st1{fill:none;stroke:#C3984F;stroke-width:2;stroke-linecap:round;stroke-linejoin:round;stroke-miterlimit:10;}
	.st2{fill:none;stroke:#EA573F;stroke-width:2;stroke-linecap:round;stroke-linejoin:round;stroke-miterlimit:10;}
	.st3{fill:#666666;}
	.st4{fill:#FFFFFF;}
	.st5{fill:#231F20;}
	.st6{fill:#760D17;}
	.st7{fill-rule:evenodd;clip-rule:evenodd;fill:#FFCA38;}
	.st8{fill:#FFCA38;}
	.st9{fill:#FFFFFC;}
	.st10{fill-rule:evenodd;clip-rule:evenodd;fill:#231F20;}
	.st11{fill:#E45943;}
</style>
<g>
	<line class="st2" x1="14.3" y1="83.6" x2="4.5" y2="102.1"/>
	<g>
		<path class="st1" d="M30.4,5.4H18.6c-6.6,0-12.3,4.5-13.8,10.8L1,31.8V81c0,1.4,1.2,2.6,2.6,2.6h31.2h31.2c1.4,0,2.6-1.2,2.6-2.6
			V31.8l-3.8-15.6C63.1,9.9,57.4,5.4,50.8,5.4H39.1"/>
		<path class="st1" d="M63.1,29.1l-2.4-9.7c-0.6-2.5-2.9-4.3-5.5-4.3H34.7H14.4c-2.6,0-4.9,1.8-5.5,4.3l-2.4,9.7
			c-0.5,2,1.3,3.8,3.3,3.4l25-5.5l25,5.5C61.8,32.9,63.6,31.1,63.1,29.1z"/>
		<line class="st1" x1="34.7" y1="15.1" x2="34.7" y2="27"/>
		<circle class="st1" cx="11.6" cy="60.8" r="4.4"/>
		<circle class="st1" cx="34.7" cy="5.4" r="4.4"/>
		<circle class="st1" cx="57.8" cy="60.8" r="4.4"/>
		<polyline class="st1" points="68.4,81.3 34.7,66.1 1,81.3 		"/>
		<line class="st2" x1="65" y1="102.1" x2="55.2" y2="83.6"/>
		<line class="st2" x1="6.2" y1="98.7" x2="63.2" y2="98.7"/>
		<line class="st2" x1="8.8" y1="93.8" x2="60.6" y2="93.8"/>
		<line class="st2" x1="11.4" y1="89" x2="58" y2="89"/>
	</g>
</g>
</svg>
