<?xml version="1.0" encoding="utf-8"?>
<!-- Generator: Adobe Illustrator 23.0.4, SVG Export Plug-In . SVG Version: 6.00 Build 0)  -->
<svg version="1.1" id="Layer_1" xmlns="http://www.w3.org/2000/svg" xmlns:xlink="http://www.w3.org/1999/xlink" x="0px" y="0px"
	 width="97.7px" height="106.9px" viewBox="0 0 97.7 106.9" style="enable-background:new 0 0 97.7 106.9;" xml:space="preserve">
<style type="text/css">
	.st0{fill:none;stroke:#EA573F;stroke-width:2;stroke-linejoin:round;stroke-miterlimit:10;}
	.st1{fill:none;stroke:#C3984F;stroke-width:2;stroke-linecap:round;stroke-linejoin:round;stroke-miterlimit:10;}
	.st2{fill:none;stroke:#EA573F;stroke-width:2;stroke-linecap:round;stroke-linejoin:round;stroke-miterlimit:10;}
	.st3{fill:#666666;}
	.st4{fill:#FFFFFF;}
	.st5{fill:#231F20;}
	.st6{fill:#760D17;}
	.st7{fill-rule:evenodd;clip-rule:evenodd;fill:#FFCA38;}
	.st8{fill:#FFCA38;}
	.st9{fill:#FFFFFC;}
	.st10{fill-rule:evenodd;clip-rule:evenodd;fill:#231F20;}
	.st11{fill:#E45943;}
</style>
<g>
	<path class="st2" d="M33.2,87.9c-0.1,10,11.8,17.1,16.2,17.9c-14.6-1-34.7-14.9-34.7-33.7C14.8,57,23.5,54,25,39
		c1.1,2.2,2.1,7.4,2.2,11.3c20.9-13.7,21-34.1,19-44.2C61.8,12.3,72.6,26.2,73,44.4c3-4.7,4.8-10.1,5.4-14.6
		c2.4,1.4,17.9,11.7,17.9,35.2c0,23.8-21.5,39.1-34.6,40.4c0,0,16.3-5.3,16.3-21.3c0-13.8-9.8-19.6-9.8-19.6s-0.3,4.6-2.9,8
		c0,0-0.1-14.4-14.8-21c2.3,11.3-5.5,19.1-9.7,22.9C36,78.5,33.3,81.7,33.2,87.9z"/>
	<line class="st1" x1="88" y1="8.1" x2="96.7" y2="8.1"/>
	<line class="st1" x1="1" y1="102.2" x2="11.1" y2="102.2"/>
	<line class="st1" x1="70.1" y1="1" x2="90.4" y2="1"/>
</g>
</svg>
